<svg width="163" height="30" viewBox="0 0 163 30" fill="none" xmlns="http://www.w3.org/2000/svg">
<path d="M0.394531 0.25H20.8047V5.30859H6.37109V11.9297H19.0078V16.9297H6.37109V29H0.394531V0.25ZM32.7969 11.7344C31.5078 11.7344 30.5052 12.138 29.7891 12.9453C29.0859 13.7526 28.6432 14.8464 28.4609 16.2266H37.1133C37.0221 14.7552 36.5729 13.6419 35.7656 12.8867C34.9714 12.1185 33.9818 11.7344 32.7969 11.7344ZM32.7969 7.14453C34.5677 7.14453 36.1628 7.47656 37.582 8.14062C39.0013 8.80469 40.1732 9.85286 41.0977 11.2852C41.931 12.5482 42.4714 14.013 42.7188 15.6797C42.862 16.6562 42.9206 18.0625 42.8945 19.8984H28.3242C28.4023 22.0339 29.0729 23.5312 30.3359 24.3906C31.1042 24.9245 32.0286 25.1914 33.1094 25.1914C34.2552 25.1914 35.1862 24.8659 35.9023 24.2148C36.293 23.8633 36.638 23.375 36.9375 22.75H42.6211C42.4779 24.013 41.8203 25.2956 40.6484 26.5977C38.8255 28.668 36.2734 29.7031 32.9922 29.7031C30.2839 29.7031 27.8945 28.8307 25.8242 27.0859C23.7539 25.3411 22.7188 22.5026 22.7188 18.5703C22.7188 14.8854 23.6497 12.0599 25.5117 10.0938C27.3867 8.1276 29.8151 7.14453 32.7969 7.14453ZM58.4023 18.6484C58.0508 18.8698 57.6927 19.0521 57.3281 19.1953C56.9766 19.3255 56.4883 19.4492 55.8633 19.5664L54.6133 19.8008C53.4414 20.0091 52.6016 20.263 52.0938 20.5625C51.2344 21.0703 50.8047 21.8581 50.8047 22.9258C50.8047 23.8763 51.0651 24.5664 51.5859 24.9961C52.1198 25.4128 52.7643 25.6211 53.5195 25.6211C54.7174 25.6211 55.8177 25.2695 56.8203 24.5664C57.8359 23.8633 58.3633 22.5807 58.4023 20.7188V18.6484ZM55.0234 16.0508C56.0521 15.9206 56.7878 15.7578 57.2305 15.5625C58.0247 15.224 58.4219 14.6966 58.4219 13.9805C58.4219 13.1081 58.1159 12.5091 57.5039 12.1836C56.9049 11.8451 56.0195 11.6758 54.8477 11.6758C53.5326 11.6758 52.6016 12.0013 52.0547 12.6523C51.6641 13.1341 51.4036 13.7852 51.2734 14.6055H45.9023C46.0195 12.7435 46.5404 11.2135 47.4648 10.0156C48.9362 8.14062 51.4622 7.20312 55.043 7.20312C57.3737 7.20312 59.444 7.66536 61.2539 8.58984C63.0638 9.51432 63.9688 11.2591 63.9688 13.8242V23.5898C63.9688 24.2669 63.9818 25.0872 64.0078 26.0508C64.0469 26.7799 64.1576 27.2747 64.3398 27.5352C64.5221 27.7956 64.7956 28.0104 65.1602 28.1797V29H59.1055C58.9362 28.5703 58.819 28.1667 58.7539 27.7891C58.6888 27.4115 58.6367 26.9818 58.5977 26.5C57.8294 27.3333 56.944 28.043 55.9414 28.6289C54.7435 29.319 53.3893 29.6641 51.8789 29.6641C49.9518 29.6641 48.3568 29.1172 47.0938 28.0234C45.8438 26.9167 45.2188 25.3542 45.2188 23.3359C45.2188 20.7188 46.2279 18.8242 48.2461 17.6523C49.3529 17.0143 50.9805 16.5586 53.1289 16.2852L55.0234 16.0508ZM66.7422 11.8711V7.90625H69.7109V1.96875H75.2188V7.90625H78.6758V11.8711H75.2188V23.1211C75.2188 23.9935 75.3294 24.5404 75.5508 24.7617C75.7721 24.9701 76.4492 25.0742 77.582 25.0742C77.7513 25.0742 77.9271 25.0742 78.1094 25.0742C78.3047 25.0612 78.4935 25.0482 78.6758 25.0352V29.1953L76.0391 29.293C73.4089 29.3841 71.612 28.9284 70.6484 27.9258C70.0234 27.2878 69.7109 26.3047 69.7109 24.9766V11.8711H66.7422ZM87.7969 7.71094V20.543C87.7969 21.7539 87.9401 22.6654 88.2266 23.2773C88.7344 24.3581 89.7305 24.8984 91.2148 24.8984C93.1159 24.8984 94.418 24.1302 95.1211 22.5938C95.4857 21.7604 95.668 20.6602 95.668 19.293V7.71094H101.312V29H95.9023V25.9922C95.8503 26.0573 95.7201 26.2526 95.5117 26.5781C95.3034 26.9036 95.056 27.1901 94.7695 27.4375C93.8971 28.2188 93.0508 28.7526 92.2305 29.0391C91.4232 29.3255 90.4727 29.4688 89.3789 29.4688C86.2279 29.4688 84.1055 28.3359 83.0117 26.0703C82.3997 24.8203 82.0938 22.9779 82.0938 20.543V7.71094H87.7969ZM118.266 7.20312C118.37 7.20312 118.454 7.20964 118.52 7.22266C118.598 7.22266 118.76 7.22917 119.008 7.24219V12.9453C118.656 12.9062 118.344 12.8802 118.07 12.8672C117.797 12.8542 117.576 12.8477 117.406 12.8477C115.167 12.8477 113.663 13.5768 112.895 15.0352C112.465 15.8555 112.25 17.1185 112.25 18.8242V29H106.645V7.71094H111.957V11.4219C112.816 10.0026 113.565 9.03255 114.203 8.51172C115.245 7.63932 116.599 7.20312 118.266 7.20312ZM130.688 11.7344C129.398 11.7344 128.396 12.138 127.68 12.9453C126.977 13.7526 126.534 14.8464 126.352 16.2266H135.004C134.913 14.7552 134.464 13.6419 133.656 12.8867C132.862 12.1185 131.872 11.7344 130.688 11.7344ZM130.688 7.14453C132.458 7.14453 134.053 7.47656 135.473 8.14062C136.892 8.80469 138.064 9.85286 138.988 11.2852C139.822 12.5482 140.362 14.013 140.609 15.6797C140.753 16.6562 140.811 18.0625 140.785 19.8984H126.215C126.293 22.0339 126.964 23.5312 128.227 24.3906C128.995 24.9245 129.919 25.1914 131 25.1914C132.146 25.1914 133.077 24.8659 133.793 24.2148C134.184 23.8633 134.529 23.375 134.828 22.75H140.512C140.368 24.013 139.711 25.2956 138.539 26.5977C136.716 28.668 134.164 29.7031 130.883 29.7031C128.174 29.7031 125.785 28.8307 123.715 27.0859C121.645 25.3411 120.609 22.5026 120.609 18.5703C120.609 14.8854 121.54 12.0599 123.402 10.0938C125.277 8.1276 127.706 7.14453 130.688 7.14453ZM148.891 22.2031C149.008 23.1927 149.262 23.8958 149.652 24.3125C150.342 25.0547 151.618 25.4258 153.48 25.4258C154.574 25.4258 155.44 25.263 156.078 24.9375C156.729 24.612 157.055 24.1237 157.055 23.4727C157.055 22.8477 156.794 22.3724 156.273 22.0469C155.753 21.7214 153.819 21.1615 150.473 20.3672C148.064 19.7682 146.365 19.0195 145.375 18.1211C144.385 17.2357 143.891 15.9596 143.891 14.293C143.891 12.3268 144.659 10.6406 146.195 9.23438C147.745 7.8151 149.919 7.10547 152.719 7.10547C155.375 7.10547 157.536 7.63932 159.203 8.70703C160.883 9.76172 161.846 11.5911 162.094 14.1953H156.527C156.449 13.4792 156.247 12.9128 155.922 12.4961C155.31 11.7409 154.268 11.3633 152.797 11.3633C151.586 11.3633 150.72 11.5521 150.199 11.9297C149.691 12.3073 149.438 12.75 149.438 13.2578C149.438 13.8958 149.711 14.3581 150.258 14.6445C150.805 14.944 152.738 15.4583 156.059 16.1875C158.272 16.7083 159.932 17.4961 161.039 18.5508C162.133 19.6185 162.68 20.9531 162.68 22.5547C162.68 24.6641 161.892 26.3893 160.316 27.7305C158.754 29.0586 156.332 29.7227 153.051 29.7227C149.704 29.7227 147.23 29.0195 145.629 27.6133C144.04 26.194 143.246 24.3906 143.246 22.2031H148.891Z" fill="#212353"/>
</svg>
