<svg width="572" height="44" viewBox="0 0 572 44" fill="none" xmlns="http://www.w3.org/2000/svg">
<path d="M1.50526 11.336C1.81726 11.804 2.21326 12.152 2.69326 12.38C3.18526 12.596 3.68926 12.704 4.20526 12.704C4.49326 12.704 4.78726 12.662 5.08726 12.578C5.38726 12.482 5.65726 12.344 5.89726 12.164C6.14926 11.984 6.35326 11.762 6.50926 11.498C6.66526 11.234 6.74326 10.928 6.74326 10.58C6.74326 10.088 6.58726 9.716 6.27526 9.464C5.96326 9.2 5.57326 8.984 5.10526 8.816C4.64926 8.636 4.14526 8.468 3.59326 8.312C3.05326 8.144 2.54926 7.916 2.08126 7.628C1.62526 7.34 1.24126 6.956 0.929258 6.476C0.617258 5.984 0.461258 5.324 0.461258 4.496C0.461258 4.124 0.539258 3.728 0.695258 3.308C0.863258 2.888 1.12126 2.504 1.46926 2.156C1.81726 1.808 2.26126 1.52 2.80126 1.292C3.35326 1.052 4.01326 0.932 4.78126 0.932C5.47726 0.932 6.14326 1.028 6.77926 1.22C7.41526 1.412 7.97326 1.802 8.45326 2.39L7.04926 3.668C6.83326 3.332 6.52726 3.062 6.13126 2.858C5.73526 2.654 5.28526 2.552 4.78126 2.552C4.30126 2.552 3.89926 2.618 3.57526 2.75C3.26326 2.87 3.01126 3.032 2.81926 3.236C2.62726 3.428 2.48926 3.638 2.40526 3.866C2.33326 4.094 2.29726 4.304 2.29726 4.496C2.29726 5.036 2.45326 5.45 2.76526 5.738C3.07726 6.026 3.46126 6.26 3.91726 6.44C4.38526 6.62 4.88926 6.782 5.42926 6.926C5.98126 7.07 6.48526 7.274 6.94126 7.538C7.40926 7.79 7.79926 8.138 8.11126 8.582C8.42326 9.014 8.57926 9.614 8.57926 10.382C8.57926 10.994 8.45926 11.546 8.21926 12.038C7.99126 12.53 7.67926 12.944 7.28326 13.28C6.88726 13.616 6.41926 13.874 5.87926 14.054C5.33926 14.234 4.76326 14.324 4.15126 14.324C3.33526 14.324 2.56126 14.18 1.82926 13.892C1.09726 13.604 0.515258 13.16 0.0832578 12.56L1.50526 11.336ZM12.0292 9.734C12.0292 10.166 12.0952 10.568 12.2272 10.94C12.3592 11.3 12.5452 11.612 12.7852 11.876C13.0252 12.128 13.3192 12.332 13.6672 12.488C14.0152 12.632 14.4052 12.704 14.8372 12.704C15.2692 12.704 15.6592 12.632 16.0072 12.488C16.3552 12.332 16.6492 12.128 16.8892 11.876C17.1292 11.612 17.3152 11.3 17.4472 10.94C17.5792 10.568 17.6452 10.166 17.6452 9.734C17.6452 9.302 17.5792 8.906 17.4472 8.546C17.3152 8.174 17.1292 7.862 16.8892 7.61C16.6492 7.346 16.3552 7.142 16.0072 6.998C15.6592 6.842 15.2692 6.764 14.8372 6.764C14.4052 6.764 14.0152 6.842 13.6672 6.998C13.3192 7.142 13.0252 7.346 12.7852 7.61C12.5452 7.862 12.3592 8.174 12.2272 8.546C12.0952 8.906 12.0292 9.302 12.0292 9.734ZM10.3012 9.734C10.3012 9.11 10.4152 8.528 10.6432 7.988C10.8832 7.448 11.2072 6.974 11.6152 6.566C12.0232 6.158 12.5032 5.84 13.0552 5.612C13.6072 5.372 14.2012 5.252 14.8372 5.252C15.4732 5.252 16.0672 5.372 16.6192 5.612C17.1712 5.84 17.6512 6.158 18.0592 6.566C18.4672 6.974 18.7852 7.448 19.0132 7.988C19.2532 8.528 19.3732 9.11 19.3732 9.734C19.3732 10.358 19.2532 10.946 19.0132 11.498C18.7852 12.038 18.4672 12.512 18.0592 12.92C17.6512 13.316 17.1712 13.634 16.6192 13.874C16.0672 14.102 15.4732 14.216 14.8372 14.216C14.2012 14.216 13.6072 14.102 13.0552 13.874C12.5032 13.634 12.0232 13.316 11.6152 12.92C11.2072 12.512 10.8832 12.038 10.6432 11.498C10.4152 10.946 10.3012 10.358 10.3012 9.734ZM21.4027 5.468H22.9147V6.8H22.9507C22.9867 6.68 23.0767 6.53 23.2207 6.35C23.3767 6.17 23.5687 6.002 23.7967 5.846C24.0367 5.678 24.3127 5.54 24.6247 5.432C24.9487 5.312 25.3027 5.252 25.6867 5.252C26.3227 5.252 26.8567 5.384 27.2887 5.648C27.7207 5.912 28.0747 6.308 28.3507 6.836C28.6267 6.308 29.0167 5.912 29.5207 5.648C30.0247 5.384 30.5347 5.252 31.0507 5.252C31.7107 5.252 32.2507 5.36 32.6707 5.576C33.0907 5.792 33.4207 6.08 33.6607 6.44C33.9007 6.788 34.0627 7.19 34.1467 7.646C34.2427 8.09 34.2907 8.552 34.2907 9.032V14H32.6707V9.248C32.6707 8.924 32.6467 8.612 32.5987 8.312C32.5627 8.012 32.4787 7.748 32.3467 7.52C32.2147 7.292 32.0287 7.112 31.7887 6.98C31.5487 6.836 31.2307 6.764 30.8347 6.764C30.0547 6.764 29.4967 7.004 29.1607 7.484C28.8247 7.964 28.6567 8.582 28.6567 9.338V14H27.0367V9.536C27.0367 9.128 27.0127 8.756 26.9647 8.42C26.9287 8.084 26.8447 7.796 26.7127 7.556C26.5927 7.304 26.4127 7.112 26.1727 6.98C25.9447 6.836 25.6327 6.764 25.2367 6.764C24.9487 6.764 24.6667 6.824 24.3907 6.944C24.1267 7.052 23.8927 7.22 23.6887 7.448C23.4847 7.676 23.3227 7.97 23.2027 8.33C23.0827 8.678 23.0227 9.092 23.0227 9.572V14H21.4027V5.468ZM37.9548 10.328C37.9548 10.7 38.0328 11.042 38.1888 11.354C38.3568 11.654 38.5728 11.912 38.8368 12.128C39.1008 12.344 39.4068 12.512 39.7548 12.632C40.1028 12.752 40.4628 12.812 40.8348 12.812C41.3388 12.812 41.7768 12.698 42.1488 12.47C42.5208 12.23 42.8628 11.918 43.1748 11.534L44.3988 12.47C43.4988 13.634 42.2388 14.216 40.6188 14.216C39.9468 14.216 39.3348 14.102 38.7828 13.874C38.2428 13.646 37.7808 13.334 37.3968 12.938C37.0248 12.53 36.7368 12.056 36.5328 11.516C36.3288 10.964 36.2268 10.37 36.2268 9.734C36.2268 9.098 36.3348 8.51 36.5508 7.97C36.7788 7.418 37.0848 6.944 37.4688 6.548C37.8648 6.14 38.3328 5.822 38.8728 5.594C39.4128 5.366 40.0008 5.252 40.6368 5.252C41.3928 5.252 42.0288 5.384 42.5448 5.648C43.0728 5.912 43.5048 6.26 43.8408 6.692C44.1768 7.112 44.4168 7.592 44.5608 8.132C44.7168 8.66 44.7948 9.2 44.7948 9.752V10.328H37.9548ZM43.0668 9.032C43.0548 8.672 42.9948 8.342 42.8868 8.042C42.7908 7.742 42.6408 7.484 42.4368 7.268C42.2328 7.04 41.9748 6.866 41.6628 6.746C41.3628 6.614 41.0088 6.548 40.6008 6.548C40.2048 6.548 39.8388 6.626 39.5028 6.782C39.1788 6.926 38.9028 7.118 38.6748 7.358C38.4468 7.598 38.2668 7.868 38.1348 8.168C38.0148 8.456 37.9548 8.744 37.9548 9.032H43.0668ZM53.0566 9.734C53.0566 10.166 53.1226 10.568 53.2546 10.94C53.3866 11.3 53.5726 11.612 53.8126 11.876C54.0526 12.128 54.3466 12.332 54.6946 12.488C55.0426 12.632 55.4326 12.704 55.8646 12.704C56.2966 12.704 56.6866 12.632 57.0346 12.488C57.3826 12.332 57.6766 12.128 57.9166 11.876C58.1566 11.612 58.3426 11.3 58.4746 10.94C58.6066 10.568 58.6726 10.166 58.6726 9.734C58.6726 9.302 58.6066 8.906 58.4746 8.546C58.3426 8.174 58.1566 7.862 57.9166 7.61C57.6766 7.346 57.3826 7.142 57.0346 6.998C56.6866 6.842 56.2966 6.764 55.8646 6.764C55.4326 6.764 55.0426 6.842 54.6946 6.998C54.3466 7.142 54.0526 7.346 53.8126 7.61C53.5726 7.862 53.3866 8.174 53.2546 8.546C53.1226 8.906 53.0566 9.302 53.0566 9.734ZM51.3286 9.734C51.3286 9.11 51.4426 8.528 51.6706 7.988C51.9106 7.448 52.2346 6.974 52.6426 6.566C53.0506 6.158 53.5306 5.84 54.0826 5.612C54.6346 5.372 55.2286 5.252 55.8646 5.252C56.5006 5.252 57.0946 5.372 57.6466 5.612C58.1986 5.84 58.6786 6.158 59.0866 6.566C59.4946 6.974 59.8126 7.448 60.0406 7.988C60.2806 8.528 60.4006 9.11 60.4006 9.734C60.4006 10.358 60.2806 10.946 60.0406 11.498C59.8126 12.038 59.4946 12.512 59.0866 12.92C58.6786 13.316 58.1986 13.634 57.6466 13.874C57.0946 14.102 56.5006 14.216 55.8646 14.216C55.2286 14.216 54.6346 14.102 54.0826 13.874C53.5306 13.634 53.0506 13.316 52.6426 12.92C52.2346 12.512 51.9106 12.038 51.6706 11.498C51.4426 10.946 51.3286 10.358 51.3286 9.734ZM63.0601 6.872H61.2241V5.468H63.0601V3.56C63.0601 2.42 63.2761 1.574 63.7081 1.022C64.1521 0.458 64.9081 0.176 65.9761 0.176C66.1561 0.176 66.3421 0.182 66.5341 0.194C66.7381 0.205999 66.9541 0.241999 67.1821 0.301999L67.0021 1.742C66.8461 1.682 66.6961 1.64 66.5521 1.616C66.4081 1.592 66.2521 1.58 66.0841 1.58C65.7841 1.58 65.5441 1.628 65.3641 1.724C65.1841 1.808 65.0401 1.934 64.9321 2.102C64.8361 2.27 64.7701 2.474 64.7341 2.714C64.7101 2.942 64.6981 3.206 64.6981 3.506V5.468H66.6241V6.872H64.6801V14H63.0601V6.872ZM78.006 6.872H75.684V10.742C75.684 10.982 75.69 11.222 75.702 11.462C75.714 11.69 75.756 11.9 75.828 12.092C75.912 12.272 76.032 12.422 76.188 12.542C76.356 12.65 76.596 12.704 76.908 12.704C77.1 12.704 77.298 12.686 77.502 12.65C77.706 12.614 77.892 12.548 78.06 12.452V13.928C77.868 14.036 77.616 14.108 77.304 14.144C77.004 14.192 76.77 14.216 76.602 14.216C75.978 14.216 75.492 14.132 75.144 13.964C74.808 13.784 74.556 13.556 74.388 13.28C74.232 13.004 74.136 12.698 74.1 12.362C74.076 12.014 74.064 11.666 74.064 11.318V6.872H72.192V5.468H74.064V3.074H75.684V5.468H78.006V6.872ZM80.0961 0.391999H81.7161V6.782H81.7521C81.9561 6.326 82.3101 5.96 82.8141 5.684C83.3181 5.396 83.9001 5.252 84.5601 5.252C84.9681 5.252 85.3581 5.318 85.7301 5.45C86.1141 5.57 86.4441 5.762 86.7201 6.026C87.0081 6.29 87.2361 6.632 87.4041 7.052C87.5721 7.46 87.6561 7.946 87.6561 8.51V14H86.0361V8.96C86.0361 8.564 85.9821 8.228 85.8741 7.952C85.7661 7.664 85.6221 7.436 85.4421 7.268C85.2621 7.088 85.0521 6.962 84.8121 6.89C84.5841 6.806 84.3441 6.764 84.0921 6.764C83.7561 6.764 83.4441 6.818 83.1561 6.926C82.8681 7.034 82.6161 7.208 82.4001 7.448C82.1841 7.676 82.0161 7.97 81.8961 8.33C81.7761 8.69 81.7161 9.116 81.7161 9.608V14H80.0961V0.391999ZM91.322 10.328C91.322 10.7 91.4 11.042 91.556 11.354C91.724 11.654 91.94 11.912 92.204 12.128C92.468 12.344 92.774 12.512 93.122 12.632C93.47 12.752 93.83 12.812 94.202 12.812C94.706 12.812 95.144 12.698 95.516 12.47C95.888 12.23 96.23 11.918 96.542 11.534L97.766 12.47C96.866 13.634 95.606 14.216 93.986 14.216C93.314 14.216 92.702 14.102 92.15 13.874C91.61 13.646 91.148 13.334 90.764 12.938C90.392 12.53 90.104 12.056 89.9 11.516C89.696 10.964 89.594 10.37 89.594 9.734C89.594 9.098 89.702 8.51 89.918 7.97C90.146 7.418 90.452 6.944 90.836 6.548C91.232 6.14 91.7 5.822 92.24 5.594C92.78 5.366 93.368 5.252 94.004 5.252C94.76 5.252 95.396 5.384 95.912 5.648C96.44 5.912 96.872 6.26 97.208 6.692C97.544 7.112 97.784 7.592 97.928 8.132C98.084 8.66 98.162 9.2 98.162 9.752V10.328H91.322ZM96.434 9.032C96.422 8.672 96.362 8.342 96.254 8.042C96.158 7.742 96.008 7.484 95.804 7.268C95.6 7.04 95.342 6.866 95.03 6.746C94.73 6.614 94.376 6.548 93.968 6.548C93.572 6.548 93.206 6.626 92.87 6.782C92.546 6.926 92.27 7.118 92.042 7.358C91.814 7.598 91.634 7.868 91.502 8.168C91.382 8.456 91.322 8.744 91.322 9.032H96.434ZM105.74 6.872H103.904V5.468H105.74V3.56C105.74 2.42 105.956 1.574 106.388 1.022C106.832 0.458 107.588 0.176 108.656 0.176C108.836 0.176 109.022 0.182 109.214 0.194C109.418 0.205999 109.634 0.241999 109.862 0.301999L109.682 1.742C109.526 1.682 109.376 1.64 109.232 1.616C109.088 1.592 108.932 1.58 108.764 1.58C108.464 1.58 108.224 1.628 108.044 1.724C107.864 1.808 107.72 1.934 107.612 2.102C107.516 2.27 107.45 2.474 107.414 2.714C107.39 2.942 107.378 3.206 107.378 3.506V5.468H109.304V6.872H107.36V14H105.74V6.872ZM112.328 10.328C112.328 10.7 112.406 11.042 112.562 11.354C112.73 11.654 112.946 11.912 113.21 12.128C113.474 12.344 113.78 12.512 114.128 12.632C114.476 12.752 114.836 12.812 115.208 12.812C115.712 12.812 116.15 12.698 116.522 12.47C116.894 12.23 117.236 11.918 117.548 11.534L118.772 12.47C117.872 13.634 116.612 14.216 114.992 14.216C114.32 14.216 113.708 14.102 113.156 13.874C112.616 13.646 112.154 13.334 111.77 12.938C111.398 12.53 111.11 12.056 110.906 11.516C110.702 10.964 110.6 10.37 110.6 9.734C110.6 9.098 110.708 8.51 110.924 7.97C111.152 7.418 111.458 6.944 111.842 6.548C112.238 6.14 112.706 5.822 113.246 5.594C113.786 5.366 114.374 5.252 115.01 5.252C115.766 5.252 116.402 5.384 116.918 5.648C117.446 5.912 117.878 6.26 118.214 6.692C118.55 7.112 118.79 7.592 118.934 8.132C119.09 8.66 119.168 9.2 119.168 9.752V10.328H112.328ZM117.44 9.032C117.428 8.672 117.368 8.342 117.26 8.042C117.164 7.742 117.014 7.484 116.81 7.268C116.606 7.04 116.348 6.866 116.036 6.746C115.736 6.614 115.382 6.548 114.974 6.548C114.578 6.548 114.212 6.626 113.876 6.782C113.552 6.926 113.276 7.118 113.048 7.358C112.82 7.598 112.64 7.868 112.508 8.168C112.388 8.456 112.328 8.744 112.328 9.032H117.44ZM121.142 6.512C121.598 6.092 122.126 5.78 122.726 5.576C123.326 5.36 123.926 5.252 124.526 5.252C125.15 5.252 125.684 5.33 126.128 5.486C126.584 5.642 126.956 5.852 127.244 6.116C127.532 6.38 127.742 6.686 127.874 7.034C128.018 7.37 128.09 7.724 128.09 8.096V12.452C128.09 12.752 128.096 13.028 128.108 13.28C128.12 13.532 128.138 13.772 128.162 14H126.722C126.686 13.568 126.668 13.136 126.668 12.704H126.632C126.272 13.256 125.846 13.646 125.354 13.874C124.862 14.102 124.292 14.216 123.644 14.216C123.248 14.216 122.87 14.162 122.51 14.054C122.15 13.946 121.832 13.784 121.556 13.568C121.292 13.352 121.082 13.088 120.926 12.776C120.77 12.452 120.692 12.08 120.692 11.66C120.692 11.108 120.812 10.646 121.052 10.274C121.304 9.902 121.64 9.602 122.06 9.374C122.492 9.134 122.99 8.966 123.554 8.87C124.13 8.762 124.742 8.708 125.39 8.708H126.578V8.348C126.578 8.132 126.536 7.916 126.452 7.7C126.368 7.484 126.242 7.292 126.074 7.124C125.906 6.944 125.696 6.806 125.444 6.71C125.192 6.602 124.892 6.548 124.544 6.548C124.232 6.548 123.956 6.578 123.716 6.638C123.488 6.698 123.278 6.776 123.086 6.872C122.894 6.956 122.72 7.058 122.564 7.178C122.408 7.298 122.258 7.412 122.114 7.52L121.142 6.512ZM125.714 9.896C125.33 9.896 124.934 9.92 124.526 9.968C124.13 10.004 123.764 10.082 123.428 10.202C123.104 10.322 122.834 10.49 122.618 10.706C122.414 10.922 122.312 11.198 122.312 11.534C122.312 12.026 122.474 12.38 122.798 12.596C123.134 12.812 123.584 12.92 124.148 12.92C124.592 12.92 124.97 12.848 125.282 12.704C125.594 12.548 125.846 12.35 126.038 12.11C126.23 11.87 126.368 11.606 126.452 11.318C126.536 11.018 126.578 10.724 126.578 10.436V9.896H125.714ZM135.012 6.872H132.69V10.742C132.69 10.982 132.696 11.222 132.708 11.462C132.72 11.69 132.762 11.9 132.834 12.092C132.918 12.272 133.038 12.422 133.194 12.542C133.362 12.65 133.602 12.704 133.914 12.704C134.106 12.704 134.304 12.686 134.508 12.65C134.712 12.614 134.898 12.548 135.066 12.452V13.928C134.874 14.036 134.622 14.108 134.31 14.144C134.01 14.192 133.776 14.216 133.608 14.216C132.984 14.216 132.498 14.132 132.15 13.964C131.814 13.784 131.562 13.556 131.394 13.28C131.238 13.004 131.142 12.698 131.106 12.362C131.082 12.014 131.07 11.666 131.07 11.318V6.872H129.198V5.468H131.07V3.074H132.69V5.468H135.012V6.872ZM144.662 14H143.042V12.686H143.006C142.802 13.142 142.448 13.514 141.944 13.802C141.44 14.078 140.858 14.216 140.198 14.216C139.778 14.216 139.382 14.15 139.01 14.018C138.638 13.898 138.308 13.706 138.02 13.442C137.744 13.178 137.522 12.842 137.354 12.434C137.186 12.014 137.102 11.522 137.102 10.958V5.468H138.722V10.508C138.722 10.904 138.776 11.246 138.884 11.534C138.992 11.81 139.136 12.038 139.316 12.218C139.496 12.386 139.7 12.512 139.928 12.596C140.168 12.668 140.414 12.704 140.666 12.704C141.002 12.704 141.314 12.65 141.602 12.542C141.89 12.434 142.142 12.266 142.358 12.038C142.574 11.798 142.742 11.498 142.862 11.138C142.982 10.778 143.042 10.352 143.042 9.86V5.468H144.662V14ZM147.104 5.468H148.724V6.782H148.76C148.868 6.554 149.012 6.35 149.192 6.17C149.372 5.978 149.57 5.816 149.786 5.684C150.014 5.552 150.26 5.45 150.524 5.378C150.788 5.294 151.052 5.252 151.316 5.252C151.58 5.252 151.82 5.288 152.036 5.36L151.964 7.106C151.832 7.07 151.7 7.04 151.568 7.016C151.436 6.992 151.304 6.98 151.172 6.98C150.38 6.98 149.774 7.202 149.354 7.646C148.934 8.09 148.724 8.78 148.724 9.716V14H147.104V5.468ZM154.674 10.328C154.674 10.7 154.752 11.042 154.908 11.354C155.076 11.654 155.292 11.912 155.556 12.128C155.82 12.344 156.126 12.512 156.474 12.632C156.822 12.752 157.182 12.812 157.554 12.812C158.058 12.812 158.496 12.698 158.868 12.47C159.24 12.23 159.582 11.918 159.894 11.534L161.118 12.47C160.218 13.634 158.958 14.216 157.338 14.216C156.666 14.216 156.054 14.102 155.502 13.874C154.962 13.646 154.5 13.334 154.116 12.938C153.744 12.53 153.456 12.056 153.252 11.516C153.048 10.964 152.946 10.37 152.946 9.734C152.946 9.098 153.054 8.51 153.27 7.97C153.498 7.418 153.804 6.944 154.188 6.548C154.584 6.14 155.052 5.822 155.592 5.594C156.132 5.366 156.72 5.252 157.356 5.252C158.112 5.252 158.748 5.384 159.264 5.648C159.792 5.912 160.224 6.26 160.56 6.692C160.896 7.112 161.136 7.592 161.28 8.132C161.436 8.66 161.514 9.2 161.514 9.752V10.328H154.674ZM159.786 9.032C159.774 8.672 159.714 8.342 159.606 8.042C159.51 7.742 159.36 7.484 159.156 7.268C158.952 7.04 158.694 6.866 158.382 6.746C158.082 6.614 157.728 6.548 157.32 6.548C156.924 6.548 156.558 6.626 156.222 6.782C155.898 6.926 155.622 7.118 155.394 7.358C155.166 7.598 154.986 7.868 154.854 8.168C154.734 8.456 154.674 8.744 154.674 9.032H159.786ZM167.988 7.61C167.796 7.37 167.556 7.172 167.268 7.016C166.992 6.848 166.65 6.764 166.242 6.764C165.858 6.764 165.522 6.848 165.234 7.016C164.958 7.172 164.82 7.406 164.82 7.718C164.82 7.97 164.898 8.174 165.054 8.33C165.222 8.486 165.414 8.612 165.63 8.708C165.858 8.804 166.098 8.876 166.35 8.924C166.602 8.972 166.818 9.014 166.998 9.05C167.346 9.134 167.67 9.236 167.97 9.356C168.282 9.476 168.546 9.632 168.762 9.824C168.99 10.016 169.164 10.25 169.284 10.526C169.416 10.802 169.482 11.138 169.482 11.534C169.482 12.014 169.38 12.428 169.176 12.776C168.972 13.112 168.708 13.388 168.384 13.604C168.06 13.82 167.688 13.976 167.268 14.072C166.86 14.168 166.446 14.216 166.026 14.216C165.318 14.216 164.694 14.108 164.154 13.892C163.626 13.676 163.152 13.28 162.732 12.704L163.956 11.696C164.22 11.96 164.514 12.194 164.838 12.398C165.162 12.602 165.558 12.704 166.026 12.704C166.23 12.704 166.434 12.686 166.638 12.65C166.854 12.602 167.04 12.536 167.196 12.452C167.364 12.356 167.496 12.242 167.592 12.11C167.7 11.966 167.754 11.804 167.754 11.624C167.754 11.384 167.676 11.186 167.52 11.03C167.376 10.874 167.196 10.754 166.98 10.67C166.776 10.574 166.554 10.502 166.314 10.454C166.086 10.394 165.882 10.346 165.702 10.31C165.354 10.226 165.024 10.13 164.712 10.022C164.4 9.914 164.124 9.77 163.884 9.59C163.644 9.41 163.452 9.182 163.308 8.906C163.164 8.63 163.092 8.288 163.092 7.88C163.092 7.436 163.182 7.052 163.362 6.728C163.554 6.392 163.8 6.116 164.1 5.9C164.412 5.684 164.76 5.522 165.144 5.414C165.54 5.306 165.936 5.252 166.332 5.252C166.908 5.252 167.46 5.36 167.988 5.576C168.516 5.792 168.936 6.152 169.248 6.656L167.988 7.61ZM176.495 6.512C176.951 6.092 177.479 5.78 178.079 5.576C178.679 5.36 179.279 5.252 179.879 5.252C180.503 5.252 181.037 5.33 181.481 5.486C181.937 5.642 182.309 5.852 182.597 6.116C182.885 6.38 183.095 6.686 183.227 7.034C183.371 7.37 183.443 7.724 183.443 8.096V12.452C183.443 12.752 183.449 13.028 183.461 13.28C183.473 13.532 183.491 13.772 183.515 14H182.075C182.039 13.568 182.021 13.136 182.021 12.704H181.985C181.625 13.256 181.199 13.646 180.707 13.874C180.215 14.102 179.645 14.216 178.997 14.216C178.601 14.216 178.223 14.162 177.863 14.054C177.503 13.946 177.185 13.784 176.909 13.568C176.645 13.352 176.435 13.088 176.279 12.776C176.123 12.452 176.045 12.08 176.045 11.66C176.045 11.108 176.165 10.646 176.405 10.274C176.657 9.902 176.993 9.602 177.413 9.374C177.845 9.134 178.343 8.966 178.907 8.87C179.483 8.762 180.095 8.708 180.743 8.708H181.931V8.348C181.931 8.132 181.889 7.916 181.805 7.7C181.721 7.484 181.595 7.292 181.427 7.124C181.259 6.944 181.049 6.806 180.797 6.71C180.545 6.602 180.245 6.548 179.897 6.548C179.585 6.548 179.309 6.578 179.069 6.638C178.841 6.698 178.631 6.776 178.439 6.872C178.247 6.956 178.073 7.058 177.917 7.178C177.761 7.298 177.611 7.412 177.467 7.52L176.495 6.512ZM181.067 9.896C180.683 9.896 180.287 9.92 179.879 9.968C179.483 10.004 179.117 10.082 178.781 10.202C178.457 10.322 178.187 10.49 177.971 10.706C177.767 10.922 177.665 11.198 177.665 11.534C177.665 12.026 177.827 12.38 178.151 12.596C178.487 12.812 178.937 12.92 179.501 12.92C179.945 12.92 180.323 12.848 180.635 12.704C180.947 12.548 181.199 12.35 181.391 12.11C181.583 11.87 181.721 11.606 181.805 11.318C181.889 11.018 181.931 10.724 181.931 10.436V9.896H181.067ZM185.793 5.468H187.413V6.782H187.449C187.653 6.326 188.007 5.96 188.511 5.684C189.015 5.396 189.597 5.252 190.257 5.252C190.665 5.252 191.055 5.318 191.427 5.45C191.811 5.57 192.141 5.762 192.417 6.026C192.705 6.29 192.933 6.632 193.101 7.052C193.269 7.46 193.353 7.946 193.353 8.51V14H191.733V8.96C191.733 8.564 191.679 8.228 191.571 7.952C191.463 7.664 191.319 7.436 191.139 7.268C190.959 7.088 190.749 6.962 190.509 6.89C190.281 6.806 190.041 6.764 189.789 6.764C189.453 6.764 189.141 6.818 188.853 6.926C188.565 7.034 188.313 7.208 188.097 7.448C187.881 7.676 187.713 7.97 187.593 8.33C187.473 8.69 187.413 9.116 187.413 9.608V14H185.793V5.468ZM204.345 14H202.725V12.776H202.689C202.377 13.232 201.945 13.586 201.393 13.838C200.853 14.09 200.295 14.216 199.719 14.216C199.059 14.216 198.459 14.102 197.919 13.874C197.391 13.646 196.935 13.328 196.551 12.92C196.179 12.512 195.891 12.038 195.687 11.498C195.483 10.958 195.381 10.37 195.381 9.734C195.381 9.098 195.483 8.51 195.687 7.97C195.891 7.418 196.179 6.944 196.551 6.548C196.935 6.14 197.391 5.822 197.919 5.594C198.459 5.366 199.059 5.252 199.719 5.252C200.331 5.252 200.907 5.384 201.447 5.648C201.987 5.9 202.401 6.248 202.689 6.692H202.725V0.391999H204.345V14ZM199.917 12.704C200.349 12.704 200.739 12.632 201.087 12.488C201.435 12.332 201.729 12.128 201.969 11.876C202.209 11.612 202.395 11.3 202.527 10.94C202.659 10.568 202.725 10.166 202.725 9.734C202.725 9.302 202.659 8.906 202.527 8.546C202.395 8.174 202.209 7.862 201.969 7.61C201.729 7.346 201.435 7.142 201.087 6.998C200.739 6.842 200.349 6.764 199.917 6.764C199.485 6.764 199.095 6.842 198.747 6.998C198.399 7.142 198.105 7.346 197.865 7.61C197.625 7.862 197.439 8.174 197.307 8.546C197.175 8.906 197.109 9.302 197.109 9.734C197.109 10.166 197.175 10.568 197.307 10.94C197.439 11.3 197.625 11.612 197.865 11.876C198.105 12.128 198.399 12.332 198.747 12.488C199.095 12.632 199.485 12.704 199.917 12.704ZM211.845 6.512C212.301 6.092 212.829 5.78 213.429 5.576C214.029 5.36 214.629 5.252 215.229 5.252C215.853 5.252 216.387 5.33 216.831 5.486C217.287 5.642 217.659 5.852 217.947 6.116C218.235 6.38 218.445 6.686 218.577 7.034C218.721 7.37 218.793 7.724 218.793 8.096V12.452C218.793 12.752 218.799 13.028 218.811 13.28C218.823 13.532 218.841 13.772 218.865 14H217.425C217.389 13.568 217.371 13.136 217.371 12.704H217.335C216.975 13.256 216.549 13.646 216.057 13.874C215.565 14.102 214.995 14.216 214.347 14.216C213.951 14.216 213.573 14.162 213.213 14.054C212.853 13.946 212.535 13.784 212.259 13.568C211.995 13.352 211.785 13.088 211.629 12.776C211.473 12.452 211.395 12.08 211.395 11.66C211.395 11.108 211.515 10.646 211.755 10.274C212.007 9.902 212.343 9.602 212.763 9.374C213.195 9.134 213.693 8.966 214.257 8.87C214.833 8.762 215.445 8.708 216.093 8.708H217.281V8.348C217.281 8.132 217.239 7.916 217.155 7.7C217.071 7.484 216.945 7.292 216.777 7.124C216.609 6.944 216.399 6.806 216.147 6.71C215.895 6.602 215.595 6.548 215.247 6.548C214.935 6.548 214.659 6.578 214.419 6.638C214.191 6.698 213.981 6.776 213.789 6.872C213.597 6.956 213.423 7.058 213.267 7.178C213.111 7.298 212.961 7.412 212.817 7.52L211.845 6.512ZM216.417 9.896C216.033 9.896 215.637 9.92 215.229 9.968C214.833 10.004 214.467 10.082 214.131 10.202C213.807 10.322 213.537 10.49 213.321 10.706C213.117 10.922 213.015 11.198 213.015 11.534C213.015 12.026 213.177 12.38 213.501 12.596C213.837 12.812 214.287 12.92 214.851 12.92C215.295 12.92 215.673 12.848 215.985 12.704C216.297 12.548 216.549 12.35 216.741 12.11C216.933 11.87 217.071 11.606 217.155 11.318C217.239 11.018 217.281 10.724 217.281 10.436V9.896H216.417ZM229.693 14H228.073V12.776H228.037C227.725 13.232 227.293 13.586 226.741 13.838C226.201 14.09 225.643 14.216 225.067 14.216C224.407 14.216 223.807 14.102 223.267 13.874C222.739 13.646 222.283 13.328 221.899 12.92C221.527 12.512 221.239 12.038 221.035 11.498C220.831 10.958 220.729 10.37 220.729 9.734C220.729 9.098 220.831 8.51 221.035 7.97C221.239 7.418 221.527 6.944 221.899 6.548C222.283 6.14 222.739 5.822 223.267 5.594C223.807 5.366 224.407 5.252 225.067 5.252C225.679 5.252 226.255 5.384 226.795 5.648C227.335 5.9 227.749 6.248 228.037 6.692H228.073V0.391999H229.693V14ZM225.265 12.704C225.697 12.704 226.087 12.632 226.435 12.488C226.783 12.332 227.077 12.128 227.317 11.876C227.557 11.612 227.743 11.3 227.875 10.94C228.007 10.568 228.073 10.166 228.073 9.734C228.073 9.302 228.007 8.906 227.875 8.546C227.743 8.174 227.557 7.862 227.317 7.61C227.077 7.346 226.783 7.142 226.435 6.998C226.087 6.842 225.697 6.764 225.265 6.764C224.833 6.764 224.443 6.842 224.095 6.998C223.747 7.142 223.453 7.346 223.213 7.61C222.973 7.862 222.787 8.174 222.655 8.546C222.523 8.906 222.457 9.302 222.457 9.734C222.457 10.166 222.523 10.568 222.655 10.94C222.787 11.3 222.973 11.612 223.213 11.876C223.453 12.128 223.747 12.332 224.095 12.488C224.443 12.632 224.833 12.704 225.265 12.704ZM231.121 5.468H232.993L235.549 12.002L237.997 5.468H239.725L236.377 14H234.595L231.121 5.468ZM241.183 6.512C241.639 6.092 242.167 5.78 242.767 5.576C243.367 5.36 243.967 5.252 244.567 5.252C245.191 5.252 245.725 5.33 246.169 5.486C246.625 5.642 246.997 5.852 247.285 6.116C247.573 6.38 247.783 6.686 247.915 7.034C248.059 7.37 248.131 7.724 248.131 8.096V12.452C248.131 12.752 248.137 13.028 248.149 13.28C248.161 13.532 248.179 13.772 248.203 14H246.763C246.727 13.568 246.709 13.136 246.709 12.704H246.673C246.313 13.256 245.887 13.646 245.395 13.874C244.903 14.102 244.333 14.216 243.685 14.216C243.289 14.216 242.911 14.162 242.551 14.054C242.191 13.946 241.873 13.784 241.597 13.568C241.333 13.352 241.123 13.088 240.967 12.776C240.811 12.452 240.733 12.08 240.733 11.66C240.733 11.108 240.853 10.646 241.093 10.274C241.345 9.902 241.681 9.602 242.101 9.374C242.533 9.134 243.031 8.966 243.595 8.87C244.171 8.762 244.783 8.708 245.431 8.708H246.619V8.348C246.619 8.132 246.577 7.916 246.493 7.7C246.409 7.484 246.283 7.292 246.115 7.124C245.947 6.944 245.737 6.806 245.485 6.71C245.233 6.602 244.933 6.548 244.585 6.548C244.273 6.548 243.997 6.578 243.757 6.638C243.529 6.698 243.319 6.776 243.127 6.872C242.935 6.956 242.761 7.058 242.605 7.178C242.449 7.298 242.299 7.412 242.155 7.52L241.183 6.512ZM245.755 9.896C245.371 9.896 244.975 9.92 244.567 9.968C244.171 10.004 243.805 10.082 243.469 10.202C243.145 10.322 242.875 10.49 242.659 10.706C242.455 10.922 242.353 11.198 242.353 11.534C242.353 12.026 242.515 12.38 242.839 12.596C243.175 12.812 243.625 12.92 244.189 12.92C244.633 12.92 245.011 12.848 245.323 12.704C245.635 12.548 245.887 12.35 246.079 12.11C246.271 11.87 246.409 11.606 246.493 11.318C246.577 11.018 246.619 10.724 246.619 10.436V9.896H245.755ZM250.481 5.468H252.101V6.782H252.137C252.341 6.326 252.695 5.96 253.199 5.684C253.703 5.396 254.285 5.252 254.945 5.252C255.353 5.252 255.743 5.318 256.115 5.45C256.499 5.57 256.829 5.762 257.105 6.026C257.393 6.29 257.621 6.632 257.789 7.052C257.957 7.46 258.041 7.946 258.041 8.51V14H256.421V8.96C256.421 8.564 256.367 8.228 256.259 7.952C256.151 7.664 256.007 7.436 255.827 7.268C255.647 7.088 255.437 6.962 255.197 6.89C254.969 6.806 254.729 6.764 254.477 6.764C254.141 6.764 253.829 6.818 253.541 6.926C253.253 7.034 253.001 7.208 252.785 7.448C252.569 7.676 252.401 7.97 252.281 8.33C252.161 8.69 252.101 9.116 252.101 9.608V14H250.481V5.468ZM265.055 6.872H262.733V10.742C262.733 10.982 262.739 11.222 262.751 11.462C262.763 11.69 262.805 11.9 262.877 12.092C262.961 12.272 263.081 12.422 263.237 12.542C263.405 12.65 263.645 12.704 263.957 12.704C264.149 12.704 264.347 12.686 264.551 12.65C264.755 12.614 264.941 12.548 265.109 12.452V13.928C264.917 14.036 264.665 14.108 264.353 14.144C264.053 14.192 263.819 14.216 263.651 14.216C263.027 14.216 262.541 14.132 262.193 13.964C261.857 13.784 261.605 13.556 261.437 13.28C261.281 13.004 261.185 12.698 261.149 12.362C261.125 12.014 261.113 11.666 261.113 11.318V6.872H259.241V5.468H261.113V3.074H262.733V5.468H265.055V6.872ZM267.181 6.512C267.637 6.092 268.165 5.78 268.765 5.576C269.365 5.36 269.965 5.252 270.565 5.252C271.189 5.252 271.723 5.33 272.167 5.486C272.623 5.642 272.995 5.852 273.283 6.116C273.571 6.38 273.781 6.686 273.913 7.034C274.057 7.37 274.129 7.724 274.129 8.096V12.452C274.129 12.752 274.135 13.028 274.147 13.28C274.159 13.532 274.177 13.772 274.201 14H272.761C272.725 13.568 272.707 13.136 272.707 12.704H272.671C272.311 13.256 271.885 13.646 271.393 13.874C270.901 14.102 270.331 14.216 269.683 14.216C269.287 14.216 268.909 14.162 268.549 14.054C268.189 13.946 267.871 13.784 267.595 13.568C267.331 13.352 267.121 13.088 266.965 12.776C266.809 12.452 266.731 12.08 266.731 11.66C266.731 11.108 266.851 10.646 267.091 10.274C267.343 9.902 267.679 9.602 268.099 9.374C268.531 9.134 269.029 8.966 269.593 8.87C270.169 8.762 270.781 8.708 271.429 8.708H272.617V8.348C272.617 8.132 272.575 7.916 272.491 7.7C272.407 7.484 272.281 7.292 272.113 7.124C271.945 6.944 271.735 6.806 271.483 6.71C271.231 6.602 270.931 6.548 270.583 6.548C270.271 6.548 269.995 6.578 269.755 6.638C269.527 6.698 269.317 6.776 269.125 6.872C268.933 6.956 268.759 7.058 268.603 7.178C268.447 7.298 268.297 7.412 268.153 7.52L267.181 6.512ZM271.753 9.896C271.369 9.896 270.973 9.92 270.565 9.968C270.169 10.004 269.803 10.082 269.467 10.202C269.143 10.322 268.873 10.49 268.657 10.706C268.453 10.922 268.351 11.198 268.351 11.534C268.351 12.026 268.513 12.38 268.837 12.596C269.173 12.812 269.623 12.92 270.187 12.92C270.631 12.92 271.009 12.848 271.321 12.704C271.633 12.548 271.885 12.35 272.077 12.11C272.269 11.87 272.407 11.606 272.491 11.318C272.575 11.018 272.617 10.724 272.617 10.436V9.896H271.753ZM285.029 13.928C285.029 14.576 284.915 15.164 284.687 15.692C284.471 16.232 284.159 16.694 283.751 17.078C283.343 17.474 282.851 17.78 282.275 17.996C281.699 18.212 281.063 18.32 280.367 18.32C279.551 18.32 278.801 18.206 278.117 17.978C277.445 17.75 276.803 17.354 276.191 16.79L277.289 15.422C277.709 15.878 278.165 16.22 278.657 16.448C279.149 16.688 279.707 16.808 280.331 16.808C280.931 16.808 281.429 16.718 281.825 16.538C282.221 16.37 282.533 16.148 282.761 15.872C283.001 15.596 283.169 15.278 283.265 14.918C283.361 14.57 283.409 14.216 283.409 13.856V12.596H283.355C283.043 13.112 282.617 13.496 282.077 13.748C281.549 13.988 280.991 14.108 280.403 14.108C279.779 14.108 279.197 14 278.657 13.784C278.129 13.556 277.673 13.25 277.289 12.866C276.905 12.47 276.605 12.008 276.389 11.48C276.173 10.94 276.065 10.358 276.065 9.734C276.065 9.11 276.167 8.528 276.371 7.988C276.575 7.436 276.863 6.956 277.235 6.548C277.619 6.14 278.075 5.822 278.603 5.594C279.143 5.366 279.743 5.252 280.403 5.252C280.979 5.252 281.537 5.378 282.077 5.63C282.629 5.882 283.061 6.236 283.373 6.692H283.409V5.468H285.029V13.928ZM280.601 6.764C280.169 6.764 279.779 6.842 279.431 6.998C279.083 7.142 278.789 7.346 278.549 7.61C278.309 7.862 278.123 8.174 277.991 8.546C277.859 8.906 277.793 9.302 277.793 9.734C277.793 10.598 278.045 11.294 278.549 11.822C279.053 12.338 279.737 12.596 280.601 12.596C281.465 12.596 282.149 12.338 282.653 11.822C283.157 11.294 283.409 10.598 283.409 9.734C283.409 9.302 283.343 8.906 283.211 8.546C283.079 8.174 282.893 7.862 282.653 7.61C282.413 7.346 282.119 7.142 281.771 6.998C281.423 6.842 281.033 6.764 280.601 6.764ZM288.707 10.328C288.707 10.7 288.785 11.042 288.941 11.354C289.109 11.654 289.325 11.912 289.589 12.128C289.853 12.344 290.159 12.512 290.507 12.632C290.855 12.752 291.215 12.812 291.587 12.812C292.091 12.812 292.529 12.698 292.901 12.47C293.273 12.23 293.615 11.918 293.927 11.534L295.151 12.47C294.251 13.634 292.991 14.216 291.371 14.216C290.699 14.216 290.087 14.102 289.535 13.874C288.995 13.646 288.533 13.334 288.149 12.938C287.777 12.53 287.489 12.056 287.285 11.516C287.081 10.964 286.979 10.37 286.979 9.734C286.979 9.098 287.087 8.51 287.303 7.97C287.531 7.418 287.837 6.944 288.221 6.548C288.617 6.14 289.085 5.822 289.625 5.594C290.165 5.366 290.753 5.252 291.389 5.252C292.145 5.252 292.781 5.384 293.297 5.648C293.825 5.912 294.257 6.26 294.593 6.692C294.929 7.112 295.169 7.592 295.313 8.132C295.469 8.66 295.547 9.2 295.547 9.752V10.328H288.707ZM293.819 9.032C293.807 8.672 293.747 8.342 293.639 8.042C293.543 7.742 293.393 7.484 293.189 7.268C292.985 7.04 292.727 6.866 292.415 6.746C292.115 6.614 291.761 6.548 291.353 6.548C290.957 6.548 290.591 6.626 290.255 6.782C289.931 6.926 289.655 7.118 289.427 7.358C289.199 7.598 289.019 7.868 288.887 8.168C288.767 8.456 288.707 8.744 288.707 9.032H293.819ZM302.021 7.61C301.829 7.37 301.589 7.172 301.301 7.016C301.025 6.848 300.683 6.764 300.275 6.764C299.891 6.764 299.555 6.848 299.267 7.016C298.991 7.172 298.853 7.406 298.853 7.718C298.853 7.97 298.931 8.174 299.087 8.33C299.255 8.486 299.447 8.612 299.663 8.708C299.891 8.804 300.131 8.876 300.383 8.924C300.635 8.972 300.851 9.014 301.031 9.05C301.379 9.134 301.703 9.236 302.003 9.356C302.315 9.476 302.579 9.632 302.795 9.824C303.023 10.016 303.197 10.25 303.317 10.526C303.449 10.802 303.515 11.138 303.515 11.534C303.515 12.014 303.413 12.428 303.209 12.776C303.005 13.112 302.741 13.388 302.417 13.604C302.093 13.82 301.721 13.976 301.301 14.072C300.893 14.168 300.479 14.216 300.059 14.216C299.351 14.216 298.727 14.108 298.187 13.892C297.659 13.676 297.185 13.28 296.765 12.704L297.989 11.696C298.253 11.96 298.547 12.194 298.871 12.398C299.195 12.602 299.591 12.704 300.059 12.704C300.263 12.704 300.467 12.686 300.671 12.65C300.887 12.602 301.073 12.536 301.229 12.452C301.397 12.356 301.529 12.242 301.625 12.11C301.733 11.966 301.787 11.804 301.787 11.624C301.787 11.384 301.709 11.186 301.553 11.03C301.409 10.874 301.229 10.754 301.013 10.67C300.809 10.574 300.587 10.502 300.347 10.454C300.119 10.394 299.915 10.346 299.735 10.31C299.387 10.226 299.057 10.13 298.745 10.022C298.433 9.914 298.157 9.77 297.917 9.59C297.677 9.41 297.485 9.182 297.341 8.906C297.197 8.63 297.125 8.288 297.125 7.88C297.125 7.436 297.215 7.052 297.395 6.728C297.587 6.392 297.833 6.116 298.133 5.9C298.445 5.684 298.793 5.522 299.177 5.414C299.573 5.306 299.969 5.252 300.365 5.252C300.941 5.252 301.493 5.36 302.021 5.576C302.549 5.792 302.969 6.152 303.281 6.656L302.021 7.61ZM315.065 6.872H312.743V10.742C312.743 10.982 312.749 11.222 312.761 11.462C312.773 11.69 312.815 11.9 312.887 12.092C312.971 12.272 313.091 12.422 313.247 12.542C313.415 12.65 313.655 12.704 313.967 12.704C314.159 12.704 314.357 12.686 314.561 12.65C314.765 12.614 314.951 12.548 315.119 12.452V13.928C314.927 14.036 314.675 14.108 314.363 14.144C314.063 14.192 313.829 14.216 313.661 14.216C313.037 14.216 312.551 14.132 312.203 13.964C311.867 13.784 311.615 13.556 311.447 13.28C311.291 13.004 311.195 12.698 311.159 12.362C311.135 12.014 311.123 11.666 311.123 11.318V6.872H309.251V5.468H311.123V3.074H312.743V5.468H315.065V6.872ZM317.155 0.391999H318.775V6.782H318.811C319.015 6.326 319.369 5.96 319.873 5.684C320.377 5.396 320.959 5.252 321.619 5.252C322.027 5.252 322.417 5.318 322.789 5.45C323.173 5.57 323.503 5.762 323.779 6.026C324.067 6.29 324.295 6.632 324.463 7.052C324.631 7.46 324.715 7.946 324.715 8.51V14H323.095V8.96C323.095 8.564 323.041 8.228 322.933 7.952C322.825 7.664 322.681 7.436 322.501 7.268C322.321 7.088 322.111 6.962 321.871 6.89C321.643 6.806 321.403 6.764 321.151 6.764C320.815 6.764 320.503 6.818 320.215 6.926C319.927 7.034 319.675 7.208 319.459 7.448C319.243 7.676 319.075 7.97 318.955 8.33C318.835 8.69 318.775 9.116 318.775 9.608V14H317.155V0.391999ZM327.193 6.512C327.649 6.092 328.177 5.78 328.777 5.576C329.377 5.36 329.977 5.252 330.577 5.252C331.201 5.252 331.735 5.33 332.179 5.486C332.635 5.642 333.007 5.852 333.295 6.116C333.583 6.38 333.793 6.686 333.925 7.034C334.069 7.37 334.141 7.724 334.141 8.096V12.452C334.141 12.752 334.147 13.028 334.159 13.28C334.171 13.532 334.189 13.772 334.213 14H332.773C332.737 13.568 332.719 13.136 332.719 12.704H332.683C332.323 13.256 331.897 13.646 331.405 13.874C330.913 14.102 330.343 14.216 329.695 14.216C329.299 14.216 328.921 14.162 328.561 14.054C328.201 13.946 327.883 13.784 327.607 13.568C327.343 13.352 327.133 13.088 326.977 12.776C326.821 12.452 326.743 12.08 326.743 11.66C326.743 11.108 326.863 10.646 327.103 10.274C327.355 9.902 327.691 9.602 328.111 9.374C328.543 9.134 329.041 8.966 329.605 8.87C330.181 8.762 330.793 8.708 331.441 8.708H332.629V8.348C332.629 8.132 332.587 7.916 332.503 7.7C332.419 7.484 332.293 7.292 332.125 7.124C331.957 6.944 331.747 6.806 331.495 6.71C331.243 6.602 330.943 6.548 330.595 6.548C330.283 6.548 330.007 6.578 329.767 6.638C329.539 6.698 329.329 6.776 329.137 6.872C328.945 6.956 328.771 7.058 328.615 7.178C328.459 7.298 328.309 7.412 328.165 7.52L327.193 6.512ZM331.765 9.896C331.381 9.896 330.985 9.92 330.577 9.968C330.181 10.004 329.815 10.082 329.479 10.202C329.155 10.322 328.885 10.49 328.669 10.706C328.465 10.922 328.363 11.198 328.363 11.534C328.363 12.026 328.525 12.38 328.849 12.596C329.185 12.812 329.635 12.92 330.199 12.92C330.643 12.92 331.021 12.848 331.333 12.704C331.645 12.548 331.897 12.35 332.089 12.11C332.281 11.87 332.419 11.606 332.503 11.318C332.587 11.018 332.629 10.724 332.629 10.436V9.896H331.765ZM341.063 6.872H338.741V10.742C338.741 10.982 338.747 11.222 338.759 11.462C338.771 11.69 338.813 11.9 338.885 12.092C338.969 12.272 339.089 12.422 339.245 12.542C339.413 12.65 339.653 12.704 339.965 12.704C340.157 12.704 340.355 12.686 340.559 12.65C340.763 12.614 340.949 12.548 341.117 12.452V13.928C340.925 14.036 340.673 14.108 340.361 14.144C340.061 14.192 339.827 14.216 339.659 14.216C339.035 14.216 338.549 14.132 338.201 13.964C337.865 13.784 337.613 13.556 337.445 13.28C337.289 13.004 337.193 12.698 337.157 12.362C337.133 12.014 337.121 11.666 337.121 11.318V6.872H335.249V5.468H337.121V3.074H338.741V5.468H341.063V6.872ZM347.136 5.468H348.954L350.88 11.84H350.916L352.95 5.468H354.66L356.82 11.84H356.856L358.692 5.468H360.402L357.648 14H356.01L353.76 7.628H353.724L351.69 14H349.944L347.136 5.468ZM363.045 10.328C363.045 10.7 363.123 11.042 363.279 11.354C363.447 11.654 363.663 11.912 363.927 12.128C364.191 12.344 364.497 12.512 364.845 12.632C365.193 12.752 365.553 12.812 365.925 12.812C366.429 12.812 366.867 12.698 367.239 12.47C367.611 12.23 367.953 11.918 368.265 11.534L369.489 12.47C368.589 13.634 367.329 14.216 365.709 14.216C365.037 14.216 364.425 14.102 363.873 13.874C363.333 13.646 362.871 13.334 362.487 12.938C362.115 12.53 361.827 12.056 361.623 11.516C361.419 10.964 361.317 10.37 361.317 9.734C361.317 9.098 361.425 8.51 361.641 7.97C361.869 7.418 362.175 6.944 362.559 6.548C362.955 6.14 363.423 5.822 363.963 5.594C364.503 5.366 365.091 5.252 365.727 5.252C366.483 5.252 367.119 5.384 367.635 5.648C368.163 5.912 368.595 6.26 368.931 6.692C369.267 7.112 369.507 7.592 369.651 8.132C369.807 8.66 369.885 9.2 369.885 9.752V10.328H363.045ZM368.157 9.032C368.145 8.672 368.085 8.342 367.977 8.042C367.881 7.742 367.731 7.484 367.527 7.268C367.323 7.04 367.065 6.866 366.753 6.746C366.453 6.614 366.099 6.548 365.691 6.548C365.295 6.548 364.929 6.626 364.593 6.782C364.269 6.926 363.993 7.118 363.765 7.358C363.537 7.598 363.357 7.868 363.225 8.168C363.105 8.456 363.045 8.744 363.045 9.032H368.157ZM376.832 5.468H378.452V6.692H378.488C378.8 6.236 379.226 5.882 379.766 5.63C380.318 5.378 380.882 5.252 381.458 5.252C382.118 5.252 382.712 5.366 383.24 5.594C383.78 5.822 384.236 6.14 384.608 6.548C384.992 6.956 385.286 7.436 385.49 7.988C385.694 8.528 385.796 9.11 385.796 9.734C385.796 10.37 385.694 10.964 385.49 11.516C385.286 12.056 384.992 12.53 384.608 12.938C384.236 13.334 383.78 13.646 383.24 13.874C382.712 14.102 382.118 14.216 381.458 14.216C380.846 14.216 380.27 14.09 379.73 13.838C379.19 13.574 378.776 13.22 378.488 12.776H378.452V19.076H376.832V5.468ZM381.26 6.764C380.828 6.764 380.438 6.842 380.09 6.998C379.742 7.142 379.448 7.346 379.208 7.61C378.968 7.862 378.782 8.174 378.65 8.546C378.518 8.906 378.452 9.302 378.452 9.734C378.452 10.166 378.518 10.568 378.65 10.94C378.782 11.3 378.968 11.612 379.208 11.876C379.448 12.128 379.742 12.332 380.09 12.488C380.438 12.632 380.828 12.704 381.26 12.704C381.692 12.704 382.082 12.632 382.43 12.488C382.778 12.332 383.072 12.128 383.312 11.876C383.552 11.612 383.738 11.3 383.87 10.94C384.002 10.568 384.068 10.166 384.068 9.734C384.068 9.302 384.002 8.906 383.87 8.546C383.738 8.174 383.552 7.862 383.312 7.61C383.072 7.346 382.778 7.142 382.43 6.998C382.082 6.842 381.692 6.764 381.26 6.764ZM387.836 5.468H389.456V6.782H389.492C389.6 6.554 389.744 6.35 389.924 6.17C390.104 5.978 390.302 5.816 390.518 5.684C390.746 5.552 390.992 5.45 391.256 5.378C391.52 5.294 391.784 5.252 392.048 5.252C392.312 5.252 392.552 5.288 392.768 5.36L392.696 7.106C392.564 7.07 392.432 7.04 392.3 7.016C392.168 6.992 392.036 6.98 391.904 6.98C391.112 6.98 390.506 7.202 390.086 7.646C389.666 8.09 389.456 8.78 389.456 9.716V14H387.836V5.468ZM395.496 9.734C395.496 10.166 395.562 10.568 395.694 10.94C395.826 11.3 396.012 11.612 396.252 11.876C396.492 12.128 396.786 12.332 397.134 12.488C397.482 12.632 397.872 12.704 398.304 12.704C398.736 12.704 399.126 12.632 399.474 12.488C399.822 12.332 400.116 12.128 400.356 11.876C400.596 11.612 400.782 11.3 400.914 10.94C401.046 10.568 401.112 10.166 401.112 9.734C401.112 9.302 401.046 8.906 400.914 8.546C400.782 8.174 400.596 7.862 400.356 7.61C400.116 7.346 399.822 7.142 399.474 6.998C399.126 6.842 398.736 6.764 398.304 6.764C397.872 6.764 397.482 6.842 397.134 6.998C396.786 7.142 396.492 7.346 396.252 7.61C396.012 7.862 395.826 8.174 395.694 8.546C395.562 8.906 395.496 9.302 395.496 9.734ZM393.768 9.734C393.768 9.11 393.882 8.528 394.11 7.988C394.35 7.448 394.674 6.974 395.082 6.566C395.49 6.158 395.97 5.84 396.522 5.612C397.074 5.372 397.668 5.252 398.304 5.252C398.94 5.252 399.534 5.372 400.086 5.612C400.638 5.84 401.118 6.158 401.526 6.566C401.934 6.974 402.252 7.448 402.48 7.988C402.72 8.528 402.84 9.11 402.84 9.734C402.84 10.358 402.72 10.946 402.48 11.498C402.252 12.038 401.934 12.512 401.526 12.92C401.118 13.316 400.638 13.634 400.086 13.874C399.534 14.102 398.94 14.216 398.304 14.216C397.668 14.216 397.074 14.102 396.522 13.874C395.97 13.634 395.49 13.316 395.082 12.92C394.674 12.512 394.35 12.038 394.11 11.498C393.882 10.946 393.768 10.358 393.768 9.734ZM403.844 5.468H405.716L408.272 12.002L410.72 5.468H412.448L409.1 14H407.318L403.844 5.468ZM413.996 5.468H415.616V14H413.996V5.468ZM413.618 2.408C413.618 2.084 413.732 1.808 413.96 1.58C414.2 1.34 414.482 1.22 414.806 1.22C415.13 1.22 415.406 1.34 415.634 1.58C415.874 1.808 415.994 2.084 415.994 2.408C415.994 2.732 415.874 3.014 415.634 3.254C415.406 3.482 415.13 3.596 414.806 3.596C414.482 3.596 414.2 3.482 413.96 3.254C413.732 3.014 413.618 2.732 413.618 2.408ZM426.744 14H425.124V12.776H425.088C424.776 13.232 424.344 13.586 423.792 13.838C423.252 14.09 422.694 14.216 422.118 14.216C421.458 14.216 420.858 14.102 420.318 13.874C419.79 13.646 419.334 13.328 418.95 12.92C418.578 12.512 418.29 12.038 418.086 11.498C417.882 10.958 417.78 10.37 417.78 9.734C417.78 9.098 417.882 8.51 418.086 7.97C418.29 7.418 418.578 6.944 418.95 6.548C419.334 6.14 419.79 5.822 420.318 5.594C420.858 5.366 421.458 5.252 422.118 5.252C422.73 5.252 423.306 5.384 423.846 5.648C424.386 5.9 424.8 6.248 425.088 6.692H425.124V0.391999H426.744V14ZM422.316 12.704C422.748 12.704 423.138 12.632 423.486 12.488C423.834 12.332 424.128 12.128 424.368 11.876C424.608 11.612 424.794 11.3 424.926 10.94C425.058 10.568 425.124 10.166 425.124 9.734C425.124 9.302 425.058 8.906 424.926 8.546C424.794 8.174 424.608 7.862 424.368 7.61C424.128 7.346 423.834 7.142 423.486 6.998C423.138 6.842 422.748 6.764 422.316 6.764C421.884 6.764 421.494 6.842 421.146 6.998C420.798 7.142 420.504 7.346 420.264 7.61C420.024 7.862 419.838 8.174 419.706 8.546C419.574 8.906 419.508 9.302 419.508 9.734C419.508 10.166 419.574 10.568 419.706 10.94C419.838 11.3 420.024 11.612 420.264 11.876C420.504 12.128 420.798 12.332 421.146 12.488C421.494 12.632 421.884 12.704 422.316 12.704ZM430.422 10.328C430.422 10.7 430.5 11.042 430.656 11.354C430.824 11.654 431.04 11.912 431.304 12.128C431.568 12.344 431.874 12.512 432.222 12.632C432.57 12.752 432.93 12.812 433.302 12.812C433.806 12.812 434.244 12.698 434.616 12.47C434.988 12.23 435.33 11.918 435.642 11.534L436.866 12.47C435.966 13.634 434.706 14.216 433.086 14.216C432.414 14.216 431.802 14.102 431.25 13.874C430.71 13.646 430.248 13.334 429.864 12.938C429.492 12.53 429.204 12.056 429 11.516C428.796 10.964 428.694 10.37 428.694 9.734C428.694 9.098 428.802 8.51 429.018 7.97C429.246 7.418 429.552 6.944 429.936 6.548C430.332 6.14 430.8 5.822 431.34 5.594C431.88 5.366 432.468 5.252 433.104 5.252C433.86 5.252 434.496 5.384 435.012 5.648C435.54 5.912 435.972 6.26 436.308 6.692C436.644 7.112 436.884 7.592 437.028 8.132C437.184 8.66 437.262 9.2 437.262 9.752V10.328H430.422ZM435.534 9.032C435.522 8.672 435.462 8.342 435.354 8.042C435.258 7.742 435.108 7.484 434.904 7.268C434.7 7.04 434.442 6.866 434.13 6.746C433.83 6.614 433.476 6.548 433.068 6.548C432.672 6.548 432.306 6.626 431.97 6.782C431.646 6.926 431.37 7.118 431.142 7.358C430.914 7.598 430.734 7.868 430.602 8.168C430.482 8.456 430.422 8.744 430.422 9.032H435.534ZM444.839 6.872H443.003V5.468H444.839V3.56C444.839 2.42 445.055 1.574 445.487 1.022C445.931 0.458 446.687 0.176 447.755 0.176C447.935 0.176 448.121 0.182 448.313 0.194C448.517 0.205999 448.733 0.241999 448.961 0.301999L448.781 1.742C448.625 1.682 448.475 1.64 448.331 1.616C448.187 1.592 448.031 1.58 447.863 1.58C447.563 1.58 447.323 1.628 447.143 1.724C446.963 1.808 446.819 1.934 446.711 2.102C446.615 2.27 446.549 2.474 446.513 2.714C446.489 2.942 446.477 3.206 446.477 3.506V5.468H448.403V6.872H446.459V14H444.839V6.872ZM451.517 9.734C451.517 10.166 451.583 10.568 451.715 10.94C451.847 11.3 452.033 11.612 452.273 11.876C452.513 12.128 452.807 12.332 453.155 12.488C453.503 12.632 453.893 12.704 454.325 12.704C454.757 12.704 455.147 12.632 455.495 12.488C455.843 12.332 456.137 12.128 456.377 11.876C456.617 11.612 456.803 11.3 456.935 10.94C457.067 10.568 457.133 10.166 457.133 9.734C457.133 9.302 457.067 8.906 456.935 8.546C456.803 8.174 456.617 7.862 456.377 7.61C456.137 7.346 455.843 7.142 455.495 6.998C455.147 6.842 454.757 6.764 454.325 6.764C453.893 6.764 453.503 6.842 453.155 6.998C452.807 7.142 452.513 7.346 452.273 7.61C452.033 7.862 451.847 8.174 451.715 8.546C451.583 8.906 451.517 9.302 451.517 9.734ZM449.789 9.734C449.789 9.11 449.903 8.528 450.131 7.988C450.371 7.448 450.695 6.974 451.103 6.566C451.511 6.158 451.991 5.84 452.543 5.612C453.095 5.372 453.689 5.252 454.325 5.252C454.961 5.252 455.555 5.372 456.107 5.612C456.659 5.84 457.139 6.158 457.547 6.566C457.955 6.974 458.273 7.448 458.501 7.988C458.741 8.528 458.861 9.11 458.861 9.734C458.861 10.358 458.741 10.946 458.501 11.498C458.273 12.038 457.955 12.512 457.547 12.92C457.139 13.316 456.659 13.634 456.107 13.874C455.555 14.102 454.961 14.216 454.325 14.216C453.689 14.216 453.095 14.102 452.543 13.874C451.991 13.634 451.511 13.316 451.103 12.92C450.695 12.512 450.371 12.038 450.131 11.498C449.903 10.946 449.789 10.358 449.789 9.734ZM460.891 5.468H462.511V6.782H462.547C462.655 6.554 462.799 6.35 462.979 6.17C463.159 5.978 463.357 5.816 463.573 5.684C463.801 5.552 464.047 5.45 464.311 5.378C464.575 5.294 464.839 5.252 465.103 5.252C465.367 5.252 465.607 5.288 465.823 5.36L465.751 7.106C465.619 7.07 465.487 7.04 465.355 7.016C465.223 6.992 465.091 6.98 464.959 6.98C464.167 6.98 463.561 7.202 463.141 7.646C462.721 8.09 462.511 8.78 462.511 9.716V14H460.891V5.468ZM477.135 6.872H474.813V10.742C474.813 10.982 474.819 11.222 474.831 11.462C474.843 11.69 474.885 11.9 474.957 12.092C475.041 12.272 475.161 12.422 475.317 12.542C475.485 12.65 475.725 12.704 476.037 12.704C476.229 12.704 476.427 12.686 476.631 12.65C476.835 12.614 477.021 12.548 477.189 12.452V13.928C476.997 14.036 476.745 14.108 476.433 14.144C476.133 14.192 475.899 14.216 475.731 14.216C475.107 14.216 474.621 14.132 474.273 13.964C473.937 13.784 473.685 13.556 473.517 13.28C473.361 13.004 473.265 12.698 473.229 12.362C473.205 12.014 473.193 11.666 473.193 11.318V6.872H471.321V5.468H473.193V3.074H474.813V5.468H477.135V6.872ZM479.225 0.391999H480.845V6.782H480.881C481.085 6.326 481.439 5.96 481.943 5.684C482.447 5.396 483.029 5.252 483.689 5.252C484.097 5.252 484.487 5.318 484.859 5.45C485.243 5.57 485.573 5.762 485.849 6.026C486.137 6.29 486.365 6.632 486.533 7.052C486.701 7.46 486.785 7.946 486.785 8.51V14H485.165V8.96C485.165 8.564 485.111 8.228 485.003 7.952C484.895 7.664 484.751 7.436 484.571 7.268C484.391 7.088 484.181 6.962 483.941 6.89C483.713 6.806 483.473 6.764 483.221 6.764C482.885 6.764 482.573 6.818 482.285 6.926C481.997 7.034 481.745 7.208 481.529 7.448C481.313 7.676 481.145 7.97 481.025 8.33C480.905 8.69 480.845 9.116 480.845 9.608V14H479.225V0.391999ZM490.541 9.734C490.541 10.166 490.607 10.568 490.739 10.94C490.871 11.3 491.057 11.612 491.297 11.876C491.537 12.128 491.831 12.332 492.179 12.488C492.527 12.632 492.917 12.704 493.349 12.704C493.781 12.704 494.171 12.632 494.519 12.488C494.867 12.332 495.161 12.128 495.401 11.876C495.641 11.612 495.827 11.3 495.959 10.94C496.091 10.568 496.157 10.166 496.157 9.734C496.157 9.302 496.091 8.906 495.959 8.546C495.827 8.174 495.641 7.862 495.401 7.61C495.161 7.346 494.867 7.142 494.519 6.998C494.171 6.842 493.781 6.764 493.349 6.764C492.917 6.764 492.527 6.842 492.179 6.998C491.831 7.142 491.537 7.346 491.297 7.61C491.057 7.862 490.871 8.174 490.739 8.546C490.607 8.906 490.541 9.302 490.541 9.734ZM488.813 9.734C488.813 9.11 488.927 8.528 489.155 7.988C489.395 7.448 489.719 6.974 490.127 6.566C490.535 6.158 491.015 5.84 491.567 5.612C492.119 5.372 492.713 5.252 493.349 5.252C493.985 5.252 494.579 5.372 495.131 5.612C495.683 5.84 496.163 6.158 496.571 6.566C496.979 6.974 497.297 7.448 497.525 7.988C497.765 8.528 497.885 9.11 497.885 9.734C497.885 10.358 497.765 10.946 497.525 11.498C497.297 12.038 496.979 12.512 496.571 12.92C496.163 13.316 495.683 13.634 495.131 13.874C494.579 14.102 493.985 14.216 493.349 14.216C492.713 14.216 492.119 14.102 491.567 13.874C491.015 13.634 490.535 13.316 490.127 12.92C489.719 12.512 489.395 12.038 489.155 11.498C488.927 10.946 488.813 10.358 488.813 9.734ZM504.45 7.61C504.258 7.37 504.018 7.172 503.73 7.016C503.454 6.848 503.112 6.764 502.704 6.764C502.32 6.764 501.984 6.848 501.696 7.016C501.42 7.172 501.282 7.406 501.282 7.718C501.282 7.97 501.36 8.174 501.516 8.33C501.684 8.486 501.876 8.612 502.092 8.708C502.32 8.804 502.56 8.876 502.812 8.924C503.064 8.972 503.28 9.014 503.46 9.05C503.808 9.134 504.132 9.236 504.432 9.356C504.744 9.476 505.008 9.632 505.224 9.824C505.452 10.016 505.626 10.25 505.746 10.526C505.878 10.802 505.944 11.138 505.944 11.534C505.944 12.014 505.842 12.428 505.638 12.776C505.434 13.112 505.17 13.388 504.846 13.604C504.522 13.82 504.15 13.976 503.73 14.072C503.322 14.168 502.908 14.216 502.488 14.216C501.78 14.216 501.156 14.108 500.616 13.892C500.088 13.676 499.614 13.28 499.194 12.704L500.418 11.696C500.682 11.96 500.976 12.194 501.3 12.398C501.624 12.602 502.02 12.704 502.488 12.704C502.692 12.704 502.896 12.686 503.1 12.65C503.316 12.602 503.502 12.536 503.658 12.452C503.826 12.356 503.958 12.242 504.054 12.11C504.162 11.966 504.216 11.804 504.216 11.624C504.216 11.384 504.138 11.186 503.982 11.03C503.838 10.874 503.658 10.754 503.442 10.67C503.238 10.574 503.016 10.502 502.776 10.454C502.548 10.394 502.344 10.346 502.164 10.31C501.816 10.226 501.486 10.13 501.174 10.022C500.862 9.914 500.586 9.77 500.346 9.59C500.106 9.41 499.914 9.182 499.77 8.906C499.626 8.63 499.554 8.288 499.554 7.88C499.554 7.436 499.644 7.052 499.824 6.728C500.016 6.392 500.262 6.116 500.562 5.9C500.874 5.684 501.222 5.522 501.606 5.414C502.002 5.306 502.398 5.252 502.794 5.252C503.37 5.252 503.922 5.36 504.45 5.576C504.978 5.792 505.398 6.152 505.71 6.656L504.45 7.61ZM509.136 10.328C509.136 10.7 509.214 11.042 509.37 11.354C509.538 11.654 509.754 11.912 510.018 12.128C510.282 12.344 510.588 12.512 510.936 12.632C511.284 12.752 511.644 12.812 512.016 12.812C512.52 12.812 512.958 12.698 513.33 12.47C513.702 12.23 514.044 11.918 514.356 11.534L515.58 12.47C514.68 13.634 513.42 14.216 511.8 14.216C511.128 14.216 510.516 14.102 509.964 13.874C509.424 13.646 508.962 13.334 508.578 12.938C508.206 12.53 507.918 12.056 507.714 11.516C507.51 10.964 507.408 10.37 507.408 9.734C507.408 9.098 507.516 8.51 507.732 7.97C507.96 7.418 508.266 6.944 508.65 6.548C509.046 6.14 509.514 5.822 510.054 5.594C510.594 5.366 511.182 5.252 511.818 5.252C512.574 5.252 513.21 5.384 513.726 5.648C514.254 5.912 514.686 6.26 515.022 6.692C515.358 7.112 515.598 7.592 515.742 8.132C515.898 8.66 515.976 9.2 515.976 9.752V10.328H509.136ZM514.248 9.032C514.236 8.672 514.176 8.342 514.068 8.042C513.972 7.742 513.822 7.484 513.618 7.268C513.414 7.04 513.156 6.866 512.844 6.746C512.544 6.614 512.19 6.548 511.782 6.548C511.386 6.548 511.02 6.626 510.684 6.782C510.36 6.926 510.084 7.118 509.856 7.358C509.628 7.598 509.448 7.868 509.316 8.168C509.196 8.456 509.136 8.744 509.136 9.032H514.248ZM524.238 9.734C524.238 10.166 524.304 10.568 524.436 10.94C524.568 11.3 524.754 11.612 524.994 11.876C525.234 12.128 525.528 12.332 525.876 12.488C526.224 12.632 526.614 12.704 527.046 12.704C527.478 12.704 527.868 12.632 528.216 12.488C528.564 12.332 528.858 12.128 529.098 11.876C529.338 11.612 529.524 11.3 529.656 10.94C529.788 10.568 529.854 10.166 529.854 9.734C529.854 9.302 529.788 8.906 529.656 8.546C529.524 8.174 529.338 7.862 529.098 7.61C528.858 7.346 528.564 7.142 528.216 6.998C527.868 6.842 527.478 6.764 527.046 6.764C526.614 6.764 526.224 6.842 525.876 6.998C525.528 7.142 525.234 7.346 524.994 7.61C524.754 7.862 524.568 8.174 524.436 8.546C524.304 8.906 524.238 9.302 524.238 9.734ZM522.51 9.734C522.51 9.11 522.624 8.528 522.852 7.988C523.092 7.448 523.416 6.974 523.824 6.566C524.232 6.158 524.712 5.84 525.264 5.612C525.816 5.372 526.41 5.252 527.046 5.252C527.682 5.252 528.276 5.372 528.828 5.612C529.38 5.84 529.86 6.158 530.268 6.566C530.676 6.974 530.994 7.448 531.222 7.988C531.462 8.528 531.582 9.11 531.582 9.734C531.582 10.358 531.462 10.946 531.222 11.498C530.994 12.038 530.676 12.512 530.268 12.92C529.86 13.316 529.38 13.634 528.828 13.874C528.276 14.102 527.682 14.216 527.046 14.216C526.41 14.216 525.816 14.102 525.264 13.874C524.712 13.634 524.232 13.316 523.824 12.92C523.416 12.512 523.092 12.038 522.852 11.498C522.624 10.946 522.51 10.358 522.51 9.734ZM534.242 6.872H532.406V5.468H534.242V3.56C534.242 2.42 534.458 1.574 534.89 1.022C535.334 0.458 536.09 0.176 537.158 0.176C537.338 0.176 537.524 0.182 537.716 0.194C537.92 0.205999 538.136 0.241999 538.364 0.301999L538.184 1.742C538.028 1.682 537.878 1.64 537.734 1.616C537.59 1.592 537.434 1.58 537.266 1.58C536.966 1.58 536.726 1.628 536.546 1.724C536.366 1.808 536.222 1.934 536.114 2.102C536.018 2.27 535.952 2.474 535.916 2.714C535.892 2.942 535.88 3.206 535.88 3.506V5.468H537.806V6.872H535.862V14H534.242V6.872ZM543.59 5.468H545.462L548 12.128H548.036L550.448 5.468H552.194L548.144 15.836C548 16.208 547.85 16.544 547.694 16.844C547.538 17.156 547.352 17.42 547.136 17.636C546.92 17.852 546.656 18.02 546.344 18.14C546.044 18.26 545.672 18.32 545.228 18.32C544.988 18.32 544.742 18.302 544.49 18.266C544.25 18.242 544.016 18.182 543.788 18.086L543.986 16.61C544.31 16.742 544.634 16.808 544.958 16.808C545.21 16.808 545.42 16.772 545.588 16.7C545.768 16.64 545.918 16.544 546.038 16.412C546.17 16.292 546.278 16.148 546.362 15.98C546.446 15.812 546.53 15.62 546.614 15.404L547.136 14.054L543.59 5.468ZM554.93 9.734C554.93 10.166 554.996 10.568 555.128 10.94C555.26 11.3 555.446 11.612 555.686 11.876C555.926 12.128 556.22 12.332 556.568 12.488C556.916 12.632 557.306 12.704 557.738 12.704C558.17 12.704 558.56 12.632 558.908 12.488C559.256 12.332 559.55 12.128 559.79 11.876C560.03 11.612 560.216 11.3 560.348 10.94C560.48 10.568 560.546 10.166 560.546 9.734C560.546 9.302 560.48 8.906 560.348 8.546C560.216 8.174 560.03 7.862 559.79 7.61C559.55 7.346 559.256 7.142 558.908 6.998C558.56 6.842 558.17 6.764 557.738 6.764C557.306 6.764 556.916 6.842 556.568 6.998C556.22 7.142 555.926 7.346 555.686 7.61C555.446 7.862 555.26 8.174 555.128 8.546C554.996 8.906 554.93 9.302 554.93 9.734ZM553.202 9.734C553.202 9.11 553.316 8.528 553.544 7.988C553.784 7.448 554.108 6.974 554.516 6.566C554.924 6.158 555.404 5.84 555.956 5.612C556.508 5.372 557.102 5.252 557.738 5.252C558.374 5.252 558.968 5.372 559.52 5.612C560.072 5.84 560.552 6.158 560.96 6.566C561.368 6.974 561.686 7.448 561.914 7.988C562.154 8.528 562.274 9.11 562.274 9.734C562.274 10.358 562.154 10.946 561.914 11.498C561.686 12.038 561.368 12.512 560.96 12.92C560.552 13.316 560.072 13.634 559.52 13.874C558.968 14.102 558.374 14.216 557.738 14.216C557.102 14.216 556.508 14.102 555.956 13.874C555.404 13.634 554.924 13.316 554.516 12.92C554.108 12.512 553.784 12.038 553.544 11.498C553.316 10.946 553.202 10.358 553.202 9.734ZM571.863 14H570.243V12.686H570.207C570.003 13.142 569.649 13.514 569.145 13.802C568.641 14.078 568.059 14.216 567.399 14.216C566.979 14.216 566.583 14.15 566.211 14.018C565.839 13.898 565.509 13.706 565.221 13.442C564.945 13.178 564.723 12.842 564.555 12.434C564.387 12.014 564.303 11.522 564.303 10.958V5.468H565.923V10.508C565.923 10.904 565.977 11.246 566.085 11.534C566.193 11.81 566.337 12.038 566.517 12.218C566.697 12.386 566.901 12.512 567.129 12.596C567.369 12.668 567.615 12.704 567.867 12.704C568.203 12.704 568.515 12.65 568.803 12.542C569.091 12.434 569.343 12.266 569.559 12.038C569.775 11.798 569.943 11.498 570.063 11.138C570.183 10.778 570.243 10.352 570.243 9.86V5.468H571.863V14ZM126.346 34.468H128.164L130.09 40.84H130.126L132.16 34.468H133.87L136.03 40.84H136.066L137.902 34.468H139.612L136.858 43H135.22L132.97 36.628H132.934L130.9 43H129.154L126.346 34.468ZM141.031 29.392H142.651V35.782H142.687C142.891 35.326 143.245 34.96 143.749 34.684C144.253 34.396 144.835 34.252 145.495 34.252C145.903 34.252 146.293 34.318 146.665 34.45C147.049 34.57 147.379 34.762 147.655 35.026C147.943 35.29 148.171 35.632 148.339 36.052C148.507 36.46 148.591 36.946 148.591 37.51V43H146.971V37.96C146.971 37.564 146.917 37.228 146.809 36.952C146.701 36.664 146.557 36.436 146.377 36.268C146.197 36.088 145.987 35.962 145.747 35.89C145.519 35.806 145.279 35.764 145.027 35.764C144.691 35.764 144.379 35.818 144.091 35.926C143.803 36.034 143.551 36.208 143.335 36.448C143.119 36.676 142.951 36.97 142.831 37.33C142.711 37.69 142.651 38.116 142.651 38.608V43H141.031V29.392ZM152.347 38.734C152.347 39.166 152.413 39.568 152.545 39.94C152.677 40.3 152.863 40.612 153.103 40.876C153.343 41.128 153.637 41.332 153.985 41.488C154.333 41.632 154.723 41.704 155.155 41.704C155.587 41.704 155.977 41.632 156.325 41.488C156.673 41.332 156.967 41.128 157.207 40.876C157.447 40.612 157.633 40.3 157.765 39.94C157.897 39.568 157.963 39.166 157.963 38.734C157.963 38.302 157.897 37.906 157.765 37.546C157.633 37.174 157.447 36.862 157.207 36.61C156.967 36.346 156.673 36.142 156.325 35.998C155.977 35.842 155.587 35.764 155.155 35.764C154.723 35.764 154.333 35.842 153.985 35.998C153.637 36.142 153.343 36.346 153.103 36.61C152.863 36.862 152.677 37.174 152.545 37.546C152.413 37.906 152.347 38.302 152.347 38.734ZM150.619 38.734C150.619 38.11 150.733 37.528 150.961 36.988C151.201 36.448 151.525 35.974 151.933 35.566C152.341 35.158 152.821 34.84 153.373 34.612C153.925 34.372 154.519 34.252 155.155 34.252C155.791 34.252 156.385 34.372 156.937 34.612C157.489 34.84 157.969 35.158 158.377 35.566C158.785 35.974 159.103 36.448 159.331 36.988C159.571 37.528 159.691 38.11 159.691 38.734C159.691 39.358 159.571 39.946 159.331 40.498C159.103 41.038 158.785 41.512 158.377 41.92C157.969 42.316 157.489 42.634 156.937 42.874C156.385 43.102 155.791 43.216 155.155 43.216C154.519 43.216 153.925 43.102 153.373 42.874C152.821 42.634 152.341 42.316 151.933 41.92C151.525 41.512 151.201 41.038 150.961 40.498C150.733 39.946 150.619 39.358 150.619 38.734ZM171.266 36.61C171.074 36.37 170.834 36.172 170.546 36.016C170.27 35.848 169.928 35.764 169.52 35.764C169.136 35.764 168.8 35.848 168.512 36.016C168.236 36.172 168.098 36.406 168.098 36.718C168.098 36.97 168.176 37.174 168.332 37.33C168.5 37.486 168.692 37.612 168.908 37.708C169.136 37.804 169.376 37.876 169.628 37.924C169.88 37.972 170.096 38.014 170.276 38.05C170.624 38.134 170.948 38.236 171.248 38.356C171.56 38.476 171.824 38.632 172.04 38.824C172.268 39.016 172.442 39.25 172.562 39.526C172.694 39.802 172.76 40.138 172.76 40.534C172.76 41.014 172.658 41.428 172.454 41.776C172.25 42.112 171.986 42.388 171.662 42.604C171.338 42.82 170.966 42.976 170.546 43.072C170.138 43.168 169.724 43.216 169.304 43.216C168.596 43.216 167.972 43.108 167.432 42.892C166.904 42.676 166.43 42.28 166.01 41.704L167.234 40.696C167.498 40.96 167.792 41.194 168.116 41.398C168.44 41.602 168.836 41.704 169.304 41.704C169.508 41.704 169.712 41.686 169.916 41.65C170.132 41.602 170.318 41.536 170.474 41.452C170.642 41.356 170.774 41.242 170.87 41.11C170.978 40.966 171.032 40.804 171.032 40.624C171.032 40.384 170.954 40.186 170.798 40.03C170.654 39.874 170.474 39.754 170.258 39.67C170.054 39.574 169.832 39.502 169.592 39.454C169.364 39.394 169.16 39.346 168.98 39.31C168.632 39.226 168.302 39.13 167.99 39.022C167.678 38.914 167.402 38.77 167.162 38.59C166.922 38.41 166.73 38.182 166.586 37.906C166.442 37.63 166.37 37.288 166.37 36.88C166.37 36.436 166.46 36.052 166.64 35.728C166.832 35.392 167.078 35.116 167.378 34.9C167.69 34.684 168.038 34.522 168.422 34.414C168.818 34.306 169.214 34.252 169.61 34.252C170.186 34.252 170.738 34.36 171.266 34.576C171.794 34.792 172.214 35.152 172.526 35.656L171.266 36.61ZM179.3 35.872H176.978V39.742C176.978 39.982 176.984 40.222 176.996 40.462C177.008 40.69 177.05 40.9 177.122 41.092C177.206 41.272 177.326 41.422 177.482 41.542C177.65 41.65 177.89 41.704 178.202 41.704C178.394 41.704 178.592 41.686 178.796 41.65C179 41.614 179.186 41.548 179.354 41.452V42.928C179.162 43.036 178.91 43.108 178.598 43.144C178.298 43.192 178.064 43.216 177.896 43.216C177.272 43.216 176.786 43.132 176.438 42.964C176.102 42.784 175.85 42.556 175.682 42.28C175.526 42.004 175.43 41.698 175.394 41.362C175.37 41.014 175.358 40.666 175.358 40.318V35.872H173.486V34.468H175.358V32.074H176.978V34.468H179.3V35.872ZM182.704 38.734C182.704 39.166 182.77 39.568 182.902 39.94C183.034 40.3 183.22 40.612 183.46 40.876C183.7 41.128 183.994 41.332 184.342 41.488C184.69 41.632 185.08 41.704 185.512 41.704C185.944 41.704 186.334 41.632 186.682 41.488C187.03 41.332 187.324 41.128 187.564 40.876C187.804 40.612 187.99 40.3 188.122 39.94C188.254 39.568 188.32 39.166 188.32 38.734C188.32 38.302 188.254 37.906 188.122 37.546C187.99 37.174 187.804 36.862 187.564 36.61C187.324 36.346 187.03 36.142 186.682 35.998C186.334 35.842 185.944 35.764 185.512 35.764C185.08 35.764 184.69 35.842 184.342 35.998C183.994 36.142 183.7 36.346 183.46 36.61C183.22 36.862 183.034 37.174 182.902 37.546C182.77 37.906 182.704 38.302 182.704 38.734ZM180.976 38.734C180.976 38.11 181.09 37.528 181.318 36.988C181.558 36.448 181.882 35.974 182.29 35.566C182.698 35.158 183.178 34.84 183.73 34.612C184.282 34.372 184.876 34.252 185.512 34.252C186.148 34.252 186.742 34.372 187.294 34.612C187.846 34.84 188.326 35.158 188.734 35.566C189.142 35.974 189.46 36.448 189.688 36.988C189.928 37.528 190.048 38.11 190.048 38.734C190.048 39.358 189.928 39.946 189.688 40.498C189.46 41.038 189.142 41.512 188.734 41.92C188.326 42.316 187.846 42.634 187.294 42.874C186.742 43.102 186.148 43.216 185.512 43.216C184.876 43.216 184.282 43.102 183.73 42.874C183.178 42.634 182.698 42.316 182.29 41.92C181.882 41.512 181.558 41.038 181.318 40.498C181.09 39.946 180.976 39.358 180.976 38.734ZM192.078 34.468H193.698V35.782H193.734C193.842 35.554 193.986 35.35 194.166 35.17C194.346 34.978 194.544 34.816 194.76 34.684C194.988 34.552 195.234 34.45 195.498 34.378C195.762 34.294 196.026 34.252 196.29 34.252C196.554 34.252 196.794 34.288 197.01 34.36L196.938 36.106C196.806 36.07 196.674 36.04 196.542 36.016C196.41 35.992 196.278 35.98 196.146 35.98C195.354 35.98 194.748 36.202 194.328 36.646C193.908 37.09 193.698 37.78 193.698 38.716V43H192.078V34.468ZM199.647 39.328C199.647 39.7 199.725 40.042 199.881 40.354C200.049 40.654 200.265 40.912 200.529 41.128C200.793 41.344 201.099 41.512 201.447 41.632C201.795 41.752 202.155 41.812 202.527 41.812C203.031 41.812 203.469 41.698 203.841 41.47C204.213 41.23 204.555 40.918 204.867 40.534L206.091 41.47C205.191 42.634 203.931 43.216 202.311 43.216C201.639 43.216 201.027 43.102 200.475 42.874C199.935 42.646 199.473 42.334 199.089 41.938C198.717 41.53 198.429 41.056 198.225 40.516C198.021 39.964 197.919 39.37 197.919 38.734C197.919 38.098 198.027 37.51 198.243 36.97C198.471 36.418 198.777 35.944 199.161 35.548C199.557 35.14 200.025 34.822 200.565 34.594C201.105 34.366 201.693 34.252 202.329 34.252C203.085 34.252 203.721 34.384 204.237 34.648C204.765 34.912 205.197 35.26 205.533 35.692C205.869 36.112 206.109 36.592 206.253 37.132C206.409 37.66 206.487 38.2 206.487 38.752V39.328H199.647ZM204.759 38.032C204.747 37.672 204.687 37.342 204.579 37.042C204.483 36.742 204.333 36.484 204.129 36.268C203.925 36.04 203.667 35.866 203.355 35.746C203.055 35.614 202.701 35.548 202.293 35.548C201.897 35.548 201.531 35.626 201.195 35.782C200.871 35.926 200.595 36.118 200.367 36.358C200.139 36.598 199.959 36.868 199.827 37.168C199.707 37.456 199.647 37.744 199.647 38.032H204.759ZM221.985 43H220.365V41.776H220.329C220.017 42.232 219.585 42.586 219.033 42.838C218.493 43.09 217.935 43.216 217.359 43.216C216.699 43.216 216.099 43.102 215.559 42.874C215.031 42.646 214.575 42.328 214.191 41.92C213.819 41.512 213.531 41.038 213.327 40.498C213.123 39.958 213.021 39.37 213.021 38.734C213.021 38.098 213.123 37.51 213.327 36.97C213.531 36.418 213.819 35.944 214.191 35.548C214.575 35.14 215.031 34.822 215.559 34.594C216.099 34.366 216.699 34.252 217.359 34.252C217.971 34.252 218.547 34.384 219.087 34.648C219.627 34.9 220.041 35.248 220.329 35.692H220.365V29.392H221.985V43ZM217.557 41.704C217.989 41.704 218.379 41.632 218.727 41.488C219.075 41.332 219.369 41.128 219.609 40.876C219.849 40.612 220.035 40.3 220.167 39.94C220.299 39.568 220.365 39.166 220.365 38.734C220.365 38.302 220.299 37.906 220.167 37.546C220.035 37.174 219.849 36.862 219.609 36.61C219.369 36.346 219.075 36.142 218.727 35.998C218.379 35.842 217.989 35.764 217.557 35.764C217.125 35.764 216.735 35.842 216.387 35.998C216.039 36.142 215.745 36.346 215.505 36.61C215.265 36.862 215.079 37.174 214.947 37.546C214.815 37.906 214.749 38.302 214.749 38.734C214.749 39.166 214.815 39.568 214.947 39.94C215.079 40.3 215.265 40.612 215.505 40.876C215.745 41.128 216.039 41.332 216.387 41.488C216.735 41.632 217.125 41.704 217.557 41.704ZM224.475 35.512C224.931 35.092 225.459 34.78 226.059 34.576C226.659 34.36 227.259 34.252 227.859 34.252C228.483 34.252 229.017 34.33 229.461 34.486C229.917 34.642 230.289 34.852 230.577 35.116C230.865 35.38 231.075 35.686 231.207 36.034C231.351 36.37 231.423 36.724 231.423 37.096V41.452C231.423 41.752 231.429 42.028 231.441 42.28C231.453 42.532 231.471 42.772 231.495 43H230.055C230.019 42.568 230.001 42.136 230.001 41.704H229.965C229.605 42.256 229.179 42.646 228.687 42.874C228.195 43.102 227.625 43.216 226.977 43.216C226.581 43.216 226.203 43.162 225.843 43.054C225.483 42.946 225.165 42.784 224.889 42.568C224.625 42.352 224.415 42.088 224.259 41.776C224.103 41.452 224.025 41.08 224.025 40.66C224.025 40.108 224.145 39.646 224.385 39.274C224.637 38.902 224.973 38.602 225.393 38.374C225.825 38.134 226.323 37.966 226.887 37.87C227.463 37.762 228.075 37.708 228.723 37.708H229.911V37.348C229.911 37.132 229.869 36.916 229.785 36.7C229.701 36.484 229.575 36.292 229.407 36.124C229.239 35.944 229.029 35.806 228.777 35.71C228.525 35.602 228.225 35.548 227.877 35.548C227.565 35.548 227.289 35.578 227.049 35.638C226.821 35.698 226.611 35.776 226.419 35.872C226.227 35.956 226.053 36.058 225.897 36.178C225.741 36.298 225.591 36.412 225.447 36.52L224.475 35.512ZM229.047 38.896C228.663 38.896 228.267 38.92 227.859 38.968C227.463 39.004 227.097 39.082 226.761 39.202C226.437 39.322 226.167 39.49 225.951 39.706C225.747 39.922 225.645 40.198 225.645 40.534C225.645 41.026 225.807 41.38 226.131 41.596C226.467 41.812 226.917 41.92 227.481 41.92C227.925 41.92 228.303 41.848 228.615 41.704C228.927 41.548 229.179 41.35 229.371 41.11C229.563 40.87 229.701 40.606 229.785 40.318C229.869 40.018 229.911 39.724 229.911 39.436V38.896H229.047ZM238.345 35.872H236.023V39.742C236.023 39.982 236.029 40.222 236.041 40.462C236.053 40.69 236.095 40.9 236.167 41.092C236.251 41.272 236.371 41.422 236.527 41.542C236.695 41.65 236.935 41.704 237.247 41.704C237.439 41.704 237.637 41.686 237.841 41.65C238.045 41.614 238.231 41.548 238.399 41.452V42.928C238.207 43.036 237.955 43.108 237.643 43.144C237.343 43.192 237.109 43.216 236.941 43.216C236.317 43.216 235.831 43.132 235.483 42.964C235.147 42.784 234.895 42.556 234.727 42.28C234.571 42.004 234.475 41.698 234.439 41.362C234.415 41.014 234.403 40.666 234.403 40.318V35.872H232.531V34.468H234.403V32.074H236.023V34.468H238.345V35.872ZM240.471 35.512C240.927 35.092 241.455 34.78 242.055 34.576C242.655 34.36 243.255 34.252 243.855 34.252C244.479 34.252 245.013 34.33 245.457 34.486C245.913 34.642 246.285 34.852 246.573 35.116C246.861 35.38 247.071 35.686 247.203 36.034C247.347 36.37 247.419 36.724 247.419 37.096V41.452C247.419 41.752 247.425 42.028 247.437 42.28C247.449 42.532 247.467 42.772 247.491 43H246.051C246.015 42.568 245.997 42.136 245.997 41.704H245.961C245.601 42.256 245.175 42.646 244.683 42.874C244.191 43.102 243.621 43.216 242.973 43.216C242.577 43.216 242.199 43.162 241.839 43.054C241.479 42.946 241.161 42.784 240.885 42.568C240.621 42.352 240.411 42.088 240.255 41.776C240.099 41.452 240.021 41.08 240.021 40.66C240.021 40.108 240.141 39.646 240.381 39.274C240.633 38.902 240.969 38.602 241.389 38.374C241.821 38.134 242.319 37.966 242.883 37.87C243.459 37.762 244.071 37.708 244.719 37.708H245.907V37.348C245.907 37.132 245.865 36.916 245.781 36.7C245.697 36.484 245.571 36.292 245.403 36.124C245.235 35.944 245.025 35.806 244.773 35.71C244.521 35.602 244.221 35.548 243.873 35.548C243.561 35.548 243.285 35.578 243.045 35.638C242.817 35.698 242.607 35.776 242.415 35.872C242.223 35.956 242.049 36.058 241.893 36.178C241.737 36.298 241.587 36.412 241.443 36.52L240.471 35.512ZM245.043 38.896C244.659 38.896 244.263 38.92 243.855 38.968C243.459 39.004 243.093 39.082 242.757 39.202C242.433 39.322 242.163 39.49 241.947 39.706C241.743 39.922 241.641 40.198 241.641 40.534C241.641 41.026 241.803 41.38 242.127 41.596C242.463 41.812 242.913 41.92 243.477 41.92C243.921 41.92 244.299 41.848 244.611 41.704C244.923 41.548 245.175 41.35 245.367 41.11C245.559 40.87 245.697 40.606 245.781 40.318C245.865 40.018 245.907 39.724 245.907 39.436V38.896H245.043ZM254.905 34.468H256.525V43H254.905V34.468ZM254.527 31.408C254.527 31.084 254.641 30.808 254.869 30.58C255.109 30.34 255.391 30.22 255.715 30.22C256.039 30.22 256.315 30.34 256.543 30.58C256.783 30.808 256.903 31.084 256.903 31.408C256.903 31.732 256.783 32.014 256.543 32.254C256.315 32.482 256.039 32.596 255.715 32.596C255.391 32.596 255.109 32.482 254.869 32.254C254.641 32.014 254.527 31.732 254.527 31.408ZM259.103 34.468H260.723V35.782H260.759C260.963 35.326 261.317 34.96 261.821 34.684C262.325 34.396 262.907 34.252 263.567 34.252C263.975 34.252 264.365 34.318 264.737 34.45C265.121 34.57 265.451 34.762 265.727 35.026C266.015 35.29 266.243 35.632 266.411 36.052C266.579 36.46 266.663 36.946 266.663 37.51V43H265.043V37.96C265.043 37.564 264.989 37.228 264.881 36.952C264.773 36.664 264.629 36.436 264.449 36.268C264.269 36.088 264.059 35.962 263.819 35.89C263.591 35.806 263.351 35.764 263.099 35.764C262.763 35.764 262.451 35.818 262.163 35.926C261.875 36.034 261.623 36.208 261.407 36.448C261.191 36.676 261.023 36.97 260.903 37.33C260.783 37.69 260.723 38.116 260.723 38.608V43H259.103V34.468ZM278.687 35.872H276.365V39.742C276.365 39.982 276.371 40.222 276.383 40.462C276.395 40.69 276.437 40.9 276.509 41.092C276.593 41.272 276.713 41.422 276.869 41.542C277.037 41.65 277.277 41.704 277.589 41.704C277.781 41.704 277.979 41.686 278.183 41.65C278.387 41.614 278.573 41.548 278.741 41.452V42.928C278.549 43.036 278.297 43.108 277.985 43.144C277.685 43.192 277.451 43.216 277.283 43.216C276.659 43.216 276.173 43.132 275.825 42.964C275.489 42.784 275.237 42.556 275.069 42.28C274.913 42.004 274.817 41.698 274.781 41.362C274.757 41.014 274.745 40.666 274.745 40.318V35.872H272.873V34.468H274.745V32.074H276.365V34.468H278.687V35.872ZM280.777 29.392H282.397V35.782H282.433C282.637 35.326 282.991 34.96 283.495 34.684C283.999 34.396 284.581 34.252 285.241 34.252C285.649 34.252 286.039 34.318 286.411 34.45C286.795 34.57 287.125 34.762 287.401 35.026C287.689 35.29 287.917 35.632 288.085 36.052C288.253 36.46 288.337 36.946 288.337 37.51V43H286.717V37.96C286.717 37.564 286.663 37.228 286.555 36.952C286.447 36.664 286.303 36.436 286.123 36.268C285.943 36.088 285.733 35.962 285.493 35.89C285.265 35.806 285.025 35.764 284.773 35.764C284.437 35.764 284.125 35.818 283.837 35.926C283.549 36.034 283.297 36.208 283.081 36.448C282.865 36.676 282.697 36.97 282.577 37.33C282.457 37.69 282.397 38.116 282.397 38.608V43H280.777V29.392ZM290.905 34.468H292.525V43H290.905V34.468ZM290.527 31.408C290.527 31.084 290.641 30.808 290.869 30.58C291.109 30.34 291.391 30.22 291.715 30.22C292.039 30.22 292.315 30.34 292.543 30.58C292.783 30.808 292.903 31.084 292.903 31.408C292.903 31.732 292.783 32.014 292.543 32.254C292.315 32.482 292.039 32.596 291.715 32.596C291.391 32.596 291.109 32.482 290.869 32.254C290.641 32.014 290.527 31.732 290.527 31.408ZM299.639 36.61C299.447 36.37 299.207 36.172 298.919 36.016C298.643 35.848 298.301 35.764 297.893 35.764C297.509 35.764 297.173 35.848 296.885 36.016C296.609 36.172 296.471 36.406 296.471 36.718C296.471 36.97 296.549 37.174 296.705 37.33C296.873 37.486 297.065 37.612 297.281 37.708C297.509 37.804 297.749 37.876 298.001 37.924C298.253 37.972 298.469 38.014 298.649 38.05C298.997 38.134 299.321 38.236 299.621 38.356C299.933 38.476 300.197 38.632 300.413 38.824C300.641 39.016 300.815 39.25 300.935 39.526C301.067 39.802 301.133 40.138 301.133 40.534C301.133 41.014 301.031 41.428 300.827 41.776C300.623 42.112 300.359 42.388 300.035 42.604C299.711 42.82 299.339 42.976 298.919 43.072C298.511 43.168 298.097 43.216 297.677 43.216C296.969 43.216 296.345 43.108 295.805 42.892C295.277 42.676 294.803 42.28 294.383 41.704L295.607 40.696C295.871 40.96 296.165 41.194 296.489 41.398C296.813 41.602 297.209 41.704 297.677 41.704C297.881 41.704 298.085 41.686 298.289 41.65C298.505 41.602 298.691 41.536 298.847 41.452C299.015 41.356 299.147 41.242 299.243 41.11C299.351 40.966 299.405 40.804 299.405 40.624C299.405 40.384 299.327 40.186 299.171 40.03C299.027 39.874 298.847 39.754 298.631 39.67C298.427 39.574 298.205 39.502 297.965 39.454C297.737 39.394 297.533 39.346 297.353 39.31C297.005 39.226 296.675 39.13 296.363 39.022C296.051 38.914 295.775 38.77 295.535 38.59C295.295 38.41 295.103 38.182 294.959 37.906C294.815 37.63 294.743 37.288 294.743 36.88C294.743 36.436 294.833 36.052 295.013 35.728C295.205 35.392 295.451 35.116 295.751 34.9C296.063 34.684 296.411 34.522 296.795 34.414C297.191 34.306 297.587 34.252 297.983 34.252C298.559 34.252 299.111 34.36 299.639 34.576C300.167 34.792 300.587 35.152 300.899 35.656L299.639 36.61ZM308.237 30.256H312.683C313.583 30.256 314.369 30.358 315.041 30.562C315.725 30.766 316.313 31.042 316.805 31.39C317.309 31.726 317.723 32.116 318.047 32.56C318.383 33.004 318.647 33.46 318.839 33.928C319.031 34.396 319.169 34.864 319.253 35.332C319.337 35.8 319.379 36.232 319.379 36.628C319.379 37.444 319.229 38.236 318.929 39.004C318.629 39.76 318.185 40.438 317.597 41.038C317.009 41.626 316.277 42.1 315.401 42.46C314.537 42.82 313.535 43 312.395 43H308.237V30.256ZM309.965 41.38H312.143C312.875 41.38 313.565 41.284 314.213 41.092C314.873 40.888 315.449 40.588 315.941 40.192C316.433 39.796 316.823 39.304 317.111 38.716C317.399 38.116 317.543 37.42 317.543 36.628C317.543 36.22 317.477 35.746 317.345 35.206C317.213 34.654 316.961 34.132 316.589 33.64C316.229 33.148 315.725 32.734 315.077 32.398C314.429 32.05 313.589 31.876 312.557 31.876H309.965V41.38ZM321.489 35.512C321.945 35.092 322.473 34.78 323.073 34.576C323.673 34.36 324.273 34.252 324.873 34.252C325.497 34.252 326.031 34.33 326.475 34.486C326.931 34.642 327.303 34.852 327.591 35.116C327.879 35.38 328.089 35.686 328.221 36.034C328.365 36.37 328.437 36.724 328.437 37.096V41.452C328.437 41.752 328.443 42.028 328.455 42.28C328.467 42.532 328.485 42.772 328.509 43H327.069C327.033 42.568 327.015 42.136 327.015 41.704H326.979C326.619 42.256 326.193 42.646 325.701 42.874C325.209 43.102 324.639 43.216 323.991 43.216C323.595 43.216 323.217 43.162 322.857 43.054C322.497 42.946 322.179 42.784 321.903 42.568C321.639 42.352 321.429 42.088 321.273 41.776C321.117 41.452 321.039 41.08 321.039 40.66C321.039 40.108 321.159 39.646 321.399 39.274C321.651 38.902 321.987 38.602 322.407 38.374C322.839 38.134 323.337 37.966 323.901 37.87C324.477 37.762 325.089 37.708 325.737 37.708H326.925V37.348C326.925 37.132 326.883 36.916 326.799 36.7C326.715 36.484 326.589 36.292 326.421 36.124C326.253 35.944 326.043 35.806 325.791 35.71C325.539 35.602 325.239 35.548 324.891 35.548C324.579 35.548 324.303 35.578 324.063 35.638C323.835 35.698 323.625 35.776 323.433 35.872C323.241 35.956 323.067 36.058 322.911 36.178C322.755 36.298 322.605 36.412 322.461 36.52L321.489 35.512ZM326.061 38.896C325.677 38.896 325.281 38.92 324.873 38.968C324.477 39.004 324.111 39.082 323.775 39.202C323.451 39.322 323.181 39.49 322.965 39.706C322.761 39.922 322.659 40.198 322.659 40.534C322.659 41.026 322.821 41.38 323.145 41.596C323.481 41.812 323.931 41.92 324.495 41.92C324.939 41.92 325.317 41.848 325.629 41.704C325.941 41.548 326.193 41.35 326.385 41.11C326.577 40.87 326.715 40.606 326.799 40.318C326.883 40.018 326.925 39.724 326.925 39.436V38.896H326.061ZM335.359 35.872H333.037V39.742C333.037 39.982 333.043 40.222 333.055 40.462C333.067 40.69 333.109 40.9 333.181 41.092C333.265 41.272 333.385 41.422 333.541 41.542C333.709 41.65 333.949 41.704 334.261 41.704C334.453 41.704 334.651 41.686 334.854 41.65C335.059 41.614 335.245 41.548 335.413 41.452V42.928C335.221 43.036 334.969 43.108 334.657 43.144C334.357 43.192 334.123 43.216 333.955 43.216C333.331 43.216 332.845 43.132 332.497 42.964C332.161 42.784 331.909 42.556 331.741 42.28C331.585 42.004 331.489 41.698 331.453 41.362C331.429 41.014 331.417 40.666 331.417 40.318V35.872H329.544V34.468H331.417V32.074H333.037V34.468H335.359V35.872ZM337.485 35.512C337.941 35.092 338.469 34.78 339.069 34.576C339.669 34.36 340.269 34.252 340.869 34.252C341.493 34.252 342.027 34.33 342.471 34.486C342.927 34.642 343.299 34.852 343.587 35.116C343.875 35.38 344.085 35.686 344.217 36.034C344.361 36.37 344.433 36.724 344.433 37.096V41.452C344.433 41.752 344.439 42.028 344.451 42.28C344.463 42.532 344.481 42.772 344.505 43H343.065C343.029 42.568 343.011 42.136 343.011 41.704H342.975C342.615 42.256 342.189 42.646 341.697 42.874C341.205 43.102 340.635 43.216 339.987 43.216C339.591 43.216 339.213 43.162 338.853 43.054C338.493 42.946 338.175 42.784 337.899 42.568C337.635 42.352 337.425 42.088 337.269 41.776C337.113 41.452 337.035 41.08 337.035 40.66C337.035 40.108 337.155 39.646 337.395 39.274C337.647 38.902 337.983 38.602 338.403 38.374C338.835 38.134 339.333 37.966 339.897 37.87C340.473 37.762 341.085 37.708 341.733 37.708H342.921V37.348C342.921 37.132 342.879 36.916 342.795 36.7C342.711 36.484 342.585 36.292 342.417 36.124C342.249 35.944 342.039 35.806 341.787 35.71C341.535 35.602 341.235 35.548 340.887 35.548C340.575 35.548 340.299 35.578 340.059 35.638C339.831 35.698 339.621 35.776 339.429 35.872C339.237 35.956 339.063 36.058 338.907 36.178C338.751 36.298 338.601 36.412 338.457 36.52L337.485 35.512ZM342.057 38.896C341.673 38.896 341.277 38.92 340.869 38.968C340.473 39.004 340.107 39.082 339.771 39.202C339.447 39.322 339.177 39.49 338.961 39.706C338.757 39.922 338.655 40.198 338.655 40.534C338.655 41.026 338.817 41.38 339.141 41.596C339.477 41.812 339.927 41.92 340.491 41.92C340.935 41.92 341.313 41.848 341.625 41.704C341.937 41.548 342.189 41.35 342.381 41.11C342.573 40.87 342.711 40.606 342.795 40.318C342.879 40.018 342.921 39.724 342.921 39.436V38.896H342.057ZM350.586 30.256H352.386L355.194 40.444H355.23L358.236 30.256H360.216L363.222 40.444H363.258L366.066 30.256H367.866L364.158 43H362.34L359.244 32.596H359.208L356.13 43H354.312L350.586 30.256ZM368.299 35.512C368.755 35.092 369.283 34.78 369.883 34.576C370.483 34.36 371.083 34.252 371.683 34.252C372.307 34.252 372.841 34.33 373.285 34.486C373.741 34.642 374.113 34.852 374.401 35.116C374.689 35.38 374.899 35.686 375.031 36.034C375.175 36.37 375.247 36.724 375.247 37.096V41.452C375.247 41.752 375.253 42.028 375.265 42.28C375.277 42.532 375.295 42.772 375.319 43H373.879C373.843 42.568 373.825 42.136 373.825 41.704H373.789C373.429 42.256 373.003 42.646 372.511 42.874C372.019 43.102 371.449 43.216 370.801 43.216C370.405 43.216 370.027 43.162 369.667 43.054C369.307 42.946 368.989 42.784 368.713 42.568C368.449 42.352 368.239 42.088 368.083 41.776C367.927 41.452 367.849 41.08 367.849 40.66C367.849 40.108 367.969 39.646 368.209 39.274C368.461 38.902 368.797 38.602 369.217 38.374C369.649 38.134 370.147 37.966 370.711 37.87C371.287 37.762 371.899 37.708 372.547 37.708H373.735V37.348C373.735 37.132 373.693 36.916 373.609 36.7C373.525 36.484 373.399 36.292 373.231 36.124C373.063 35.944 372.853 35.806 372.601 35.71C372.349 35.602 372.049 35.548 371.701 35.548C371.389 35.548 371.113 35.578 370.873 35.638C370.645 35.698 370.435 35.776 370.243 35.872C370.051 35.956 369.877 36.058 369.721 36.178C369.565 36.298 369.415 36.412 369.271 36.52L368.299 35.512ZM372.871 38.896C372.487 38.896 372.091 38.92 371.683 38.968C371.287 39.004 370.921 39.082 370.585 39.202C370.261 39.322 369.991 39.49 369.775 39.706C369.571 39.922 369.469 40.198 369.469 40.534C369.469 41.026 369.631 41.38 369.955 41.596C370.291 41.812 370.741 41.92 371.305 41.92C371.749 41.92 372.127 41.848 372.439 41.704C372.751 41.548 373.003 41.35 373.195 41.11C373.387 40.87 373.525 40.606 373.609 40.318C373.693 40.018 373.735 39.724 373.735 39.436V38.896H372.871ZM377.597 34.468H379.217V35.782H379.253C379.361 35.554 379.505 35.35 379.685 35.17C379.865 34.978 380.063 34.816 380.279 34.684C380.507 34.552 380.753 34.45 381.017 34.378C381.281 34.294 381.545 34.252 381.809 34.252C382.073 34.252 382.313 34.288 382.529 34.36L382.457 36.106C382.325 36.07 382.193 36.04 382.061 36.016C381.929 35.992 381.797 35.98 381.665 35.98C380.873 35.98 380.267 36.202 379.847 36.646C379.427 37.09 379.217 37.78 379.217 38.716V43H377.597V34.468ZM385.167 39.328C385.167 39.7 385.245 40.042 385.401 40.354C385.569 40.654 385.785 40.912 386.049 41.128C386.313 41.344 386.619 41.512 386.967 41.632C387.315 41.752 387.675 41.812 388.047 41.812C388.551 41.812 388.989 41.698 389.361 41.47C389.733 41.23 390.075 40.918 390.387 40.534L391.611 41.47C390.711 42.634 389.451 43.216 387.831 43.216C387.159 43.216 386.547 43.102 385.995 42.874C385.455 42.646 384.993 42.334 384.609 41.938C384.237 41.53 383.949 41.056 383.745 40.516C383.541 39.964 383.439 39.37 383.439 38.734C383.439 38.098 383.547 37.51 383.763 36.97C383.991 36.418 384.297 35.944 384.681 35.548C385.077 35.14 385.545 34.822 386.085 34.594C386.625 34.366 387.213 34.252 387.849 34.252C388.605 34.252 389.241 34.384 389.757 34.648C390.285 34.912 390.717 35.26 391.053 35.692C391.389 36.112 391.629 36.592 391.773 37.132C391.929 37.66 392.007 38.2 392.007 38.752V39.328H385.167ZM390.279 38.032C390.267 37.672 390.207 37.342 390.099 37.042C390.003 36.742 389.853 36.484 389.649 36.268C389.445 36.04 389.187 35.866 388.875 35.746C388.575 35.614 388.221 35.548 387.813 35.548C387.417 35.548 387.051 35.626 386.715 35.782C386.391 35.926 386.115 36.118 385.887 36.358C385.659 36.598 385.479 36.868 385.347 37.168C385.227 37.456 385.167 37.744 385.167 38.032H390.279ZM393.945 29.392H395.565V35.782H395.601C395.805 35.326 396.159 34.96 396.663 34.684C397.167 34.396 397.749 34.252 398.409 34.252C398.817 34.252 399.207 34.318 399.579 34.45C399.963 34.57 400.293 34.762 400.569 35.026C400.857 35.29 401.085 35.632 401.253 36.052C401.421 36.46 401.505 36.946 401.505 37.51V43H399.885V37.96C399.885 37.564 399.831 37.228 399.723 36.952C399.615 36.664 399.471 36.436 399.291 36.268C399.111 36.088 398.901 35.962 398.661 35.89C398.433 35.806 398.193 35.764 397.941 35.764C397.605 35.764 397.293 35.818 397.005 35.926C396.717 36.034 396.465 36.208 396.249 36.448C396.033 36.676 395.865 36.97 395.745 37.33C395.625 37.69 395.565 38.116 395.565 38.608V43H393.945V29.392ZM405.261 38.734C405.261 39.166 405.327 39.568 405.459 39.94C405.591 40.3 405.777 40.612 406.017 40.876C406.257 41.128 406.551 41.332 406.899 41.488C407.247 41.632 407.637 41.704 408.069 41.704C408.501 41.704 408.891 41.632 409.239 41.488C409.587 41.332 409.881 41.128 410.121 40.876C410.361 40.612 410.547 40.3 410.679 39.94C410.811 39.568 410.877 39.166 410.877 38.734C410.877 38.302 410.811 37.906 410.679 37.546C410.547 37.174 410.361 36.862 410.121 36.61C409.881 36.346 409.587 36.142 409.239 35.998C408.891 35.842 408.501 35.764 408.069 35.764C407.637 35.764 407.247 35.842 406.899 35.998C406.551 36.142 406.257 36.346 406.017 36.61C405.777 36.862 405.591 37.174 405.459 37.546C405.327 37.906 405.261 38.302 405.261 38.734ZM403.533 38.734C403.533 38.11 403.647 37.528 403.875 36.988C404.115 36.448 404.439 35.974 404.847 35.566C405.255 35.158 405.735 34.84 406.287 34.612C406.839 34.372 407.433 34.252 408.069 34.252C408.705 34.252 409.299 34.372 409.851 34.612C410.403 34.84 410.883 35.158 411.291 35.566C411.699 35.974 412.017 36.448 412.245 36.988C412.485 37.528 412.605 38.11 412.605 38.734C412.605 39.358 412.485 39.946 412.245 40.498C412.017 41.038 411.699 41.512 411.291 41.92C410.883 42.316 410.403 42.634 409.851 42.874C409.299 43.102 408.705 43.216 408.069 43.216C407.433 43.216 406.839 43.102 406.287 42.874C405.735 42.634 405.255 42.316 404.847 41.92C404.439 41.512 404.115 41.038 403.875 40.498C403.647 39.946 403.533 39.358 403.533 38.734ZM422.194 43H420.574V41.686H420.538C420.334 42.142 419.98 42.514 419.476 42.802C418.972 43.078 418.39 43.216 417.73 43.216C417.31 43.216 416.914 43.15 416.542 43.018C416.17 42.898 415.84 42.706 415.552 42.442C415.276 42.178 415.054 41.842 414.886 41.434C414.718 41.014 414.634 40.522 414.634 39.958V34.468H416.254V39.508C416.254 39.904 416.308 40.246 416.416 40.534C416.524 40.81 416.668 41.038 416.848 41.218C417.028 41.386 417.232 41.512 417.46 41.596C417.7 41.668 417.946 41.704 418.198 41.704C418.534 41.704 418.846 41.65 419.134 41.542C419.422 41.434 419.674 41.266 419.89 41.038C420.106 40.798 420.274 40.498 420.394 40.138C420.514 39.778 420.574 39.352 420.574 38.86V34.468H422.194V43ZM429.172 36.61C428.98 36.37 428.74 36.172 428.452 36.016C428.176 35.848 427.834 35.764 427.426 35.764C427.042 35.764 426.706 35.848 426.418 36.016C426.142 36.172 426.004 36.406 426.004 36.718C426.004 36.97 426.082 37.174 426.238 37.33C426.406 37.486 426.598 37.612 426.814 37.708C427.042 37.804 427.282 37.876 427.534 37.924C427.786 37.972 428.002 38.014 428.182 38.05C428.53 38.134 428.854 38.236 429.154 38.356C429.466 38.476 429.73 38.632 429.946 38.824C430.174 39.016 430.348 39.25 430.468 39.526C430.6 39.802 430.666 40.138 430.666 40.534C430.666 41.014 430.564 41.428 430.36 41.776C430.156 42.112 429.892 42.388 429.568 42.604C429.244 42.82 428.872 42.976 428.452 43.072C428.044 43.168 427.63 43.216 427.21 43.216C426.502 43.216 425.878 43.108 425.338 42.892C424.81 42.676 424.336 42.28 423.916 41.704L425.14 40.696C425.404 40.96 425.698 41.194 426.022 41.398C426.346 41.602 426.742 41.704 427.21 41.704C427.414 41.704 427.618 41.686 427.822 41.65C428.038 41.602 428.224 41.536 428.38 41.452C428.548 41.356 428.68 41.242 428.776 41.11C428.884 40.966 428.938 40.804 428.938 40.624C428.938 40.384 428.86 40.186 428.704 40.03C428.56 39.874 428.38 39.754 428.164 39.67C427.96 39.574 427.738 39.502 427.498 39.454C427.27 39.394 427.066 39.346 426.886 39.31C426.538 39.226 426.208 39.13 425.896 39.022C425.584 38.914 425.308 38.77 425.068 38.59C424.828 38.41 424.636 38.182 424.492 37.906C424.348 37.63 424.276 37.288 424.276 36.88C424.276 36.436 424.366 36.052 424.546 35.728C424.738 35.392 424.984 35.116 425.284 34.9C425.596 34.684 425.944 34.522 426.328 34.414C426.724 34.306 427.12 34.252 427.516 34.252C428.092 34.252 428.644 34.36 429.172 34.576C429.7 34.792 430.12 35.152 430.432 35.656L429.172 36.61ZM433.858 39.328C433.858 39.7 433.936 40.042 434.092 40.354C434.26 40.654 434.476 40.912 434.74 41.128C435.004 41.344 435.31 41.512 435.658 41.632C436.006 41.752 436.366 41.812 436.738 41.812C437.242 41.812 437.68 41.698 438.052 41.47C438.424 41.23 438.766 40.918 439.078 40.534L440.302 41.47C439.402 42.634 438.142 43.216 436.522 43.216C435.85 43.216 435.238 43.102 434.686 42.874C434.146 42.646 433.684 42.334 433.3 41.938C432.928 41.53 432.64 41.056 432.436 40.516C432.232 39.964 432.13 39.37 432.13 38.734C432.13 38.098 432.238 37.51 432.454 36.97C432.682 36.418 432.988 35.944 433.372 35.548C433.768 35.14 434.236 34.822 434.776 34.594C435.316 34.366 435.904 34.252 436.54 34.252C437.296 34.252 437.932 34.384 438.448 34.648C438.976 34.912 439.408 35.26 439.744 35.692C440.08 36.112 440.32 36.592 440.464 37.132C440.62 37.66 440.698 38.2 440.698 38.752V39.328H433.858ZM438.97 38.032C438.958 37.672 438.898 37.342 438.79 37.042C438.694 36.742 438.544 36.484 438.34 36.268C438.136 36.04 437.878 35.866 437.566 35.746C437.266 35.614 436.912 35.548 436.504 35.548C436.108 35.548 435.742 35.626 435.406 35.782C435.082 35.926 434.806 36.118 434.578 36.358C434.35 36.598 434.17 36.868 434.038 37.168C433.918 37.456 433.858 37.744 433.858 38.032H438.97ZM443.914 43.108C443.59 43.108 443.308 42.994 443.068 42.766C442.84 42.526 442.726 42.244 442.726 41.92C442.726 41.596 442.84 41.32 443.068 41.092C443.308 40.852 443.59 40.732 443.914 40.732C444.238 40.732 444.514 40.852 444.742 41.092C444.982 41.32 445.102 41.596 445.102 41.92C445.102 42.244 444.982 42.526 444.742 42.766C444.514 42.994 444.238 43.108 443.914 43.108Z" fill="#4B5D68"/>
</svg>
