<svg width="170" height="60" viewBox="0 0 170 60" fill="none" xmlns="http://www.w3.org/2000/svg">
<rect width="170" height="60" rx="30" fill="#9C69E2"/>
<path d="M38.4337 23.256H40.7017V33.948H46.1197V36H38.4337V23.256ZM49.2977 32.436C49.3697 33.084 49.6217 33.588 50.0537 33.948C50.4857 34.308 51.0077 34.488 51.6197 34.488C52.1597 34.488 52.6097 34.38 52.9697 34.164C53.3417 33.936 53.6657 33.654 53.9417 33.318L55.4897 34.488C54.9857 35.112 54.4217 35.556 53.7977 35.82C53.1737 36.084 52.5197 36.216 51.8357 36.216C51.1877 36.216 50.5757 36.108 49.9997 35.892C49.4237 35.676 48.9257 35.37 48.5057 34.974C48.0857 34.578 47.7497 34.104 47.4977 33.552C47.2577 32.988 47.1377 32.364 47.1377 31.68C47.1377 30.996 47.2577 30.378 47.4977 29.826C47.7497 29.262 48.0857 28.782 48.5057 28.386C48.9257 27.99 49.4237 27.684 49.9997 27.468C50.5757 27.252 51.1877 27.144 51.8357 27.144C52.4357 27.144 52.9817 27.252 53.4737 27.468C53.9777 27.672 54.4037 27.972 54.7517 28.368C55.1117 28.764 55.3877 29.256 55.5797 29.844C55.7837 30.42 55.8857 31.086 55.8857 31.842V32.436H49.2977ZM53.7257 30.816C53.7137 30.18 53.5157 29.682 53.1317 29.322C52.7477 28.95 52.2137 28.764 51.5297 28.764C50.8817 28.764 50.3657 28.95 49.9817 29.322C49.6097 29.694 49.3817 30.192 49.2977 30.816H53.7257ZM63.3056 34.812H63.2516C62.9396 35.304 62.5436 35.664 62.0636 35.892C61.5836 36.108 61.0556 36.216 60.4796 36.216C60.0836 36.216 59.6936 36.162 59.3096 36.054C58.9376 35.946 58.6016 35.784 58.3016 35.568C58.0136 35.352 57.7796 35.082 57.5996 34.758C57.4196 34.434 57.3296 34.056 57.3296 33.624C57.3296 33.156 57.4136 32.76 57.5816 32.436C57.7496 32.1 57.9716 31.824 58.2476 31.608C58.5356 31.38 58.8656 31.2 59.2376 31.068C59.6096 30.936 59.9936 30.84 60.3896 30.78C60.7976 30.708 61.2056 30.666 61.6136 30.654C62.0216 30.63 62.4056 30.618 62.7656 30.618H63.3056V30.384C63.3056 29.844 63.1196 29.442 62.7476 29.178C62.3756 28.902 61.9016 28.764 61.3256 28.764C60.8696 28.764 60.4436 28.848 60.0476 29.016C59.6516 29.172 59.3096 29.388 59.0216 29.664L57.8876 28.53C58.3676 28.038 58.9256 27.684 59.5616 27.468C60.2096 27.252 60.8756 27.144 61.5596 27.144C62.1716 27.144 62.6876 27.216 63.1076 27.36C63.5276 27.492 63.8756 27.666 64.1516 27.882C64.4276 28.098 64.6376 28.35 64.7816 28.638C64.9376 28.914 65.0456 29.196 65.1056 29.484C65.1776 29.772 65.2196 30.054 65.2316 30.33C65.2436 30.594 65.2496 30.828 65.2496 31.032V36H63.3056V34.812ZM63.1796 32.13H62.7296C62.4296 32.13 62.0936 32.142 61.7216 32.166C61.3496 32.19 60.9956 32.25 60.6596 32.346C60.3356 32.43 60.0596 32.562 59.8316 32.742C59.6036 32.91 59.4896 33.15 59.4896 33.462C59.4896 33.666 59.5316 33.84 59.6156 33.984C59.7116 34.116 59.8316 34.23 59.9756 34.326C60.1196 34.422 60.2816 34.494 60.4616 34.542C60.6416 34.578 60.8216 34.596 61.0016 34.596C61.7456 34.596 62.2916 34.422 62.6396 34.074C62.9996 33.714 63.1796 33.228 63.1796 32.616V32.13ZM67.5736 27.36H69.7336V28.728H69.7696C70.0096 28.224 70.3516 27.834 70.7956 27.558C71.2396 27.282 71.7496 27.144 72.3256 27.144C72.4576 27.144 72.5836 27.156 72.7036 27.18C72.8356 27.204 72.9676 27.234 73.0996 27.27V29.358C72.9196 29.31 72.7396 29.274 72.5596 29.25C72.3916 29.214 72.2236 29.196 72.0556 29.196C71.5516 29.196 71.1436 29.292 70.8316 29.484C70.5316 29.664 70.2976 29.874 70.1296 30.114C69.9736 30.354 69.8656 30.594 69.8056 30.834C69.7576 31.074 69.7336 31.254 69.7336 31.374V36H67.5736V27.36ZM74.8861 27.36H76.9381V28.746H76.9741C77.1781 28.314 77.4901 27.942 77.9101 27.63C78.3301 27.306 78.9001 27.144 79.6201 27.144C80.1961 27.144 80.6821 27.24 81.0781 27.432C81.4861 27.624 81.8161 27.876 82.0681 28.188C82.3201 28.5 82.5001 28.86 82.6081 29.268C82.7161 29.676 82.7701 30.102 82.7701 30.546V36H80.6101V31.626C80.6101 31.386 80.5981 31.122 80.5741 30.834C80.5501 30.534 80.4841 30.258 80.3761 30.006C80.2801 29.742 80.1241 29.526 79.9081 29.358C79.6921 29.178 79.3981 29.088 79.0261 29.088C78.6661 29.088 78.3601 29.148 78.1081 29.268C77.8681 29.388 77.6641 29.55 77.4961 29.754C77.3401 29.958 77.2261 30.192 77.1541 30.456C77.0821 30.72 77.0461 30.996 77.0461 31.284V36H74.8861V27.36ZM90.4582 27.36H92.5102V28.71H92.5462C92.7382 28.302 93.0442 27.942 93.4642 27.63C93.8962 27.306 94.4722 27.144 95.1922 27.144C96.5482 27.144 97.4482 27.678 97.8922 28.746C98.2042 28.194 98.5942 27.792 99.0622 27.54C99.5302 27.276 100.088 27.144 100.736 27.144C101.312 27.144 101.798 27.24 102.194 27.432C102.59 27.624 102.908 27.888 103.148 28.224C103.4 28.56 103.58 28.956 103.688 29.412C103.796 29.856 103.85 30.336 103.85 30.852V36H101.69V31.104C101.69 30.84 101.666 30.588 101.618 30.348C101.57 30.096 101.486 29.88 101.366 29.7C101.246 29.508 101.084 29.358 100.88 29.25C100.676 29.142 100.412 29.088 100.088 29.088C99.7522 29.088 99.4642 29.154 99.2242 29.286C98.9962 29.406 98.8042 29.574 98.6482 29.79C98.5042 29.994 98.3962 30.234 98.3242 30.51C98.2642 30.774 98.2342 31.044 98.2342 31.32V36H96.0742V30.852C96.0742 30.312 95.9602 29.886 95.7322 29.574C95.5042 29.25 95.1262 29.088 94.5982 29.088C94.2382 29.088 93.9322 29.148 93.6802 29.268C93.4402 29.388 93.2362 29.55 93.0682 29.754C92.9122 29.958 92.7982 30.192 92.7262 30.456C92.6542 30.72 92.6182 30.996 92.6182 31.284V36H90.4582V27.36ZM105.778 31.68C105.778 30.996 105.898 30.378 106.138 29.826C106.39 29.262 106.726 28.782 107.146 28.386C107.566 27.99 108.064 27.684 108.64 27.468C109.216 27.252 109.828 27.144 110.476 27.144C111.124 27.144 111.736 27.252 112.312 27.468C112.888 27.684 113.386 27.99 113.806 28.386C114.226 28.782 114.556 29.262 114.796 29.826C115.048 30.378 115.174 30.996 115.174 31.68C115.174 32.364 115.048 32.988 114.796 33.552C114.556 34.104 114.226 34.578 113.806 34.974C113.386 35.37 112.888 35.676 112.312 35.892C111.736 36.108 111.124 36.216 110.476 36.216C109.828 36.216 109.216 36.108 108.64 35.892C108.064 35.676 107.566 35.37 107.146 34.974C106.726 34.578 106.39 34.104 106.138 33.552C105.898 32.988 105.778 32.364 105.778 31.68ZM107.938 31.68C107.938 32.016 107.992 32.34 108.1 32.652C108.22 32.964 108.388 33.24 108.604 33.48C108.832 33.72 109.102 33.912 109.414 34.056C109.726 34.2 110.08 34.272 110.476 34.272C110.872 34.272 111.226 34.2 111.538 34.056C111.85 33.912 112.114 33.72 112.33 33.48C112.558 33.24 112.726 32.964 112.834 32.652C112.954 32.34 113.014 32.016 113.014 31.68C113.014 31.344 112.954 31.02 112.834 30.708C112.726 30.396 112.558 30.12 112.33 29.88C112.114 29.64 111.85 29.448 111.538 29.304C111.226 29.16 110.872 29.088 110.476 29.088C110.08 29.088 109.726 29.16 109.414 29.304C109.102 29.448 108.832 29.64 108.604 29.88C108.388 30.12 108.22 30.396 108.1 30.708C107.992 31.02 107.938 31.344 107.938 31.68ZM117.197 27.36H119.357V28.728H119.393C119.633 28.224 119.975 27.834 120.419 27.558C120.863 27.282 121.373 27.144 121.949 27.144C122.081 27.144 122.207 27.156 122.327 27.18C122.459 27.204 122.591 27.234 122.723 27.27V29.358C122.543 29.31 122.363 29.274 122.183 29.25C122.015 29.214 121.847 29.196 121.679 29.196C121.175 29.196 120.767 29.292 120.455 29.484C120.155 29.664 119.921 29.874 119.753 30.114C119.597 30.354 119.489 30.594 119.429 30.834C119.381 31.074 119.357 31.254 119.357 31.374V36H117.197V27.36ZM125.604 32.436C125.676 33.084 125.928 33.588 126.36 33.948C126.792 34.308 127.314 34.488 127.926 34.488C128.466 34.488 128.916 34.38 129.276 34.164C129.648 33.936 129.972 33.654 130.248 33.318L131.796 34.488C131.292 35.112 130.728 35.556 130.104 35.82C129.48 36.084 128.826 36.216 128.142 36.216C127.494 36.216 126.882 36.108 126.306 35.892C125.73 35.676 125.232 35.37 124.812 34.974C124.392 34.578 124.056 34.104 123.804 33.552C123.564 32.988 123.444 32.364 123.444 31.68C123.444 30.996 123.564 30.378 123.804 29.826C124.056 29.262 124.392 28.782 124.812 28.386C125.232 27.99 125.73 27.684 126.306 27.468C126.882 27.252 127.494 27.144 128.142 27.144C128.742 27.144 129.288 27.252 129.78 27.468C130.284 27.672 130.71 27.972 131.058 28.368C131.418 28.764 131.694 29.256 131.886 29.844C132.09 30.42 132.192 31.086 132.192 31.842V32.436H125.604ZM130.032 30.816C130.02 30.18 129.822 29.682 129.438 29.322C129.054 28.95 128.52 28.764 127.836 28.764C127.188 28.764 126.672 28.95 126.288 29.322C125.916 29.694 125.688 30.192 125.604 30.816H130.032Z" fill="white"/>
</svg>
