<svg width="566" height="166" viewBox="0 0 566 166" fill="none" xmlns="http://www.w3.org/2000/svg">
<path d="M12.8047 42.2266C13.1693 44.8568 13.8854 46.8229 14.9531 48.125C16.9062 50.4948 20.2526 51.6797 24.9922 51.6797C27.8307 51.6797 30.1354 51.3672 31.9062 50.7422C35.2656 49.5443 36.9453 47.3177 36.9453 44.0625C36.9453 42.1615 36.112 40.6901 34.4453 39.6484C32.7786 38.6328 30.1615 37.7344 26.5938 36.9531L20.5 35.5859C14.5104 34.2318 10.3698 32.7604 8.07812 31.1719C4.19792 28.5156 2.25781 24.362 2.25781 18.7109C2.25781 13.5547 4.13281 9.27083 7.88281 5.85938C11.6328 2.44792 17.1406 0.742188 24.4062 0.742188C30.474 0.742188 35.6432 2.35677 39.9141 5.58594C44.2109 8.78906 46.4635 13.4505 46.6719 19.5703H35.1094C34.901 16.1068 33.3906 13.6458 30.5781 12.1875C28.7031 11.224 26.3724 10.7422 23.5859 10.7422C20.487 10.7422 18.013 11.3672 16.1641 12.6172C14.3151 13.8672 13.3906 15.612 13.3906 17.8516C13.3906 19.9089 14.3021 21.4453 16.125 22.4609C17.2969 23.138 19.7969 23.9323 23.625 24.8438L33.5469 27.2266C37.8958 28.2682 41.1771 29.6615 43.3906 31.4062C46.8281 34.1146 48.5469 38.0339 48.5469 43.1641C48.5469 48.4245 46.5286 52.7995 42.4922 56.2891C38.4818 59.7526 32.8047 61.4844 25.4609 61.4844C17.9609 61.4844 12.0625 59.7786 7.76562 56.3672C3.46875 52.9297 1.32031 48.2161 1.32031 42.2266H12.8047ZM80.0312 39.2969C79.3281 39.7396 78.612 40.1042 77.8828 40.3906C77.1797 40.651 76.2031 40.8984 74.9531 41.1328L72.4531 41.6016C70.1094 42.0182 68.4297 42.526 67.4141 43.125C65.6953 44.1406 64.8359 45.7161 64.8359 47.8516C64.8359 49.7526 65.3568 51.1328 66.3984 51.9922C67.4661 52.8255 68.7552 53.2422 70.2656 53.2422C72.6615 53.2422 74.862 52.5391 76.8672 51.1328C78.8984 49.7266 79.9531 47.1615 80.0312 43.4375V39.2969ZM73.2734 34.1016C75.3307 33.8411 76.8021 33.5156 77.6875 33.125C79.276 32.4479 80.0703 31.3932 80.0703 29.9609C80.0703 28.2161 79.4583 27.0182 78.2344 26.3672C77.0365 25.6901 75.2656 25.3516 72.9219 25.3516C70.2917 25.3516 68.4297 26.0026 67.3359 27.3047C66.5547 28.2682 66.0339 29.5703 65.7734 31.2109H55.0312C55.2656 27.487 56.3073 24.4271 58.1562 22.0312C61.099 18.2812 66.151 16.4062 73.3125 16.4062C77.974 16.4062 82.1146 17.3307 85.7344 19.1797C89.3542 21.0286 91.1641 24.5182 91.1641 29.6484V49.1797C91.1641 50.5339 91.1901 52.1745 91.2422 54.1016C91.3203 55.5599 91.5417 56.5495 91.9062 57.0703C92.2708 57.5911 92.8177 58.0208 93.5469 58.3594V60H81.4375C81.099 59.1406 80.8646 58.3333 80.7344 57.5781C80.6042 56.8229 80.5 55.9635 80.4219 55C78.8854 56.6667 77.1146 58.0859 75.1094 59.2578C72.7135 60.638 70.0052 61.3281 66.9844 61.3281C63.1302 61.3281 59.9401 60.2344 57.4141 58.0469C54.9141 55.8333 53.6641 52.7083 53.6641 48.6719C53.6641 43.4375 55.6823 39.6484 59.7188 37.3047C61.9323 36.0286 65.1875 35.1172 69.4844 34.5703L73.2734 34.1016ZM127.336 17.4219H139.289L123.938 60H112.18L96.9062 17.4219H109.406L118.273 48.8281L127.336 17.4219ZM162.414 25.4688C159.836 25.4688 157.831 26.276 156.398 27.8906C154.992 29.5052 154.107 31.6927 153.742 34.4531H171.047C170.865 31.5104 169.966 29.2839 168.352 27.7734C166.763 26.237 164.784 25.4688 162.414 25.4688ZM162.414 16.2891C165.956 16.2891 169.146 16.9531 171.984 18.2812C174.823 19.6094 177.167 21.7057 179.016 24.5703C180.682 27.0964 181.763 30.026 182.258 33.3594C182.544 35.3125 182.661 38.125 182.609 41.7969H153.469C153.625 46.0677 154.966 49.0625 157.492 50.7812C159.029 51.849 160.878 52.3828 163.039 52.3828C165.331 52.3828 167.193 51.7318 168.625 50.4297C169.406 49.7266 170.096 48.75 170.695 47.5H182.062C181.776 50.026 180.461 52.5911 178.117 55.1953C174.471 59.3359 169.367 61.4062 162.805 61.4062C157.388 61.4062 152.609 59.6615 148.469 56.1719C144.328 52.6823 142.258 47.0052 142.258 39.1406C142.258 31.7708 144.12 26.1198 147.844 22.1875C151.594 18.2552 156.451 16.2891 162.414 16.2891ZM214.133 68.1641L215.539 68.2422C216.633 68.2943 217.674 68.2552 218.664 68.125C219.654 67.9948 220.487 67.6953 221.164 67.2266C221.815 66.7839 222.414 65.8594 222.961 64.4531C223.534 63.0469 223.768 62.1875 223.664 61.875L208.039 17.4219H220.422L229.719 48.8281L238.508 17.4219H250.344L235.734 59.2969C232.922 67.3698 230.695 72.3698 229.055 74.2969C227.414 76.25 224.133 77.2266 219.211 77.2266C218.221 77.2266 217.427 77.2135 216.828 77.1875C216.229 77.1875 215.331 77.1484 214.133 77.0703V68.1641ZM276.047 52.1484C279.302 52.1484 281.802 50.9896 283.547 48.6719C285.292 46.3542 286.164 43.0599 286.164 38.7891C286.164 34.5182 285.292 31.237 283.547 28.9453C281.802 26.6276 279.302 25.4688 276.047 25.4688C272.792 25.4688 270.279 26.6276 268.508 28.9453C266.763 31.237 265.891 34.5182 265.891 38.7891C265.891 43.0599 266.763 46.3542 268.508 48.6719C270.279 50.9896 272.792 52.1484 276.047 52.1484ZM297.844 38.7891C297.844 45.0391 296.047 50.3906 292.453 54.8438C288.859 59.2708 283.404 61.4844 276.086 61.4844C268.768 61.4844 263.312 59.2708 259.719 54.8438C256.125 50.3906 254.328 45.0391 254.328 38.7891C254.328 32.6432 256.125 27.3177 259.719 22.8125C263.312 18.3073 268.768 16.0547 276.086 16.0547C283.404 16.0547 288.859 18.3073 292.453 22.8125C296.047 27.3177 297.844 32.6432 297.844 38.7891ZM316.945 17.4219V43.0859C316.945 45.5078 317.232 47.3307 317.805 48.5547C318.82 50.7161 320.812 51.7969 323.781 51.7969C327.583 51.7969 330.188 50.2604 331.594 47.1875C332.323 45.5208 332.688 43.3203 332.688 40.5859V17.4219H343.977V60H333.156V53.9844C333.052 54.1146 332.792 54.5052 332.375 55.1562C331.958 55.8073 331.464 56.3802 330.891 56.875C329.146 58.4375 327.453 59.5052 325.812 60.0781C324.198 60.651 322.297 60.9375 320.109 60.9375C313.807 60.9375 309.562 58.6719 307.375 54.1406C306.151 51.6406 305.539 47.9557 305.539 43.0859V17.4219H316.945ZM377.883 16.4062C378.091 16.4062 378.26 16.4193 378.391 16.4453C378.547 16.4453 378.872 16.4583 379.367 16.4844V27.8906C378.664 27.8125 378.039 27.7604 377.492 27.7344C376.945 27.7083 376.503 27.6953 376.164 27.6953C371.685 27.6953 368.677 29.1536 367.141 32.0703C366.281 33.7109 365.852 36.237 365.852 39.6484V60H354.641V17.4219H365.266V24.8438C366.984 22.0052 368.482 20.0651 369.758 19.0234C371.841 17.2786 374.549 16.4062 377.883 16.4062ZM423.898 16.4062C426.477 16.4062 428.768 16.9792 430.773 18.125C432.779 19.2448 434.406 20.8073 435.656 22.8125V2.5H446.945V60H436.125V54.1016C434.536 56.6276 432.727 58.4635 430.695 59.6094C428.664 60.7552 426.138 61.3281 423.117 61.3281C418.143 61.3281 413.951 59.3229 410.539 55.3125C407.154 51.276 405.461 46.1068 405.461 39.8047C405.461 32.5391 407.128 26.8229 410.461 22.6562C413.82 18.4896 418.299 16.4062 423.898 16.4062ZM426.32 51.9531C429.471 51.9531 431.867 50.7812 433.508 48.4375C435.148 46.0938 435.969 43.0599 435.969 39.3359C435.969 34.1276 434.654 30.4036 432.023 28.1641C430.409 26.8099 428.534 26.1328 426.398 26.1328C423.143 26.1328 420.747 27.3698 419.211 29.8438C417.701 32.2917 416.945 35.3385 416.945 38.9844C416.945 42.9167 417.714 46.0677 419.25 48.4375C420.812 50.7812 423.169 51.9531 426.32 51.9531ZM480.578 39.2969C479.875 39.7396 479.159 40.1042 478.43 40.3906C477.727 40.651 476.75 40.8984 475.5 41.1328L473 41.6016C470.656 42.0182 468.977 42.526 467.961 43.125C466.242 44.1406 465.383 45.7161 465.383 47.8516C465.383 49.7526 465.904 51.1328 466.945 51.9922C468.013 52.8255 469.302 53.2422 470.812 53.2422C473.208 53.2422 475.409 52.5391 477.414 51.1328C479.445 49.7266 480.5 47.1615 480.578 43.4375V39.2969ZM473.82 34.1016C475.878 33.8411 477.349 33.5156 478.234 33.125C479.823 32.4479 480.617 31.3932 480.617 29.9609C480.617 28.2161 480.005 27.0182 478.781 26.3672C477.583 25.6901 475.812 25.3516 473.469 25.3516C470.839 25.3516 468.977 26.0026 467.883 27.3047C467.102 28.2682 466.581 29.5703 466.32 31.2109H455.578C455.812 27.487 456.854 24.4271 458.703 22.0312C461.646 18.2812 466.698 16.4062 473.859 16.4062C478.521 16.4062 482.661 17.3307 486.281 19.1797C489.901 21.0286 491.711 24.5182 491.711 29.6484V49.1797C491.711 50.5339 491.737 52.1745 491.789 54.1016C491.867 55.5599 492.089 56.5495 492.453 57.0703C492.818 57.5911 493.365 58.0208 494.094 58.3594V60H481.984C481.646 59.1406 481.411 58.3333 481.281 57.5781C481.151 56.8229 481.047 55.9635 480.969 55C479.432 56.6667 477.661 58.0859 475.656 59.2578C473.26 60.638 470.552 61.3281 467.531 61.3281C463.677 61.3281 460.487 60.2344 457.961 58.0469C455.461 55.8333 454.211 52.7083 454.211 48.6719C454.211 43.4375 456.229 39.6484 460.266 37.3047C462.479 36.0286 465.734 35.1172 470.031 34.5703L473.82 34.1016ZM497.258 25.7422V17.8125H503.195V5.9375H514.211V17.8125H521.125V25.7422H514.211V48.2422C514.211 49.987 514.432 51.0807 514.875 51.5234C515.318 51.9401 516.672 52.1484 518.938 52.1484C519.276 52.1484 519.628 52.1484 519.992 52.1484C520.383 52.1224 520.76 52.0964 521.125 52.0703V60.3906L515.852 60.5859C510.591 60.7682 506.997 59.8568 505.07 57.8516C503.82 56.5755 503.195 54.6094 503.195 51.9531V25.7422H497.258ZM551.75 39.2969C551.047 39.7396 550.331 40.1042 549.602 40.3906C548.898 40.651 547.922 40.8984 546.672 41.1328L544.172 41.6016C541.828 42.0182 540.148 42.526 539.133 43.125C537.414 44.1406 536.555 45.7161 536.555 47.8516C536.555 49.7526 537.076 51.1328 538.117 51.9922C539.185 52.8255 540.474 53.2422 541.984 53.2422C544.38 53.2422 546.581 52.5391 548.586 51.1328C550.617 49.7266 551.672 47.1615 551.75 43.4375V39.2969ZM544.992 34.1016C547.049 33.8411 548.521 33.5156 549.406 33.125C550.995 32.4479 551.789 31.3932 551.789 29.9609C551.789 28.2161 551.177 27.0182 549.953 26.3672C548.755 25.6901 546.984 25.3516 544.641 25.3516C542.01 25.3516 540.148 26.0026 539.055 27.3047C538.273 28.2682 537.753 29.5703 537.492 31.2109H526.75C526.984 27.487 528.026 24.4271 529.875 22.0312C532.818 18.2812 537.87 16.4062 545.031 16.4062C549.693 16.4062 553.833 17.3307 557.453 19.1797C561.073 21.0286 562.883 24.5182 562.883 29.6484V49.1797C562.883 50.5339 562.909 52.1745 562.961 54.1016C563.039 55.5599 563.26 56.5495 563.625 57.0703C563.99 57.5911 564.536 58.0208 565.266 58.3594V60H553.156C552.818 59.1406 552.583 58.3333 552.453 57.5781C552.323 56.8229 552.219 55.9635 552.141 55C550.604 56.6667 548.833 58.0859 546.828 59.2578C544.432 60.638 541.724 61.3281 538.703 61.3281C534.849 61.3281 531.659 60.2344 529.133 58.0469C526.633 55.8333 525.383 52.7083 525.383 48.6719C525.383 43.4375 527.401 39.6484 531.438 37.3047C533.651 36.0286 536.906 35.1172 541.203 34.5703L544.992 34.1016ZM11.8672 134.406C12.1016 136.385 12.6094 137.792 13.3906 138.625C14.7708 140.109 17.3229 140.852 21.0469 140.852C23.2344 140.852 24.9661 140.526 26.2422 139.875C27.5443 139.224 28.1953 138.247 28.1953 136.945C28.1953 135.695 27.6745 134.745 26.6328 134.094C25.5911 133.443 21.724 132.323 15.0312 130.734C10.2135 129.536 6.8151 128.039 4.83594 126.242C2.85677 124.471 1.86719 121.919 1.86719 118.586C1.86719 114.654 3.40365 111.281 6.47656 108.469C9.57552 105.63 13.9245 104.211 19.5234 104.211C24.8359 104.211 29.1589 105.279 32.4922 107.414C35.8516 109.523 37.7786 113.182 38.2734 118.391H27.1406C26.9844 116.958 26.5807 115.826 25.9297 114.992C24.7057 113.482 22.6224 112.727 19.6797 112.727C17.2578 112.727 15.526 113.104 14.4844 113.859C13.4688 114.615 12.9609 115.5 12.9609 116.516C12.9609 117.792 13.5078 118.716 14.6016 119.289C15.6953 119.888 19.5625 120.917 26.2031 122.375C30.6302 123.417 33.9505 124.992 36.1641 127.102C38.3516 129.237 39.4453 131.906 39.4453 135.109C39.4453 139.328 37.8698 142.779 34.7188 145.461C31.5938 148.117 26.75 149.445 20.1875 149.445C13.4948 149.445 8.54688 148.039 5.34375 145.227C2.16667 142.388 0.578125 138.781 0.578125 134.406H11.8672ZM43.3516 113.742V105.812H49.2891V93.9375H60.3047V105.812H67.2188V113.742H60.3047V136.242C60.3047 137.987 60.526 139.081 60.9688 139.523C61.4115 139.94 62.7656 140.148 65.0312 140.148C65.3698 140.148 65.7214 140.148 66.0859 140.148C66.4766 140.122 66.8542 140.096 67.2188 140.07V148.391L61.9453 148.586C56.6849 148.768 53.0911 147.857 51.1641 145.852C49.9141 144.576 49.2891 142.609 49.2891 139.953V113.742H43.3516ZM93.4688 140.148C96.724 140.148 99.224 138.99 100.969 136.672C102.714 134.354 103.586 131.06 103.586 126.789C103.586 122.518 102.714 119.237 100.969 116.945C99.224 114.628 96.724 113.469 93.4688 113.469C90.2135 113.469 87.7005 114.628 85.9297 116.945C84.1849 119.237 83.3125 122.518 83.3125 126.789C83.3125 131.06 84.1849 134.354 85.9297 136.672C87.7005 138.99 90.2135 140.148 93.4688 140.148ZM115.266 126.789C115.266 133.039 113.469 138.391 109.875 142.844C106.281 147.271 100.826 149.484 93.5078 149.484C86.1901 149.484 80.7344 147.271 77.1406 142.844C73.5469 138.391 71.75 133.039 71.75 126.789C71.75 120.643 73.5469 115.318 77.1406 110.812C80.7344 106.307 86.1901 104.055 93.5078 104.055C100.826 104.055 106.281 106.307 109.875 110.812C113.469 115.318 115.266 120.643 115.266 126.789ZM146.398 104.406C146.607 104.406 146.776 104.419 146.906 104.445C147.062 104.445 147.388 104.458 147.883 104.484V115.891C147.18 115.812 146.555 115.76 146.008 115.734C145.461 115.708 145.018 115.695 144.68 115.695C140.201 115.695 137.193 117.154 135.656 120.07C134.797 121.711 134.367 124.237 134.367 127.648V148H123.156V105.422H133.781V112.844C135.5 110.005 136.997 108.065 138.273 107.023C140.357 105.279 143.065 104.406 146.398 104.406ZM177.922 127.297C177.219 127.74 176.503 128.104 175.773 128.391C175.07 128.651 174.094 128.898 172.844 129.133L170.344 129.602C168 130.018 166.32 130.526 165.305 131.125C163.586 132.141 162.727 133.716 162.727 135.852C162.727 137.753 163.247 139.133 164.289 139.992C165.357 140.826 166.646 141.242 168.156 141.242C170.552 141.242 172.753 140.539 174.758 139.133C176.789 137.727 177.844 135.161 177.922 131.438V127.297ZM171.164 122.102C173.221 121.841 174.693 121.516 175.578 121.125C177.167 120.448 177.961 119.393 177.961 117.961C177.961 116.216 177.349 115.018 176.125 114.367C174.927 113.69 173.156 113.352 170.812 113.352C168.182 113.352 166.32 114.003 165.227 115.305C164.445 116.268 163.924 117.57 163.664 119.211H152.922C153.156 115.487 154.198 112.427 156.047 110.031C158.99 106.281 164.042 104.406 171.203 104.406C175.865 104.406 180.005 105.331 183.625 107.18C187.245 109.029 189.055 112.518 189.055 117.648V137.18C189.055 138.534 189.081 140.174 189.133 142.102C189.211 143.56 189.432 144.549 189.797 145.07C190.161 145.591 190.708 146.021 191.438 146.359V148H179.328C178.99 147.141 178.755 146.333 178.625 145.578C178.495 144.823 178.391 143.964 178.312 143C176.776 144.667 175.005 146.086 173 147.258C170.604 148.638 167.896 149.328 164.875 149.328C161.021 149.328 157.831 148.234 155.305 146.047C152.805 143.833 151.555 140.708 151.555 136.672C151.555 131.438 153.573 127.648 157.609 125.305C159.823 124.029 163.078 123.117 167.375 122.57L171.164 122.102ZM217.258 138.859C219.862 138.859 222.062 137.883 223.859 135.93C225.656 133.951 226.555 130.812 226.555 126.516C226.555 122.479 225.695 119.406 223.977 117.297C222.284 115.188 220.005 114.133 217.141 114.133C213.234 114.133 210.539 115.969 209.055 119.641C208.273 121.594 207.883 124.003 207.883 126.867C207.883 129.341 208.299 131.542 209.133 133.469C210.643 137.062 213.352 138.859 217.258 138.859ZM214.484 104.406C216.62 104.406 218.482 104.732 220.07 105.383C222.779 106.503 224.966 108.56 226.633 111.555V105.422H237.453V145.812C237.453 151.307 236.529 155.448 234.68 158.234C231.503 163.026 225.409 165.422 216.398 165.422C210.956 165.422 206.516 164.354 203.078 162.219C199.641 160.083 197.74 156.893 197.375 152.648H209.484C209.797 153.951 210.305 154.888 211.008 155.461C212.206 156.477 214.224 156.984 217.062 156.984C221.073 156.984 223.755 155.643 225.109 152.961C225.995 151.242 226.438 148.352 226.438 144.289V141.555C225.37 143.378 224.224 144.745 223 145.656C220.786 147.349 217.909 148.195 214.367 148.195C208.898 148.195 204.523 146.281 201.242 142.453C197.987 138.599 196.359 133.391 196.359 126.828C196.359 120.5 197.935 115.188 201.086 110.891C204.237 106.568 208.703 104.406 214.484 104.406ZM264.68 113.469C262.102 113.469 260.096 114.276 258.664 115.891C257.258 117.505 256.372 119.693 256.008 122.453H273.312C273.13 119.51 272.232 117.284 270.617 115.773C269.029 114.237 267.049 113.469 264.68 113.469ZM264.68 104.289C268.221 104.289 271.411 104.953 274.25 106.281C277.089 107.609 279.432 109.706 281.281 112.57C282.948 115.096 284.029 118.026 284.523 121.359C284.81 123.312 284.927 126.125 284.875 129.797H255.734C255.891 134.068 257.232 137.062 259.758 138.781C261.294 139.849 263.143 140.383 265.305 140.383C267.596 140.383 269.458 139.732 270.891 138.43C271.672 137.727 272.362 136.75 272.961 135.5H284.328C284.042 138.026 282.727 140.591 280.383 143.195C276.737 147.336 271.633 149.406 265.07 149.406C259.654 149.406 254.875 147.661 250.734 144.172C246.594 140.682 244.523 135.005 244.523 127.141C244.523 119.771 246.385 114.12 250.109 110.188C253.859 106.255 258.716 104.289 264.68 104.289ZM338.156 104.328C340.786 104.328 343.169 104.784 345.305 105.695C347.466 106.607 349.237 108 350.617 109.875C351.789 111.464 352.505 113.104 352.766 114.797C353.026 116.464 353.156 119.198 353.156 123V148H341.789V122.102C341.789 119.81 341.398 117.961 340.617 116.555C339.602 114.576 337.674 113.586 334.836 113.586C331.893 113.586 329.654 114.576 328.117 116.555C326.607 118.508 325.852 121.307 325.852 124.953V148H314.758V90.6172H325.852V110.969C327.466 108.495 329.328 106.776 331.438 105.812C333.573 104.823 335.812 104.328 338.156 104.328ZM380.383 113.469C377.805 113.469 375.799 114.276 374.367 115.891C372.961 117.505 372.076 119.693 371.711 122.453H389.016C388.833 119.51 387.935 117.284 386.32 115.773C384.732 114.237 382.753 113.469 380.383 113.469ZM380.383 104.289C383.924 104.289 387.115 104.953 389.953 106.281C392.792 107.609 395.135 109.706 396.984 112.57C398.651 115.096 399.732 118.026 400.227 121.359C400.513 123.312 400.63 126.125 400.578 129.797H371.438C371.594 134.068 372.935 137.062 375.461 138.781C376.997 139.849 378.846 140.383 381.008 140.383C383.299 140.383 385.161 139.732 386.594 138.43C387.375 137.727 388.065 136.75 388.664 135.5H400.031C399.745 138.026 398.43 140.591 396.086 143.195C392.44 147.336 387.336 149.406 380.773 149.406C375.357 149.406 370.578 147.661 366.438 144.172C362.297 140.682 360.227 135.005 360.227 127.141C360.227 119.771 362.089 114.12 365.812 110.188C369.562 106.255 374.419 104.289 380.383 104.289ZM431.242 104.406C431.451 104.406 431.62 104.419 431.75 104.445C431.906 104.445 432.232 104.458 432.727 104.484V115.891C432.023 115.812 431.398 115.76 430.852 115.734C430.305 115.708 429.862 115.695 429.523 115.695C425.044 115.695 422.036 117.154 420.5 120.07C419.641 121.711 419.211 124.237 419.211 127.648V148H408V105.422H418.625V112.844C420.344 110.005 421.841 108.065 423.117 107.023C425.201 105.279 427.909 104.406 431.242 104.406ZM456.086 113.469C453.508 113.469 451.503 114.276 450.07 115.891C448.664 117.505 447.779 119.693 447.414 122.453H464.719C464.536 119.51 463.638 117.284 462.023 115.773C460.435 114.237 458.456 113.469 456.086 113.469ZM456.086 104.289C459.628 104.289 462.818 104.953 465.656 106.281C468.495 107.609 470.839 109.706 472.688 112.57C474.354 115.096 475.435 118.026 475.93 121.359C476.216 123.312 476.333 126.125 476.281 129.797H447.141C447.297 134.068 448.638 137.062 451.164 138.781C452.701 139.849 454.549 140.383 456.711 140.383C459.003 140.383 460.865 139.732 462.297 138.43C463.078 137.727 463.768 136.75 464.367 135.5H475.734C475.448 138.026 474.133 140.591 471.789 143.195C468.143 147.336 463.039 149.406 456.477 149.406C451.06 149.406 446.281 147.661 442.141 144.172C438 140.682 435.93 135.005 435.93 127.141C435.93 119.771 437.792 114.12 441.516 110.188C445.266 106.255 450.122 104.289 456.086 104.289ZM483.625 136.359H495.461V148H483.625V136.359Z" fill="#212353"/>
</svg>
