<svg width="47" height="14" viewBox="0 0 47 14" fill="none" xmlns="http://www.w3.org/2000/svg">
<path d="M4.928 1.672H6.672L11.552 13H9.248L8.192 10.408H3.28L2.256 13H0L4.928 1.672ZM7.488 8.68L5.744 4.072L3.968 8.68H7.488ZM12.6349 0.903999H14.5549V6.296H14.6029C14.6989 6.168 14.8215 6.04 14.9709 5.912C15.1202 5.77333 15.3015 5.64533 15.5149 5.528C15.7282 5.41067 15.9735 5.31467 16.2509 5.24C16.5282 5.16533 16.8482 5.128 17.2109 5.128C17.7549 5.128 18.2562 5.23467 18.7149 5.448C19.1735 5.65067 19.5629 5.93333 19.8829 6.296C20.2135 6.65867 20.4695 7.08533 20.6509 7.576C20.8322 8.06667 20.9229 8.59467 20.9229 9.16C20.9229 9.72533 20.8375 10.2533 20.6669 10.744C20.4962 11.2347 20.2455 11.6613 19.9149 12.024C19.5842 12.3867 19.1842 12.6747 18.7149 12.888C18.2455 13.0907 17.7175 13.192 17.1309 13.192C16.5869 13.192 16.0802 13.0853 15.6109 12.872C15.1415 12.6587 14.7682 12.3173 14.4909 11.848H14.4589V13H12.6349V0.903999ZM19.0029 9.16C19.0029 8.86133 18.9495 8.57333 18.8429 8.296C18.7469 8.01867 18.5975 7.77333 18.3949 7.56C18.2029 7.34667 17.9682 7.176 17.6909 7.048C17.4135 6.92 17.0989 6.856 16.7469 6.856C16.3949 6.856 16.0802 6.92 15.8029 7.048C15.5255 7.176 15.2855 7.34667 15.0829 7.56C14.8909 7.77333 14.7415 8.01867 14.6349 8.296C14.5389 8.57333 14.4909 8.86133 14.4909 9.16C14.4909 9.45867 14.5389 9.74667 14.6349 10.024C14.7415 10.3013 14.8909 10.5467 15.0829 10.76C15.2855 10.9733 15.5255 11.144 15.8029 11.272C16.0802 11.4 16.3949 11.464 16.7469 11.464C17.0989 11.464 17.4135 11.4 17.6909 11.272C17.9682 11.144 18.2029 10.9733 18.3949 10.76C18.5975 10.5467 18.7469 10.3013 18.8429 10.024C18.9495 9.74667 19.0029 9.45867 19.0029 9.16ZM22.329 9.16C22.329 8.552 22.4357 8.00267 22.649 7.512C22.873 7.01067 23.1717 6.584 23.545 6.232C23.9183 5.88 24.361 5.608 24.873 5.416C25.385 5.224 25.929 5.128 26.505 5.128C27.081 5.128 27.625 5.224 28.137 5.416C28.649 5.608 29.0917 5.88 29.465 6.232C29.8383 6.584 30.1317 7.01067 30.345 7.512C30.569 8.00267 30.681 8.552 30.681 9.16C30.681 9.768 30.569 10.3227 30.345 10.824C30.1317 11.3147 29.8383 11.736 29.465 12.088C29.0917 12.44 28.649 12.712 28.137 12.904C27.625 13.096 27.081 13.192 26.505 13.192C25.929 13.192 25.385 13.096 24.873 12.904C24.361 12.712 23.9183 12.44 23.545 12.088C23.1717 11.736 22.873 11.3147 22.649 10.824C22.4357 10.3227 22.329 9.768 22.329 9.16ZM24.249 9.16C24.249 9.45867 24.297 9.74667 24.393 10.024C24.4997 10.3013 24.649 10.5467 24.841 10.76C25.0437 10.9733 25.2837 11.144 25.561 11.272C25.8383 11.4 26.153 11.464 26.505 11.464C26.857 11.464 27.1717 11.4 27.449 11.272C27.7263 11.144 27.961 10.9733 28.153 10.76C28.3557 10.5467 28.505 10.3013 28.601 10.024C28.7077 9.74667 28.761 9.45867 28.761 9.16C28.761 8.86133 28.7077 8.57333 28.601 8.296C28.505 8.01867 28.3557 7.77333 28.153 7.56C27.961 7.34667 27.7263 7.176 27.449 7.048C27.1717 6.92 26.857 6.856 26.505 6.856C26.153 6.856 25.8383 6.92 25.561 7.048C25.2837 7.176 25.0437 7.34667 24.841 7.56C24.649 7.77333 24.4997 8.01867 24.393 8.296C24.297 8.57333 24.249 8.86133 24.249 9.16ZM39.4866 13H37.6626V11.768H37.6306C37.4493 12.152 37.172 12.488 36.7986 12.776C36.4253 13.0533 35.9186 13.192 35.2786 13.192C34.7666 13.192 34.3293 13.112 33.9666 12.952C33.6146 12.7813 33.3266 12.5573 33.1026 12.28C32.8786 11.992 32.7186 11.6667 32.6226 11.304C32.5266 10.9413 32.4786 10.5627 32.4786 10.168V5.32H34.3986V9.208C34.3986 9.42133 34.4093 9.66133 34.4306 9.928C34.452 10.184 34.5053 10.4293 34.5906 10.664C34.6866 10.888 34.8253 11.08 35.0066 11.24C35.1986 11.3893 35.4653 11.464 35.8066 11.464C36.1266 11.464 36.3933 11.4107 36.6066 11.304C36.8306 11.1973 37.012 11.0533 37.1506 10.872C37.3 10.6907 37.4066 10.4827 37.4706 10.248C37.5346 10.0133 37.5666 9.768 37.5666 9.512V5.32H39.4866V13ZM40.7701 6.952V5.32H42.3541V3.096H44.2741V5.32H46.3861V6.952H44.2741V10.312C44.2741 10.696 44.3435 11 44.4821 11.224C44.6315 11.448 44.9195 11.56 45.3461 11.56C45.5168 11.56 45.7035 11.544 45.9061 11.512C46.1088 11.4693 46.2688 11.4053 46.3861 11.32V12.936C46.1835 13.032 45.9328 13.096 45.6341 13.128C45.3461 13.1707 45.0901 13.192 44.8661 13.192C44.3541 13.192 43.9328 13.1333 43.6021 13.016C43.2821 12.9093 43.0261 12.744 42.8341 12.52C42.6528 12.2853 42.5248 11.9973 42.4501 11.656C42.3861 11.3147 42.3541 10.92 42.3541 10.472V6.952H40.7701Z" fill="#212353"/>
</svg>
