<svg width="62" height="13" viewBox="0 0 62 13" fill="none" xmlns="http://www.w3.org/2000/svg">
<path d="M0.456 0.672H7.576V2.112H1.992V5.664H7.192V7.104H1.992V12H0.456V0.672ZM10.3635 8.736C10.3635 9.06667 10.4328 9.37067 10.5715 9.648C10.7208 9.91467 10.9128 10.144 11.1475 10.336C11.3822 10.528 11.6542 10.6773 11.9635 10.784C12.2728 10.8907 12.5928 10.944 12.9235 10.944C13.3715 10.944 13.7608 10.8427 14.0915 10.64C14.4222 10.4267 14.7262 10.1493 15.0035 9.808L16.0915 10.64C15.2915 11.6747 14.1715 12.192 12.7315 12.192C12.1342 12.192 11.5902 12.0907 11.0995 11.888C10.6195 11.6853 10.2088 11.408 9.8675 11.056C9.53683 10.6933 9.28083 10.272 9.0995 9.792C8.91817 9.30133 8.8275 8.77333 8.8275 8.208C8.8275 7.64267 8.9235 7.12 9.1155 6.64C9.31817 6.14933 9.59017 5.728 9.9315 5.376C10.2835 5.01333 10.6995 4.73067 11.1795 4.528C11.6595 4.32533 12.1822 4.224 12.7475 4.224C13.4195 4.224 13.9848 4.34133 14.4435 4.576C14.9128 4.81067 15.2968 5.12 15.5955 5.504C15.8942 5.87733 16.1075 6.304 16.2355 6.784C16.3742 7.25333 16.4435 7.73333 16.4435 8.224V8.736H10.3635ZM14.9075 7.584C14.8968 7.264 14.8435 6.97067 14.7475 6.704C14.6622 6.43733 14.5288 6.208 14.3475 6.016C14.1662 5.81333 13.9368 5.65867 13.6595 5.552C13.3928 5.43467 13.0782 5.376 12.7155 5.376C12.3635 5.376 12.0382 5.44533 11.7395 5.584C11.4515 5.712 11.2062 5.88267 11.0035 6.096C10.8008 6.30933 10.6408 6.54933 10.5235 6.816C10.4168 7.072 10.3635 7.328 10.3635 7.584H14.9075ZM18.1981 5.344C18.6035 4.97067 19.0728 4.69333 19.6061 4.512C20.1395 4.32 20.6728 4.224 21.2061 4.224C21.7608 4.224 22.2355 4.29333 22.6301 4.432C23.0355 4.57067 23.3661 4.75733 23.6221 4.992C23.8781 5.22667 24.0648 5.49867 24.1821 5.808C24.3101 6.10667 24.3741 6.42133 24.3741 6.752V10.624C24.3741 10.8907 24.3795 11.136 24.3901 11.36C24.4008 11.584 24.4168 11.7973 24.4381 12H23.1581C23.1261 11.616 23.1101 11.232 23.1101 10.848H23.0781C22.7581 11.3387 22.3795 11.6853 21.9421 11.888C21.5048 12.0907 20.9981 12.192 20.4221 12.192C20.0701 12.192 19.7341 12.144 19.4141 12.048C19.0941 11.952 18.8115 11.808 18.5661 11.616C18.3315 11.424 18.1448 11.1893 18.0061 10.912C17.8675 10.624 17.7981 10.2933 17.7981 9.92C17.7981 9.42933 17.9048 9.01867 18.1181 8.688C18.3421 8.35733 18.6408 8.09067 19.0141 7.888C19.3981 7.67467 19.8408 7.52533 20.3421 7.44C20.8541 7.344 21.3981 7.296 21.9741 7.296H23.0301V6.976C23.0301 6.784 22.9928 6.592 22.9181 6.4C22.8435 6.208 22.7315 6.03733 22.5821 5.888C22.4328 5.728 22.2461 5.60533 22.0221 5.52C21.7981 5.424 21.5315 5.376 21.2221 5.376C20.9448 5.376 20.6995 5.40267 20.4861 5.456C20.2835 5.50933 20.0968 5.57867 19.9261 5.664C19.7555 5.73867 19.6008 5.82933 19.4621 5.936C19.3235 6.04267 19.1901 6.144 19.0621 6.24L18.1981 5.344ZM22.2621 8.352C21.9208 8.352 21.5688 8.37333 21.2061 8.416C20.8541 8.448 20.5288 8.51733 20.2301 8.624C19.9421 8.73067 19.7021 8.88 19.5101 9.072C19.3288 9.264 19.2381 9.50933 19.2381 9.808C19.2381 10.2453 19.3821 10.56 19.6701 10.752C19.9688 10.944 20.3688 11.04 20.8701 11.04C21.2648 11.04 21.6008 10.976 21.8781 10.848C22.1555 10.7093 22.3795 10.5333 22.5501 10.32C22.7208 10.1067 22.8435 9.872 22.9181 9.616C22.9928 9.34933 23.0301 9.088 23.0301 8.832V8.352H22.2621ZM30.527 5.664H28.463V9.104C28.463 9.31733 28.4683 9.53067 28.479 9.744C28.4897 9.94667 28.527 10.1333 28.591 10.304C28.6657 10.464 28.7723 10.5973 28.911 10.704C29.0603 10.8 29.2737 10.848 29.551 10.848C29.7217 10.848 29.8977 10.832 30.079 10.8C30.2603 10.768 30.4257 10.7093 30.575 10.624V11.936C30.4043 12.032 30.1803 12.096 29.903 12.128C29.6363 12.1707 29.4283 12.192 29.279 12.192C28.7243 12.192 28.2923 12.1173 27.983 11.968C27.6843 11.808 27.4603 11.6053 27.311 11.36C27.1723 11.1147 27.087 10.8427 27.055 10.544C27.0337 10.2347 27.023 9.92533 27.023 9.616V5.664H25.359V4.416H27.023V2.288H28.463V4.416H30.527V5.664ZM39.1049 12H37.6649V10.832H37.6329C37.4515 11.2373 37.1369 11.568 36.6889 11.824C36.2409 12.0693 35.7235 12.192 35.1369 12.192C34.7635 12.192 34.4115 12.1333 34.0809 12.016C33.7502 11.9093 33.4569 11.7387 33.2009 11.504C32.9555 11.2693 32.7582 10.9707 32.6089 10.608C32.4595 10.2347 32.3849 9.79733 32.3849 9.296V4.416H33.8249V8.896C33.8249 9.248 33.8729 9.552 33.9689 9.808C34.0649 10.0533 34.1929 10.256 34.3529 10.416C34.5129 10.5653 34.6942 10.6773 34.8969 10.752C35.1102 10.816 35.3289 10.848 35.5529 10.848C35.8515 10.848 36.1289 10.8 36.3849 10.704C36.6409 10.608 36.8649 10.4587 37.0569 10.256C37.2489 10.0427 37.3982 9.776 37.5049 9.456C37.6115 9.136 37.6649 8.75733 37.6649 8.32V4.416H39.1049V12ZM41.2755 4.416H42.7155V5.584H42.7475C42.8435 5.38133 42.9715 5.2 43.1315 5.04C43.2915 4.86933 43.4675 4.72533 43.6595 4.608C43.8622 4.49067 44.0808 4.4 44.3155 4.336C44.5502 4.26133 44.7848 4.224 45.0195 4.224C45.2542 4.224 45.4675 4.256 45.6595 4.32L45.5955 5.872C45.4782 5.84 45.3608 5.81333 45.2435 5.792C45.1262 5.77067 45.0088 5.76 44.8915 5.76C44.1875 5.76 43.6488 5.95733 43.2755 6.352C42.9022 6.74667 42.7155 7.36 42.7155 8.192V12H41.2755V4.416ZM48.0041 8.736C48.0041 9.06667 48.0735 9.37067 48.2121 9.648C48.3615 9.91467 48.5535 10.144 48.7881 10.336C49.0228 10.528 49.2948 10.6773 49.6041 10.784C49.9135 10.8907 50.2335 10.944 50.5641 10.944C51.0121 10.944 51.4015 10.8427 51.7321 10.64C52.0628 10.4267 52.3668 10.1493 52.6441 9.808L53.7321 10.64C52.9321 11.6747 51.8121 12.192 50.3721 12.192C49.7748 12.192 49.2308 12.0907 48.7401 11.888C48.2601 11.6853 47.8495 11.408 47.5081 11.056C47.1775 10.6933 46.9215 10.272 46.7401 9.792C46.5588 9.30133 46.4681 8.77333 46.4681 8.208C46.4681 7.64267 46.5641 7.12 46.7561 6.64C46.9588 6.14933 47.2308 5.728 47.5721 5.376C47.9241 5.01333 48.3401 4.73067 48.8201 4.528C49.3001 4.32533 49.8228 4.224 50.3881 4.224C51.0601 4.224 51.6255 4.34133 52.0841 4.576C52.5535 4.81067 52.9375 5.12 53.2361 5.504C53.5348 5.87733 53.7481 6.304 53.8761 6.784C54.0148 7.25333 54.0841 7.73333 54.0841 8.224V8.736H48.0041ZM52.5481 7.584C52.5375 7.264 52.4841 6.97067 52.3881 6.704C52.3028 6.43733 52.1695 6.208 51.9881 6.016C51.8068 5.81333 51.5775 5.65867 51.3001 5.552C51.0335 5.43467 50.7188 5.376 50.3561 5.376C50.0041 5.376 49.6788 5.44533 49.3801 5.584C49.0921 5.712 48.8468 5.88267 48.6441 6.096C48.4415 6.30933 48.2815 6.54933 48.1641 6.816C48.0575 7.072 48.0041 7.328 48.0041 7.584H52.5481ZM59.8388 6.32C59.6681 6.10667 59.4548 5.93067 59.1988 5.792C58.9534 5.64267 58.6494 5.568 58.2868 5.568C57.9454 5.568 57.6468 5.64267 57.3908 5.792C57.1454 5.93067 57.0228 6.13867 57.0228 6.416C57.0228 6.64 57.0921 6.82133 57.2308 6.96C57.3801 7.09867 57.5508 7.21067 57.7428 7.296C57.9454 7.38133 58.1588 7.44533 58.3828 7.488C58.6068 7.53067 58.7988 7.568 58.9588 7.6C59.2681 7.67467 59.5561 7.76533 59.8228 7.872C60.1001 7.97867 60.3348 8.11733 60.5268 8.288C60.7294 8.45867 60.8841 8.66667 60.9908 8.912C61.1081 9.15733 61.1668 9.456 61.1668 9.808C61.1668 10.2347 61.0761 10.6027 60.8948 10.912C60.7134 11.2107 60.4788 11.456 60.1908 11.648C59.9028 11.84 59.5721 11.9787 59.1988 12.064C58.8361 12.1493 58.4681 12.192 58.0948 12.192C57.4654 12.192 56.9108 12.096 56.4308 11.904C55.9614 11.712 55.5401 11.36 55.1668 10.848L56.2548 9.952C56.4894 10.1867 56.7508 10.3947 57.0388 10.576C57.3268 10.7573 57.6788 10.848 58.0948 10.848C58.2761 10.848 58.4574 10.832 58.6388 10.8C58.8308 10.7573 58.9961 10.6987 59.1348 10.624C59.2841 10.5387 59.4014 10.4373 59.4868 10.32C59.5828 10.192 59.6308 10.048 59.6308 9.888C59.6308 9.67467 59.5614 9.49867 59.4227 9.36C59.2948 9.22133 59.1348 9.11467 58.9427 9.04C58.7614 8.95467 58.5641 8.89067 58.3508 8.848C58.1481 8.79467 57.9668 8.752 57.8068 8.72C57.4974 8.64533 57.2041 8.56 56.9268 8.464C56.6494 8.368 56.4041 8.24 56.1908 8.08C55.9774 7.92 55.8068 7.71733 55.6788 7.472C55.5508 7.22667 55.4868 6.92267 55.4868 6.56C55.4868 6.16533 55.5668 5.824 55.7268 5.536C55.8974 5.23733 56.1161 4.992 56.3828 4.8C56.6601 4.608 56.9694 4.464 57.3108 4.368C57.6628 4.272 58.0148 4.224 58.3668 4.224C58.8788 4.224 59.3694 4.32 59.8388 4.512C60.3081 4.704 60.6814 5.024 60.9588 5.472L59.8388 6.32Z" fill="#4B5D68"/>
</svg>
