<svg width="33" height="18" viewBox="0 0 33 18" fill="none" xmlns="http://www.w3.org/2000/svg">
<path d="M0.456 1.672H1.992V6.376H7.864V1.672H9.4V13H7.864V7.816H1.992V13H0.456V1.672ZM13.0354 9.736C13.0354 10.0667 13.1047 10.3707 13.2434 10.648C13.3927 10.9147 13.5847 11.144 13.8194 11.336C14.054 11.528 14.326 11.6773 14.6354 11.784C14.9447 11.8907 15.2647 11.944 15.5954 11.944C16.0434 11.944 16.4327 11.8427 16.7634 11.64C17.094 11.4267 17.398 11.1493 17.6754 10.808L18.7634 11.64C17.9634 12.6747 16.8434 13.192 15.4034 13.192C14.806 13.192 14.262 13.0907 13.7714 12.888C13.2914 12.6853 12.8807 12.408 12.5394 12.056C12.2087 11.6933 11.9527 11.272 11.7714 10.792C11.59 10.3013 11.4994 9.77333 11.4994 9.208C11.4994 8.64267 11.5954 8.12 11.7874 7.64C11.99 7.14933 12.262 6.728 12.6034 6.376C12.9554 6.01333 13.3714 5.73067 13.8514 5.528C14.3314 5.32533 14.854 5.224 15.4194 5.224C16.0914 5.224 16.6567 5.34133 17.1154 5.576C17.5847 5.81067 17.9687 6.12 18.2674 6.504C18.566 6.87733 18.7794 7.304 18.9074 7.784C19.046 8.25333 19.1154 8.73333 19.1154 9.224V9.736H13.0354ZM17.5794 8.584C17.5687 8.264 17.5154 7.97067 17.4194 7.704C17.334 7.43733 17.2007 7.208 17.0194 7.016C16.838 6.81333 16.6087 6.65867 16.3314 6.552C16.0647 6.43467 15.75 6.376 15.3874 6.376C15.0354 6.376 14.71 6.44533 14.4114 6.584C14.1234 6.712 13.878 6.88267 13.6754 7.096C13.4727 7.30933 13.3127 7.54933 13.1954 7.816C13.0887 8.072 13.0354 8.328 13.0354 8.584H17.5794ZM20.95 0.903999H22.39V13H20.95V0.903999ZM24.6818 5.416H26.1218V6.504H26.1538C26.4311 6.09867 26.8098 5.784 27.2898 5.56C27.7804 5.336 28.2818 5.224 28.7938 5.224C29.3804 5.224 29.9084 5.32533 30.3778 5.528C30.8578 5.73067 31.2631 6.01333 31.5938 6.376C31.9351 6.73867 32.1964 7.16533 32.3778 7.656C32.5591 8.136 32.6498 8.65333 32.6498 9.208C32.6498 9.77333 32.5591 10.3013 32.3778 10.792C32.1964 11.272 31.9351 11.6933 31.5938 12.056C31.2631 12.408 30.8578 12.6853 30.3778 12.888C29.9084 13.0907 29.3804 13.192 28.7938 13.192C28.2498 13.192 27.7378 13.08 27.2578 12.856C26.7778 12.6213 26.4098 12.3067 26.1538 11.912H26.1218V17.512H24.6818V5.416ZM28.6178 6.568C28.2338 6.568 27.8871 6.63733 27.5778 6.776C27.2684 6.904 27.0071 7.08533 26.7938 7.32C26.5804 7.544 26.4151 7.82133 26.2978 8.152C26.1804 8.472 26.1218 8.824 26.1218 9.208C26.1218 9.592 26.1804 9.94933 26.2978 10.28C26.4151 10.6 26.5804 10.8773 26.7938 11.112C27.0071 11.336 27.2684 11.5173 27.5778 11.656C27.8871 11.784 28.2338 11.848 28.6178 11.848C29.0018 11.848 29.3484 11.784 29.6578 11.656C29.9671 11.5173 30.2284 11.336 30.4418 11.112C30.6551 10.8773 30.8204 10.6 30.9378 10.28C31.0551 9.94933 31.1138 9.592 31.1138 9.208C31.1138 8.824 31.0551 8.472 30.9378 8.152C30.8204 7.82133 30.6551 7.544 30.4418 7.32C30.2284 7.08533 29.9671 6.904 29.6578 6.776C29.3484 6.63733 29.0018 6.568 28.6178 6.568Z" fill="#4B5D68"/>
</svg>
