<svg width="220" height="70" viewBox="0 0 220 70" fill="none" xmlns="http://www.w3.org/2000/svg">
<g filter="url(#filter0_d)">
<rect x="5" width="210" height="60" rx="30" fill="white"/>
</g>
<path d="M35.264 23.672H39.2C39.744 23.672 40.2667 23.7253 40.768 23.832C41.28 23.928 41.7333 24.0987 42.128 24.344C42.5227 24.5893 42.8373 24.92 43.072 25.336C43.3067 25.752 43.424 26.28 43.424 26.92C43.424 27.7413 43.1947 28.4293 42.736 28.984C42.288 29.5387 41.6427 29.8747 40.8 29.992L43.808 35H41.376L38.752 30.2H37.28V35H35.264V23.672ZM38.848 28.472C39.136 28.472 39.424 28.4613 39.712 28.44C40 28.408 40.2613 28.344 40.496 28.248C40.7413 28.1413 40.9387 27.9867 41.088 27.784C41.2373 27.5707 41.312 27.2773 41.312 26.904C41.312 26.5733 41.2427 26.3067 41.104 26.104C40.9653 25.9013 40.784 25.752 40.56 25.656C40.336 25.5493 40.0853 25.48 39.808 25.448C39.5413 25.416 39.28 25.4 39.024 25.4H37.28V28.472H38.848ZM46.7821 31.832C46.8461 32.408 47.0701 32.856 47.4541 33.176C47.8381 33.496 48.3021 33.656 48.8461 33.656C49.3261 33.656 49.7261 33.56 50.0461 33.368C50.3768 33.1653 50.6648 32.9147 50.9101 32.616L52.2861 33.656C51.8381 34.2107 51.3368 34.6053 50.7821 34.84C50.2275 35.0747 49.6461 35.192 49.0381 35.192C48.4621 35.192 47.9181 35.096 47.4061 34.904C46.8941 34.712 46.4515 34.44 46.0781 34.088C45.7048 33.736 45.4061 33.3147 45.1821 32.824C44.9688 32.3227 44.8621 31.768 44.8621 31.16C44.8621 30.552 44.9688 30.0027 45.1821 29.512C45.4061 29.0107 45.7048 28.584 46.0781 28.232C46.4515 27.88 46.8941 27.608 47.4061 27.416C47.9181 27.224 48.4621 27.128 49.0381 27.128C49.5715 27.128 50.0568 27.224 50.4941 27.416C50.9421 27.5973 51.3208 27.864 51.6301 28.216C51.9501 28.568 52.1955 29.0053 52.3661 29.528C52.5475 30.04 52.6381 30.632 52.6381 31.304V31.832H46.7821ZM50.7181 30.392C50.7075 29.8267 50.5315 29.384 50.1901 29.064C49.8488 28.7333 49.3741 28.568 48.7661 28.568C48.1901 28.568 47.7315 28.7333 47.3901 29.064C47.0595 29.3947 46.8568 29.8373 46.7821 30.392H50.7181ZM62.4176 38.648H60.4976V34.024H60.4496C60.3536 34.152 60.231 34.2853 60.0816 34.424C59.9323 34.552 59.751 34.6747 59.5376 34.792C59.3243 34.9093 59.079 35.0053 58.8016 35.08C58.5243 35.1547 58.2043 35.192 57.8416 35.192C57.2976 35.192 56.7963 35.0907 56.3376 34.888C55.879 34.6747 55.4843 34.3867 55.1536 34.024C54.8336 33.6613 54.583 33.2347 54.4016 32.744C54.2203 32.2533 54.1296 31.7253 54.1296 31.16C54.1296 30.5947 54.215 30.0667 54.3856 29.576C54.5563 29.0853 54.807 28.6587 55.1376 28.296C55.4683 27.9333 55.863 27.6507 56.3216 27.448C56.791 27.2347 57.3243 27.128 57.9216 27.128C58.4656 27.128 58.9723 27.2347 59.4416 27.448C59.911 27.6613 60.2843 28.0027 60.5616 28.472H60.5936V27.32H62.4176V38.648ZM56.0496 31.16C56.0496 31.4587 56.0976 31.7467 56.1936 32.024C56.3003 32.3013 56.4496 32.5467 56.6416 32.76C56.8443 32.9733 57.0843 33.144 57.3616 33.272C57.639 33.4 57.9536 33.464 58.3056 33.464C58.6576 33.464 58.9723 33.4 59.2496 33.272C59.527 33.144 59.7616 32.9733 59.9536 32.76C60.1563 32.5467 60.3056 32.3013 60.4016 32.024C60.5083 31.7467 60.5616 31.4587 60.5616 31.16C60.5616 30.8613 60.5083 30.5733 60.4016 30.296C60.3056 30.0187 60.1563 29.7733 59.9536 29.56C59.7616 29.3467 59.527 29.176 59.2496 29.048C58.9723 28.92 58.6576 28.856 58.3056 28.856C57.9536 28.856 57.639 28.92 57.3616 29.048C57.0843 29.176 56.8443 29.3467 56.6416 29.56C56.4496 29.7733 56.3003 30.0187 56.1936 30.296C56.0976 30.5733 56.0496 30.8613 56.0496 31.16ZM71.6798 35H69.8558V33.768H69.8238C69.6424 34.152 69.3651 34.488 68.9918 34.776C68.6184 35.0533 68.1117 35.192 67.4718 35.192C66.9597 35.192 66.5224 35.112 66.1597 34.952C65.8077 34.7813 65.5197 34.5573 65.2957 34.28C65.0717 33.992 64.9117 33.6667 64.8157 33.304C64.7197 32.9413 64.6717 32.5627 64.6717 32.168V27.32H66.5917V31.208C66.5917 31.4213 66.6024 31.6613 66.6237 31.928C66.6451 32.184 66.6984 32.4293 66.7837 32.664C66.8797 32.888 67.0184 33.08 67.1997 33.24C67.3918 33.3893 67.6584 33.464 67.9998 33.464C68.3198 33.464 68.5864 33.4107 68.7997 33.304C69.0237 33.1973 69.2051 33.0533 69.3438 32.872C69.4931 32.6907 69.5998 32.4827 69.6638 32.248C69.7277 32.0133 69.7597 31.768 69.7597 31.512V27.32H71.6798V35ZM75.4752 31.832C75.5392 32.408 75.7632 32.856 76.1472 33.176C76.5312 33.496 76.9952 33.656 77.5392 33.656C78.0193 33.656 78.4193 33.56 78.7393 33.368C79.0699 33.1653 79.3579 32.9147 79.6033 32.616L80.9792 33.656C80.5312 34.2107 80.0299 34.6053 79.4753 34.84C78.9206 35.0747 78.3392 35.192 77.7312 35.192C77.1552 35.192 76.6112 35.096 76.0992 34.904C75.5872 34.712 75.1446 34.44 74.7712 34.088C74.3979 33.736 74.0992 33.3147 73.8752 32.824C73.6619 32.3227 73.5552 31.768 73.5552 31.16C73.5552 30.552 73.6619 30.0027 73.8752 29.512C74.0992 29.0107 74.3979 28.584 74.7712 28.232C75.1446 27.88 75.5872 27.608 76.0992 27.416C76.6112 27.224 77.1552 27.128 77.7312 27.128C78.2646 27.128 78.7499 27.224 79.1873 27.416C79.6353 27.5973 80.0139 27.864 80.3232 28.216C80.6432 28.568 80.8886 29.0053 81.0592 29.528C81.2406 30.04 81.3313 30.632 81.3313 31.304V31.832H75.4752ZM79.4113 30.392C79.4006 29.8267 79.2246 29.384 78.8832 29.064C78.5419 28.7333 78.0673 28.568 77.4592 28.568C76.8832 28.568 76.4246 28.7333 76.0832 29.064C75.7526 29.3947 75.5499 29.8373 75.4752 30.392H79.4113ZM87.3028 29.448C86.9294 28.9253 86.4281 28.664 85.7988 28.664C85.5428 28.664 85.2921 28.728 85.0468 28.856C84.8014 28.984 84.6788 29.192 84.6788 29.48C84.6788 29.7147 84.7801 29.8853 84.9828 29.992C85.1854 30.0987 85.4414 30.1893 85.7508 30.264C86.0601 30.3387 86.3908 30.4187 86.7428 30.504C87.1054 30.5787 87.4414 30.7013 87.7508 30.872C88.0601 31.032 88.3161 31.256 88.5188 31.544C88.7214 31.832 88.8228 32.2267 88.8228 32.728C88.8228 33.1867 88.7214 33.576 88.5188 33.896C88.3268 34.2053 88.0708 34.456 87.7508 34.648C87.4414 34.84 87.0894 34.9787 86.6948 35.064C86.3001 35.1493 85.9054 35.192 85.5108 35.192C84.9134 35.192 84.3641 35.1067 83.8628 34.936C83.3614 34.7653 82.9134 34.456 82.5188 34.008L83.7988 32.808C84.0441 33.0853 84.3054 33.3147 84.5828 33.496C84.8708 33.6667 85.2174 33.752 85.6228 33.752C85.7614 33.752 85.9054 33.736 86.0548 33.704C86.2041 33.672 86.3428 33.6187 86.4708 33.544C86.5988 33.4693 86.7001 33.3787 86.7748 33.272C86.8601 33.1547 86.9028 33.0213 86.9028 32.872C86.9028 32.6053 86.8014 32.408 86.5988 32.28C86.3961 32.152 86.1401 32.0507 85.8308 31.976C85.5214 31.8907 85.1854 31.816 84.8228 31.752C84.4708 31.6773 84.1401 31.5653 83.8308 31.416C83.5214 31.256 83.2654 31.0373 83.0628 30.76C82.8601 30.4827 82.7588 30.0987 82.7588 29.608C82.7588 29.1813 82.8441 28.8133 83.0148 28.504C83.1961 28.184 83.4308 27.9227 83.7188 27.72C84.0068 27.5173 84.3374 27.368 84.7108 27.272C85.0841 27.176 85.4628 27.128 85.8468 27.128C86.3588 27.128 86.8654 27.2187 87.3668 27.4C87.8681 27.5707 88.2734 27.8693 88.5828 28.296L87.3028 29.448ZM89.5001 28.952V27.32H91.0841V25.096H93.0041V27.32H95.1161V28.952H93.0041V32.312C93.0041 32.696 93.0735 33 93.2121 33.224C93.3615 33.448 93.6495 33.56 94.0761 33.56C94.2468 33.56 94.4335 33.544 94.6361 33.512C94.8388 33.4693 94.9988 33.4053 95.1161 33.32V34.936C94.9135 35.032 94.6628 35.096 94.3641 35.128C94.0761 35.1707 93.8201 35.192 93.5961 35.192C93.0841 35.192 92.6628 35.1333 92.3321 35.016C92.0121 34.9093 91.7561 34.744 91.5641 34.52C91.3828 34.2853 91.2548 33.9973 91.1801 33.656C91.1161 33.3147 91.0841 32.92 91.0841 32.472V28.952H89.5001ZM101.685 23.672H106.149C106.896 23.672 107.616 23.7893 108.309 24.024C109.003 24.248 109.616 24.5947 110.149 25.064C110.683 25.5333 111.109 26.1253 111.429 26.84C111.749 27.544 111.909 28.376 111.909 29.336C111.909 30.3067 111.723 31.1493 111.349 31.864C110.987 32.568 110.512 33.1547 109.925 33.624C109.349 34.0827 108.704 34.4293 107.989 34.664C107.285 34.888 106.592 35 105.909 35H101.685V23.672ZM105.205 33.176C105.835 33.176 106.427 33.1067 106.981 32.968C107.547 32.8187 108.037 32.5947 108.453 32.296C108.869 31.9867 109.195 31.592 109.429 31.112C109.675 30.6213 109.797 30.0293 109.797 29.336C109.797 28.6533 109.691 28.0667 109.477 27.576C109.264 27.0853 108.965 26.6907 108.581 26.392C108.208 26.0827 107.76 25.8587 107.237 25.72C106.725 25.5707 106.16 25.496 105.541 25.496H103.701V33.176H105.205ZM115.266 31.832C115.33 32.408 115.554 32.856 115.938 33.176C116.322 33.496 116.786 33.656 117.33 33.656C117.81 33.656 118.21 33.56 118.53 33.368C118.861 33.1653 119.149 32.9147 119.394 32.616L120.77 33.656C120.322 34.2107 119.821 34.6053 119.266 34.84C118.711 35.0747 118.13 35.192 117.522 35.192C116.946 35.192 116.402 35.096 115.89 34.904C115.378 34.712 114.935 34.44 114.562 34.088C114.189 33.736 113.89 33.3147 113.666 32.824C113.453 32.3227 113.346 31.768 113.346 31.16C113.346 30.552 113.453 30.0027 113.666 29.512C113.89 29.0107 114.189 28.584 114.562 28.232C114.935 27.88 115.378 27.608 115.89 27.416C116.402 27.224 116.946 27.128 117.522 27.128C118.055 27.128 118.541 27.224 118.978 27.416C119.426 27.5973 119.805 27.864 120.114 28.216C120.434 28.568 120.679 29.0053 120.85 29.528C121.031 30.04 121.122 30.632 121.122 31.304V31.832H115.266ZM119.202 30.392C119.191 29.8267 119.015 29.384 118.674 29.064C118.333 28.7333 117.858 28.568 117.25 28.568C116.674 28.568 116.215 28.7333 115.874 29.064C115.543 29.3947 115.341 29.8373 115.266 30.392H119.202ZM122.917 27.32H124.741V28.52H124.773C124.944 28.1573 125.216 27.8373 125.589 27.56C125.973 27.272 126.485 27.128 127.125 27.128C128.331 27.128 129.131 27.6027 129.525 28.552C129.803 28.0613 130.149 27.704 130.565 27.48C130.981 27.2453 131.477 27.128 132.053 27.128C132.565 27.128 132.997 27.2133 133.349 27.384C133.701 27.5547 133.984 27.7893 134.197 28.088C134.421 28.3867 134.581 28.7387 134.677 29.144C134.773 29.5387 134.821 29.9653 134.821 30.424V35H132.901V30.648C132.901 30.4133 132.88 30.1893 132.837 29.976C132.795 29.752 132.72 29.56 132.613 29.4C132.507 29.2293 132.363 29.096 132.181 29C132 28.904 131.765 28.856 131.477 28.856C131.179 28.856 130.923 28.9147 130.709 29.032C130.507 29.1387 130.336 29.288 130.197 29.48C130.069 29.6613 129.973 29.8747 129.909 30.12C129.856 30.3547 129.829 30.5947 129.829 30.84V35H127.909V30.424C127.909 29.944 127.808 29.5653 127.605 29.288C127.403 29 127.067 28.856 126.597 28.856C126.277 28.856 126.005 28.9093 125.781 29.016C125.568 29.1227 125.387 29.2667 125.237 29.448C125.099 29.6293 124.997 29.8373 124.933 30.072C124.869 30.3067 124.837 30.552 124.837 30.808V35H122.917V27.32ZM136.615 31.16C136.615 30.552 136.722 30.0027 136.935 29.512C137.159 29.0107 137.458 28.584 137.831 28.232C138.205 27.88 138.647 27.608 139.159 27.416C139.671 27.224 140.215 27.128 140.791 27.128C141.367 27.128 141.911 27.224 142.423 27.416C142.935 27.608 143.378 27.88 143.751 28.232C144.125 28.584 144.418 29.0107 144.631 29.512C144.855 30.0027 144.967 30.552 144.967 31.16C144.967 31.768 144.855 32.3227 144.631 32.824C144.418 33.3147 144.125 33.736 143.751 34.088C143.378 34.44 142.935 34.712 142.423 34.904C141.911 35.096 141.367 35.192 140.791 35.192C140.215 35.192 139.671 35.096 139.159 34.904C138.647 34.712 138.205 34.44 137.831 34.088C137.458 33.736 137.159 33.3147 136.935 32.824C136.722 32.3227 136.615 31.768 136.615 31.16ZM138.535 31.16C138.535 31.4587 138.583 31.7467 138.679 32.024C138.786 32.3013 138.935 32.5467 139.127 32.76C139.33 32.9733 139.57 33.144 139.847 33.272C140.125 33.4 140.439 33.464 140.791 33.464C141.143 33.464 141.458 33.4 141.735 33.272C142.013 33.144 142.247 32.9733 142.439 32.76C142.642 32.5467 142.791 32.3013 142.887 32.024C142.994 31.7467 143.047 31.4587 143.047 31.16C143.047 30.8613 142.994 30.5733 142.887 30.296C142.791 30.0187 142.642 29.7733 142.439 29.56C142.247 29.3467 142.013 29.176 141.735 29.048C141.458 28.92 141.143 28.856 140.791 28.856C140.439 28.856 140.125 28.92 139.847 29.048C139.57 29.176 139.33 29.3467 139.127 29.56C138.935 29.7733 138.786 30.0187 138.679 30.296C138.583 30.5733 138.535 30.8613 138.535 31.16Z" fill="#212353"/>
<path d="M180 37L186 30L180 23" stroke="#9C69E2" stroke-width="2" stroke-linecap="round" stroke-linejoin="round"/>
<path d="M186 30H166" stroke="#9C69E2" stroke-width="2" stroke-linecap="round" stroke-linejoin="round"/>
<defs>
<filter id="filter0_d" x="0" y="0" width="220" height="70" filterUnits="userSpaceOnUse" color-interpolation-filters="sRGB">
<feFlood flood-opacity="0" result="BackgroundImageFix"/>
<feColorMatrix in="SourceAlpha" type="matrix" values="0 0 0 0 0 0 0 0 0 0 0 0 0 0 0 0 0 0 127 0" result="hardAlpha"/>
<feOffset dy="5"/>
<feGaussianBlur stdDeviation="2.5"/>
<feColorMatrix type="matrix" values="0 0 0 0 0.294064 0 0 0 0 0.364384 0 0 0 0 0.405936 0 0 0 0.1 0"/>
<feBlend mode="normal" in2="BackgroundImageFix" result="effect1_dropShadow"/>
<feBlend mode="normal" in="SourceGraphic" in2="effect1_dropShadow" result="shape"/>
</filter>
</defs>
</svg>
