<svg width="50" height="17" viewBox="0 0 50 17" fill="none" xmlns="http://www.w3.org/2000/svg">
<path d="M1.792 9.632C2.06933 10.048 2.42133 10.3573 2.848 10.56C3.28533 10.752 3.73333 10.848 4.192 10.848C4.448 10.848 4.70933 10.8107 4.976 10.736C5.24267 10.6507 5.48267 10.528 5.696 10.368C5.92 10.208 6.10133 10.0107 6.24 9.776C6.37867 9.54133 6.448 9.26933 6.448 8.96C6.448 8.52267 6.30933 8.192 6.032 7.968C5.75467 7.73333 5.408 7.54133 4.992 7.392C4.58667 7.232 4.13867 7.08267 3.648 6.944C3.168 6.79467 2.72 6.592 2.304 6.336C1.89867 6.08 1.55733 5.73867 1.28 5.312C1.00267 4.87467 0.864 4.288 0.864 3.552C0.864 3.22133 0.933333 2.86933 1.072 2.496C1.22133 2.12267 1.45067 1.78133 1.76 1.472C2.06933 1.16267 2.464 0.906666 2.944 0.704C3.43467 0.490666 4.02133 0.384 4.704 0.384C5.32267 0.384 5.91467 0.469333 6.48 0.639999C7.04533 0.810666 7.54133 1.15733 7.968 1.68L6.72 2.816C6.528 2.51733 6.256 2.27733 5.904 2.096C5.552 1.91467 5.152 1.824 4.704 1.824C4.27733 1.824 3.92 1.88267 3.632 2C3.35467 2.10667 3.13067 2.25067 2.96 2.432C2.78933 2.60267 2.66667 2.78933 2.592 2.992C2.528 3.19467 2.496 3.38133 2.496 3.552C2.496 4.032 2.63467 4.4 2.912 4.656C3.18933 4.912 3.53067 5.12 3.936 5.28C4.352 5.44 4.8 5.584 5.28 5.712C5.77067 5.84 6.21867 6.02133 6.624 6.256C7.04 6.48 7.38667 6.78933 7.664 7.184C7.94133 7.568 8.08 8.10133 8.08 8.784C8.08 9.328 7.97333 9.81867 7.76 10.256C7.55733 10.6933 7.28 11.0613 6.928 11.36C6.576 11.6587 6.16 11.888 5.68 12.048C5.2 12.208 4.688 12.288 4.144 12.288C3.41867 12.288 2.73067 12.16 2.08 11.904C1.42933 11.648 0.912 11.2533 0.528 10.72L1.792 9.632ZM10.0906 4.416H11.5306V12H10.0906V4.416ZM9.75463 1.696C9.75463 1.408 9.85596 1.16267 10.0586 0.959999C10.272 0.746666 10.5226 0.639999 10.8106 0.639999C11.0986 0.639999 11.344 0.746666 11.5466 0.959999C11.76 1.16267 11.8666 1.408 11.8666 1.696C11.8666 1.984 11.76 2.23467 11.5466 2.448C11.344 2.65067 11.0986 2.752 10.8106 2.752C10.5226 2.752 10.272 2.65067 10.0586 2.448C9.85596 2.23467 9.75463 1.984 9.75463 1.696ZM21.4224 11.936C21.4224 12.512 21.321 13.0347 21.1184 13.504C20.9264 13.984 20.649 14.3947 20.2864 14.736C19.9237 15.088 19.4864 15.36 18.9744 15.552C18.4624 15.744 17.897 15.84 17.2784 15.84C16.553 15.84 15.8864 15.7387 15.2784 15.536C14.681 15.3333 14.1104 14.9813 13.5664 14.48L14.5424 13.264C14.9157 13.6693 15.321 13.9733 15.7584 14.176C16.1957 14.3893 16.6917 14.496 17.2464 14.496C17.7797 14.496 18.2224 14.416 18.5744 14.256C18.9264 14.1067 19.2037 13.9093 19.4064 13.664C19.6197 13.4187 19.769 13.136 19.8544 12.816C19.9397 12.5067 19.9824 12.192 19.9824 11.872V10.752H19.9344C19.657 11.2107 19.2784 11.552 18.7984 11.776C18.329 11.9893 17.833 12.096 17.3104 12.096C16.7557 12.096 16.2384 12 15.7584 11.808C15.289 11.6053 14.8837 11.3333 14.5424 10.992C14.201 10.64 13.9344 10.2293 13.7424 9.76C13.5504 9.28 13.4544 8.76267 13.4544 8.208C13.4544 7.65333 13.545 7.136 13.7264 6.656C13.9077 6.16533 14.1637 5.73867 14.4944 5.376C14.8357 5.01333 15.241 4.73067 15.7104 4.528C16.1904 4.32533 16.7237 4.224 17.3104 4.224C17.8224 4.224 18.3184 4.336 18.7984 4.56C19.289 4.784 19.673 5.09867 19.9504 5.504H19.9824V4.416H21.4224V11.936ZM17.4864 5.568C17.1024 5.568 16.7557 5.63733 16.4464 5.776C16.137 5.904 15.8757 6.08533 15.6624 6.32C15.449 6.544 15.2837 6.82133 15.1664 7.152C15.049 7.472 14.9904 7.824 14.9904 8.208C14.9904 8.976 15.2144 9.59467 15.6624 10.064C16.1104 10.5227 16.7184 10.752 17.4864 10.752C18.2544 10.752 18.8624 10.5227 19.3104 10.064C19.7584 9.59467 19.9824 8.976 19.9824 8.208C19.9824 7.824 19.9237 7.472 19.8064 7.152C19.689 6.82133 19.5237 6.544 19.3104 6.32C19.097 6.08533 18.8357 5.904 18.5264 5.776C18.217 5.63733 17.8704 5.568 17.4864 5.568ZM23.6036 4.416H25.0436V5.584H25.0756C25.257 5.17867 25.5716 4.85333 26.0196 4.608C26.4676 4.352 26.985 4.224 27.5716 4.224C27.9343 4.224 28.281 4.28267 28.6116 4.4C28.953 4.50667 29.2463 4.67733 29.4916 4.912C29.7476 5.14667 29.9503 5.45067 30.0996 5.824C30.249 6.18667 30.3236 6.61867 30.3236 7.12V12H28.8836V7.52C28.8836 7.168 28.8356 6.86933 28.7396 6.624C28.6436 6.368 28.5156 6.16533 28.3556 6.016C28.1956 5.856 28.009 5.744 27.7956 5.68C27.593 5.60533 27.3796 5.568 27.1556 5.568C26.857 5.568 26.5796 5.616 26.3236 5.712C26.0676 5.808 25.8436 5.96267 25.6516 6.176C25.4596 6.37867 25.3103 6.64 25.2036 6.96C25.097 7.28 25.0436 7.65867 25.0436 8.096V12H23.6036V4.416ZM39.2143 12H37.7743V10.832H37.7423C37.5609 11.2373 37.2463 11.568 36.7983 11.824C36.3503 12.0693 35.8329 12.192 35.2463 12.192C34.8729 12.192 34.5209 12.1333 34.1903 12.016C33.8596 11.9093 33.5663 11.7387 33.3103 11.504C33.0649 11.2693 32.8676 10.9707 32.7183 10.608C32.5689 10.2347 32.4943 9.79733 32.4943 9.296V4.416H33.9343V8.896C33.9343 9.248 33.9823 9.552 34.0783 9.808C34.1743 10.0533 34.3023 10.256 34.4623 10.416C34.6223 10.5653 34.8036 10.6773 35.0063 10.752C35.2196 10.816 35.4383 10.848 35.6623 10.848C35.9609 10.848 36.2383 10.8 36.4943 10.704C36.7503 10.608 36.9743 10.4587 37.1663 10.256C37.3583 10.0427 37.5076 9.776 37.6143 9.456C37.7209 9.136 37.7743 8.75733 37.7743 8.32V4.416H39.2143V12ZM41.3849 4.416H42.8249V5.504H42.8569C43.1342 5.09867 43.5129 4.784 43.9929 4.56C44.4835 4.336 44.9849 4.224 45.4969 4.224C46.0835 4.224 46.6115 4.32533 47.0809 4.528C47.5609 4.73067 47.9662 5.01333 48.2969 5.376C48.6382 5.73867 48.8995 6.16533 49.0809 6.656C49.2622 7.136 49.3529 7.65333 49.3529 8.208C49.3529 8.77333 49.2622 9.30133 49.0809 9.792C48.8995 10.272 48.6382 10.6933 48.2969 11.056C47.9662 11.408 47.5609 11.6853 47.0809 11.888C46.6115 12.0907 46.0835 12.192 45.4969 12.192C44.9529 12.192 44.4409 12.08 43.9609 11.856C43.4809 11.6213 43.1129 11.3067 42.8569 10.912H42.8249V16.512H41.3849V4.416ZM45.3209 5.568C44.9369 5.568 44.5902 5.63733 44.2809 5.776C43.9715 5.904 43.7102 6.08533 43.4969 6.32C43.2835 6.544 43.1182 6.82133 43.0009 7.152C42.8835 7.472 42.8249 7.824 42.8249 8.208C42.8249 8.592 42.8835 8.94933 43.0009 9.28C43.1182 9.6 43.2835 9.87733 43.4969 10.112C43.7102 10.336 43.9715 10.5173 44.2809 10.656C44.5902 10.784 44.9369 10.848 45.3209 10.848C45.7049 10.848 46.0515 10.784 46.3609 10.656C46.6702 10.5173 46.9315 10.336 47.1449 10.112C47.3582 9.87733 47.5235 9.6 47.6409 9.28C47.7582 8.94933 47.8169 8.592 47.8169 8.208C47.8169 7.824 47.7582 7.472 47.6409 7.152C47.5235 6.82133 47.3582 6.544 47.1449 6.32C46.9315 6.08533 46.6702 5.904 46.3609 5.776C46.0515 5.63733 45.7049 5.568 45.3209 5.568Z" fill="#4B5D68"/>
</svg>
